VotoSerifGX-ExtendedLightDisplay.ufo
<glyph name="parenright" format="2">
  <advance width="335"/>
  <unicode hex="0029"/>
  <outline>
    <contour>
      <point x="91" y="-113" type="line"/>
      <point x="269" y="-50"/>
      <point x="315" y="26"/>
      <point x="315" y="315" type="curve" smooth="yes"/>
      <point x="315" y="609"/>
      <point x="269" y="684"/>
      <point x="91" y="743" type="curve"/>
      <point x="91" y="731" type="line"/>
      <point x="328" y="645"/>
      <point x="287" y="424"/>
      <point x="287" y="315" type="curve" smooth="yes"/>
      <point x="287" y="208"/>
      <point x="322" y="3"/>
      <point x="91" y="-101" type="curve"/>
    </contour>
  </outline>
</glyph>
<glyph name="six" format="2">
  <advance width="693"/>
  <unicode hex="0036"/>
  <outline>
    <contour>
      <point x="364" y="-10" type="curve" smooth="yes"/>
      <point x="551" y="-10"/>
      <point x="603" y="124"/>
      <point x="603" y="228" type="curve" smooth="yes"/>
      <point x="603" y="355"/>
      <point x="497" y="425"/>
      <point x="362" y="425" type="curve" smooth="yes"/>
      <point x="311" y="425"/>
      <point x="248" y="427"/>
      <point x="132" y="352" type="curve"/>
      <point x="133" y="595"/>
      <point x="258" y="714"/>
      <point x="394" y="714" type="curve" smooth="yes"/>
      <point x="493" y="714"/>
      <point x="544" y="688"/>
      <point x="544" y="591" type="curve"/>
      <point x="567" y="591"/>
      <point x="567" y="614"/>
      <point x="567" y="622" type="curve" smooth="yes"/>
      <point x="567" y="662"/>
      <point x="531" y="724"/>
      <point x="397" y="724" type="curve" smooth="yes"/>
      <point x="240" y="724"/>
      <point x="104" y="614"/>
      <point x="104" y="325" type="curve" smooth="yes"/>
      <point x="104" y="109"/>
      <point x="207" y="-10"/>
    </contour>
    <contour>
      <point x="366" y="0" type="curve" smooth="yes"/>
      <point x="205" y="0"/>
      <point x="137" y="142"/>
      <point x="132" y="343" type="curve"/>
      <point x="261" y="423"/>
      <point x="309" y="405"/>
      <point x="364" y="405" type="curve" smooth="yes"/>
      <point x="507" y="405"/>
      <point x="575" y="311"/>
      <point x="575" y="224" type="curve" smooth="yes"/>
      <point x="575" y="110"/>
      <point x="519" y="0"/>
    </contour>
  </outline>
</glyph>
<glyph name="C" format="2">
  <advance width="673"/>
  <unicode hex="0043"/>
  <anchor x="376" y="0" name="bottom"/>
  <anchor x="376" y="714" name="top"/>
  <anchor x="653" y="714" name="topright"/>
  <outline>
    <contour>
      <point x="392" y="-10" type="curve" smooth="yes"/>
      <point x="551" y="-10"/>
      <point x="621" y="65"/>
      <point x="621" y="99" type="curve" smooth="yes"/>
      <point x="621" y="106"/>
      <point x="614" y="111"/>
      <point x="603" y="110" type="curve"/>
      <point x="580" y="42"/>
      <point x="512" y="0"/>
      <point x="388" y="0" type="curve" smooth="yes"/>
      <point x="193" y="0"/>
      <point x="98" y="118"/>
      <point x="98" y="357" type="curve" smooth="yes"/>
      <point x="98" y="594"/>
      <point x="209" y="714"/>
      <point x="383" y="714" type="curve" smooth="yes"/>
      <point x="573" y="714"/>
      <point x="603" y="670"/>
      <point x="609" y="570" type="curve"/>
      <point x="628" y="570"/>
      <point x="629" y="582"/>
      <point x="629" y="609" type="curve" smooth="yes"/>
      <point x="629" y="661"/>
      <point x="585" y="724"/>
      <point x="386" y="724" type="curve" smooth="yes"/>
      <point x="185" y="724"/>
      <point x="70" y="593"/>
      <point x="70" y="356" type="curve" smooth="yes"/>
      <point x="70" y="126"/>
      <point x="171" y="-10"/>
    </contour>
  </outline>
</glyph>
<glyph name="D" format="2">
  <advance width="832"/>
  <unicode hex="0044"/>
  <anchor x="417" y="0" name="bottom"/>
  <anchor x="417" y="357" name="center"/>
  <anchor x="417" y="714" name="top"/>
  <anchor x="812" y="714" name="topright"/>
  <outline>
    <contour>
      <point x="64" y="0" type="line"/>
      <point x="404" y="0" type="line" smooth="yes"/>
      <point x="643" y="0"/>
      <point x="755" y="122"/>
      <point x="755" y="341" type="curve" smooth="yes"/>
      <point x="755" y="562"/>
      <point x="633" y="714"/>
      <point x="395" y="714" type="curve" smooth="yes"/>
      <point x="64" y="714" type="line"/>
      <point x="64" y="704" type="line"/>
      <point x="137" y="704" type="line" smooth="yes"/>
      <point x="184" y="704"/>
      <point x="188" y="690"/>
      <point x="188" y="613" type="curve" smooth="yes"/>
      <point x="188" y="96" type="line" smooth="yes"/>
      <point x="188" y="25"/>
      <point x="184" y="10"/>
      <point x="138" y="10" type="curve" smooth="yes"/>
      <point x="64" y="10" type="line"/>
    </contour>
    <contour>
      <point x="216" y="10" type="line"/>
      <point x="216" y="704" type="line"/>
      <point x="377" y="704" type="line" smooth="yes"/>
      <point x="628" y="704"/>
      <point x="727" y="562"/>
      <point x="727" y="341" type="curve" smooth="yes"/>
      <point x="727" y="121"/>
      <point x="632" y="10"/>
      <point x="376" y="10" type="curve" smooth="yes"/>
    </contour>
  </outline>
</glyph>
<glyph name="R" format="2">
  <advance width="727"/>
  <unicode hex="0052"/>
  <anchor x="363" y="0" name="bottom"/>
  <anchor x="363" y="714" name="top"/>
  <anchor x="707" y="714" name="topright"/>
  <outline>
    <contour>
      <point x="64" y="0" type="line"/>
      <point x="327" y="0" type="line"/>
      <point x="327" y="10" type="line"/>
      <point x="272" y="10" type="line" smooth="yes"/>
      <point x="222" y="10"/>
      <point x="216" y="21"/>
      <point x="216" y="98" type="curve" smooth="yes"/>
      <point x="216" y="337" type="line"/>
      <point x="361" y="337" type="line"/>
      <point x="565" y="87" type="line" smooth="yes"/>
      <point x="622" y="20"/>
      <point x="628" y="0"/>
      <point x="731" y="0" type="curve" smooth="yes"/>
      <point x="736" y="0" type="line"/>
      <point x="736" y="10" type="line"/>
      <point x="719" y="10" type="line" smooth="yes"/>
      <point x="687" y="10"/>
      <point x="662" y="16"/>
      <point x="614" y="71" type="curve" smooth="yes"/>
      <point x="394" y="338" type="line"/>
      <point x="490" y="348"/>
      <point x="596" y="412"/>
      <point x="596" y="538" type="curve" smooth="yes"/>
      <point x="596" y="679"/>
      <point x="511" y="714"/>
      <point x="306" y="714" type="curve" smooth="yes"/>
      <point x="64" y="714" type="line"/>
      <point x="64" y="704" type="line"/>
      <point x="132" y="704" type="line" smooth="yes"/>
      <point x="182" y="704"/>
      <point x="188" y="693"/>
      <point x="188" y="616" type="curve" smooth="yes"/>
      <point x="188" y="98" type="line" smooth="yes"/>
      <point x="188" y="21"/>
      <point x="182" y="10"/>
      <point x="132" y="10" type="curve" smooth="yes"/>
      <point x="64" y="10" type="line"/>
    </contour>
    <contour>
      <point x="216" y="347" type="line"/>
      <point x="216" y="704" type="line"/>
      <point x="322" y="704" type="line" smooth="yes"/>
      <point x="521" y="704"/>
      <point x="568" y="648"/>
      <point x="568" y="536" type="curve" smooth="yes"/>
      <point x="568" y="421"/>
      <point x="452" y="347"/>
      <point x="358" y="347" type="curve" smooth="yes"/>
    </contour>
  </outline>
</glyph>
<glyph name="U" format="2">
  <advance width="838"/>
  <unicode hex="0055"/>
  <anchor x="420" y="0" name="bottom"/>
  <anchor x="420" y="714" name="top"/>
  <anchor x="833" y="714" name="topright"/>
  <outline>
    <contour>
      <point x="419" y="-10" type="curve" smooth="yes"/>
      <point x="567" y="-10"/>
      <point x="692" y="60"/>
      <point x="692" y="196" type="curve" smooth="yes"/>
      <point x="692" y="615" type="line" smooth="yes"/>
      <point x="692" y="693"/>
      <point x="698" y="704"/>
      <point x="748" y="704" type="curve" smooth="yes"/>
      <point x="801" y="704" type="line"/>
      <point x="801" y="714" type="line"/>
      <point x="578" y="714" type="line"/>
      <point x="578" y="704" type="line"/>
      <point x="626" y="704" type="line" smooth="yes"/>
      <point x="676" y="704"/>
      <point x="682" y="693"/>
      <point x="682" y="615" type="curve" smooth="yes"/>
      <point x="682" y="194" type="line" smooth="yes"/>
      <point x="682" y="51"/>
      <point x="545" y="5"/>
      <point x="418" y="5" type="curve" smooth="yes"/>
      <point x="259" y="5"/>
      <point x="165" y="71"/>
      <point x="165" y="210" type="curve" smooth="yes"/>
      <point x="165" y="616" type="line" smooth="yes"/>
      <point x="165" y="692"/>
      <point x="170" y="704"/>
      <point x="221" y="704" type="curve" smooth="yes"/>
      <point x="282" y="704" type="line"/>
      <point x="282" y="714" type="line"/>
      <point x="16" y="714" type="line"/>
      <point x="16" y="704" type="line"/>
      <point x="81" y="704" type="line" smooth="yes"/>
      <point x="131" y="704"/>
      <point x="137" y="693"/>
      <point x="137" y="613" type="curve" smooth="yes"/>
      <point x="137" y="214" type="line" smooth="yes"/>
      <point x="137" y="50"/>
      <point x="251" y="-10"/>
    </contour>
  </outline>
</glyph>
<glyph name="c" format="2">
  <advance width="549"/>
  <unicode hex="0063"/>
  <anchor x="317" y="0" name="bottom"/>
  <anchor x="317" y="536" name="top"/>
  <anchor x="529" y="536" name="topright"/>
  <outline>
    <contour>
      <point x="319" y="-10" type="curve" smooth="yes"/>
      <point x="437" y="-10"/>
      <point x="508" y="60"/>
      <point x="508" y="90" type="curve" smooth="yes"/>
      <point x="508" y="103"/>
      <point x="505" y="111"/>
      <point x="499" y="118" type="curve"/>
      <point x="484" y="65"/>
      <point x="428" y="2"/>
      <point x="318" y="0" type="curve" smooth="yes"/>
      <point x="216" y="-2"/>
      <point x="108" y="105"/>
      <point x="108" y="258" type="curve" smooth="yes"/>
      <point x="108" y="457"/>
      <point x="194" y="532"/>
      <point x="314" y="532" type="curve" smooth="yes"/>
      <point x="417" y="532"/>
      <point x="480" y="478"/>
      <point x="480" y="406" type="curve"/>
      <point x="499" y="408"/>
      <point x="503" y="424"/>
      <point x="503" y="423" type="curve" smooth="yes"/>
      <point x="503" y="490"/>
      <point x="429" y="542"/>
      <point x="325" y="542" type="curve" smooth="yes"/>
      <point x="185" y="542"/>
      <point x="80" y="470"/>
      <point x="80" y="256" type="curve" smooth="yes"/>
      <point x="80" y="100"/>
      <point x="189" y="-10"/>
    </contour>
  </outline>
</glyph>
<glyph name="q" format="2">
  <advance width="705"/>
  <unicode hex="0071"/>
  <anchor x="352" y="-240" name="bottom"/>
  <anchor x="352" y="536" name="top"/>
  <anchor x="685" y="536" name="topright"/>
  <outline>
    <contour>
      <point x="429" y="-240" type="line"/>
      <point x="659" y="-240" type="line"/>
      <point x="659" y="-230" type="line"/>
      <point x="638" y="-230" type="line" smooth="yes"/>
      <point x="575" y="-230"/>
      <point x="567" y="-228"/>
      <point x="567" y="-150" type="curve" smooth="yes"/>
      <point x="567" y="454" type="line" smooth="yes"/>
      <point x="567" y="524"/>
      <point x="569" y="526"/>
      <point x="655" y="526" type="curve" smooth="yes"/>
      <point x="674" y="526" type="line"/>
      <point x="674" y="536" type="line"/>
      <point x="540" y="536" type="line"/>
      <point x="540" y="398" type="line"/>
      <point x="536" y="398" type="line"/>
      <point x="517" y="479"/>
      <point x="447" y="546"/>
      <point x="340" y="546" type="curve" smooth="yes"/>
      <point x="157" y="546"/>
      <point x="81" y="437"/>
      <point x="81" y="265" type="curve" smooth="yes"/>
      <point x="81" y="77"/>
      <point x="170" y="-10"/>
      <point x="322" y="-10" type="curve" smooth="yes"/>
      <point x="451" y="-10"/>
      <point x="522" y="100"/>
      <point x="538" y="175" type="curve"/>
      <point x="540" y="175" type="line"/>
      <point x="538" y="180"/>
      <point x="539" y="51"/>
      <point x="539" y="-36" type="curve" smooth="yes"/>
      <point x="539" y="-150" type="line" smooth="yes"/>
      <point x="539" y="-228"/>
      <point x="531" y="-230"/>
      <point x="472" y="-230" type="curve" smooth="yes"/>
      <point x="429" y="-230" type="line"/>
    </contour>
    <contour>
      <point x="324" y="10" type="curve" smooth="yes"/>
      <point x="180" y="10"/>
      <point x="109" y="89"/>
      <point x="109" y="264" type="curve" smooth="yes"/>
      <point x="109" y="422"/>
      <point x="174" y="526"/>
      <point x="344" y="526" type="curve" smooth="yes"/>
      <point x="497" y="526"/>
      <point x="539" y="432"/>
      <point x="539" y="267" type="curve" smooth="yes"/>
      <point x="539" y="57"/>
      <point x="420" y="10"/>
    </contour>
  </outline>
</glyph>
<glyph name="v" format="2">
  <advance width="672"/>
  <unicode hex="0076"/>
  <anchor x="337" y="0" name="bottom"/>
  <anchor x="337" y="536" name="top"/>
  <anchor x="672" y="536" name="topright"/>
  <outline>
    <contour>
      <point x="323" y="0" type="line"/>
      <point x="338" y="0" type="line"/>
      <point x="562" y="478" type="line" smooth="yes"/>
      <point x="583" y="523"/>
      <point x="582" y="526"/>
      <point x="652" y="526" type="curve" smooth="yes"/>
      <point x="662" y="526" type="line"/>
      <point x="662" y="536" type="line"/>
      <point x="459" y="536" type="line"/>
      <point x="459" y="526" type="line"/>
      <point x="508" y="526" type="line" smooth="yes"/>
      <point x="550" y="526"/>
      <point x="554" y="517"/>
      <point x="554" y="506" type="curve" smooth="yes"/>
      <point x="554" y="474"/>
      <point x="532" y="441"/>
      <point x="502" y="378" type="curve" smooth="yes"/>
      <point x="420" y="198" type="line" smooth="yes"/>
      <point x="376" y="104"/>
      <point x="348" y="43"/>
      <point x="337" y="20" type="curve"/>
      <point x="324" y="53"/>
      <point x="288" y="126"/>
      <point x="263" y="187" type="curve" smooth="yes"/>
      <point x="168" y="417" type="line" smooth="yes"/>
      <point x="156" y="445"/>
      <point x="133" y="482"/>
      <point x="133" y="502" type="curve" smooth="yes"/>
      <point x="133" y="515"/>
      <point x="133" y="526"/>
      <point x="179" y="526" type="curve" smooth="yes"/>
      <point x="216" y="526" type="line"/>
      <point x="216" y="536" type="line"/>
      <point x="13" y="536" type="line"/>
      <point x="13" y="526" type="line"/>
      <point x="85" y="526"/>
      <point x="87" y="529"/>
      <point x="109" y="478" type="curve" smooth="yes"/>
    </contour>
  </outline>
</glyph>
<glyph name="x" format="2">
  <advance width="598"/>
  <unicode hex="0078"/>
  <anchor x="299" y="0" name="bottom"/>
  <anchor x="299" y="536" name="top"/>
  <anchor x="578" y="536" name="topright"/>
  <outline>
    <contour>
      <point x="-5" y="0" type="line"/>
      <point x="221" y="0" type="line"/>
      <point x="221" y="10" type="line"/>
      <point x="150" y="10" type="line" smooth="yes"/>
      <point x="104" y="10"/>
      <point x="101" y="17"/>
      <point x="101" y="24" type="curve" smooth="yes"/>
      <point x="101" y="34"/>
      <point x="118" y="59"/>
      <point x="140" y="84" type="curve" smooth="yes"/>
      <point x="298" y="290" type="line"/>
      <point x="455" y="79" type="line" smooth="yes"/>
      <point x="474" y="55"/>
      <point x="490" y="34"/>
      <point x="490" y="24" type="curve" smooth="yes"/>
      <point x="490" y="15"/>
      <point x="485" y="10"/>
      <point x="447" y="10" type="curve" smooth="yes"/>
      <point x="380" y="10" type="line"/>
      <point x="380" y="0" type="line"/>
      <point x="610" y="0" type="line"/>
      <point x="610" y="10" type="line"/>
      <point x="597" y="10" type="line" smooth="yes"/>
      <point x="538" y="10"/>
      <point x="535" y="20"/>
      <point x="506" y="58" type="curve" smooth="yes"/>
      <point x="316" y="310" type="line"/>
      <point x="447" y="478" type="line" smooth="yes"/>
      <point x="480" y="520"/>
      <point x="479" y="526"/>
      <point x="529" y="526" type="curve" smooth="yes"/>
      <point x="538" y="526" type="line"/>
      <point x="538" y="536" type="line"/>
      <point x="343" y="536" type="line"/>
      <point x="343" y="526" type="line"/>
      <point x="410" y="526" type="line" smooth="yes"/>
      <point x="448" y="526"/>
      <point x="453" y="521"/>
      <point x="453" y="513" type="curve" smooth="yes"/>
      <point x="453" y="503"/>
      <point x="439" y="487"/>
      <point x="415" y="458" type="curve" smooth="yes"/>
      <point x="308" y="318" type="line"/>
      <point x="204" y="456" type="line" smooth="yes"/>
      <point x="182" y="485"/>
      <point x="167" y="502"/>
      <point x="167" y="512" type="curve" smooth="yes"/>
      <point x="167" y="521"/>
      <point x="172" y="526"/>
      <point x="211" y="526" type="curve" smooth="yes"/>
      <point x="239" y="526" type="line"/>
      <point x="239" y="536" type="line"/>
      <point x="31" y="536" type="line"/>
      <point x="31" y="526" type="line"/>
      <point x="65" y="526" type="line" smooth="yes"/>
      <point x="120" y="526"/>
      <point x="119" y="522"/>
      <point x="152" y="478" type="curve" smooth="yes"/>
      <point x="290" y="301" type="line"/>
      <point x="104" y="55" type="line" smooth="yes"/>
      <point x="72" y="16"/>
      <point x="73" y="10"/>
      <point x="26" y="10" type="curve" smooth="yes"/>
      <point x="-5" y="10" type="line"/>
    </contour>
  </outline>
</glyph>
<glyph name="braceright" format="2">
  <advance width="506"/>
  <unicode hex="007D"/>
  <outline>
    <contour>
      <point x="99" y="-132" type="line"/>
      <point x="138" y="-132" type="line" smooth="yes"/>
      <point x="214" y="-132"/>
      <point x="264" y="-79"/>
      <point x="264" y="8" type="curve" smooth="yes"/>
      <point x="264" y="183" type="line" smooth="yes"/>
      <point x="264" y="292"/>
      <point x="278" y="306"/>
      <point x="411" y="310" type="curve"/>
      <point x="411" y="320" type="line"/>
      <point x="260" y="324"/>
      <point x="264" y="350"/>
      <point x="264" y="445" type="curve" smooth="yes"/>
      <point x="264" y="621" type="line" smooth="yes"/>
      <point x="264" y="710"/>
      <point x="214" y="760"/>
      <point x="136" y="760" type="curve" smooth="yes"/>
      <point x="99" y="760" type="line"/>
      <point x="99" y="750" type="line"/>
      <point x="133" y="750" type="line" smooth="yes"/>
      <point x="205" y="750"/>
      <point x="236" y="715"/>
      <point x="236" y="626" type="curve" smooth="yes"/>
      <point x="236" y="443" type="line" smooth="yes"/>
      <point x="236" y="373"/>
      <point x="285" y="315"/>
      <point x="341" y="315" type="curve"/>
      <point x="341" y="313" type="line"/>
      <point x="279" y="309"/>
      <point x="236" y="261"/>
      <point x="236" y="186" type="curve" smooth="yes"/>
      <point x="236" y="-1" type="line" smooth="yes"/>
      <point x="236" y="-81"/>
      <point x="208" y="-122"/>
      <point x="143" y="-122" type="curve" smooth="yes"/>
      <point x="99" y="-122" type="line"/>
    </contour>
  </outline>
</glyph>
<glyph name="yen" format="2">
  <advance width="695"/>
  <unicode hex="00A5"/>
  <outline>
    <contour>
      <point x="196" y="0" type="line"/>
      <point x="472" y="0" type="line"/>
      <point x="472" y="10" type="line"/>
      <point x="459" y="10" type="line" smooth="yes"/>
      <point x="387" y="10"/>
      <point x="349" y="25"/>
      <point x="349" y="87" type="curve" smooth="yes"/>
      <point x="349" y="194" type="line"/>
      <point x="545" y="194" type="line"/>
      <point x="545" y="204" type="line"/>
      <point x="349" y="204" type="line"/>
      <point x="349" y="325" type="line"/>
      <point x="545" y="325" type="line"/>
      <point x="545" y="333" type="line"/>
      <point x="355" y="333" type="line"/>
      <point x="535" y="610" type="line" smooth="yes"/>
      <point x="572" y="672"/>
      <point x="610" y="704"/>
      <point x="654" y="704" type="curve" smooth="yes"/>
      <point x="658" y="704" type="line"/>
      <point x="658" y="714" type="line"/>
      <point x="468" y="714" type="line"/>
      <point x="468" y="704" type="line"/>
      <point x="452" y="704" type="line" smooth="yes"/>
      <point x="506" y="704"/>
      <point x="541" y="689"/>
      <point x="541" y="661" type="curve" smooth="yes"/>
      <point x="541" y="642"/>
      <point x="531" y="632"/>
      <point x="528" y="637" type="curve" smooth="yes"/>
      <point x="423" y="464" type="line" smooth="yes"/>
      <point x="387" y="398"/>
      <point x="352" y="340"/>
      <point x="344" y="329" type="curve"/>
      <point x="309" y="390"/>
      <point x="282" y="422"/>
      <point x="253" y="465" type="curve" smooth="yes"/>
      <point x="123" y="667" type="line" smooth="yes"/>
      <point x="121" y="662"/>
      <point x="120" y="663"/>
      <point x="120" y="672" type="curve" smooth="yes"/>
      <point x="120" y="690"/>
      <point x="131" y="704"/>
      <point x="148" y="704" type="curve" smooth="yes"/>
      <point x="197" y="704" type="line"/>
      <point x="197" y="714" type="line"/>
      <point x="7" y="714" type="line"/>
      <point x="7" y="704" type="line"/>
      <point x="8" y="704" type="line" smooth="yes"/>
      <point x="34" y="704"/>
      <point x="69" y="692"/>
      <point x="92" y="662" type="curve" smooth="yes"/>
      <point x="315" y="333" type="line"/>
      <point x="122" y="333" type="line"/>
      <point x="122" y="325" type="line"/>
      <point x="321" y="325" type="line"/>
      <point x="321" y="204" type="line"/>
      <point x="122" y="204" type="line"/>
      <point x="122" y="194" type="line"/>
      <point x="321" y="194" type="line"/>
      <point x="321" y="68" type="line" smooth="yes"/>
      <point x="321" y="23"/>
      <point x="279" y="10"/>
      <point x="213" y="10" type="curve" smooth="yes"/>
      <point x="196" y="10" type="line"/>
    </contour>
  </outline>
</glyph>
<glyph name="copyright" format="2">
  <advance width="1048"/>
  <unicode hex="00A9"/>
  <outline>
    <contour>
      <point x="522" y="-10" type="curve" smooth="yes"/>
      <point x="771" y="-10"/>
      <point x="975" y="137"/>
      <point x="975" y="356" type="curve" smooth="yes"/>
      <point x="975" y="579"/>
      <point x="769" y="725"/>
      <point x="521" y="725" type="curve" smooth="yes"/>
      <point x="273" y="725"/>
      <point x="73" y="577"/>
      <point x="73" y="358" type="curve" smooth="yes"/>
      <point x="73" y="132"/>
      <point x="278" y="-10"/>
    </contour>
    <contour>
      <point x="526" y="95" type="curve" smooth="yes"/>
      <point x="648" y="95"/>
      <point x="720" y="156"/>
      <point x="720" y="184" type="curve" smooth="yes"/>
      <point x="720" y="185"/>
      <point x="720" y="200"/>
      <point x="711" y="202" type="curve"/>
      <point x="691" y="144"/>
      <point x="622" y="105"/>
      <point x="529" y="105" type="curve" smooth="yes"/>
      <point x="411" y="105"/>
      <point x="291" y="170"/>
      <point x="291" y="363" type="curve" smooth="yes"/>
      <point x="291" y="557"/>
      <point x="403" y="619"/>
      <point x="516" y="619" type="curve" smooth="yes"/>
      <point x="613" y="619"/>
      <point x="695" y="573"/>
      <point x="695" y="518" type="curve"/>
      <point x="726" y="522"/>
      <point x="721" y="528"/>
      <point x="721" y="526" type="curve" smooth="yes"/>
      <point x="721" y="582"/>
      <point x="627" y="629"/>
      <point x="521" y="629" type="curve" smooth="yes"/>
      <point x="394" y="629"/>
      <point x="263" y="567"/>
      <point x="263" y="361" type="curve" smooth="yes"/>
      <point x="263" y="162"/>
      <point x="393" y="95"/>
    </contour>
    <contour>
      <point x="523" y="0" type="curve" smooth="yes"/>
      <point x="292" y="0"/>
      <point x="85" y="141"/>
      <point x="85" y="357" type="curve" smooth="yes"/>
      <point x="85" y="567"/>
      <point x="281" y="715"/>
      <point x="521" y="715" type="curve" smooth="yes"/>
      <point x="764" y="715"/>
      <point x="963" y="562"/>
      <point x="963" y="358" type="curve" smooth="yes"/>
      <point x="963" y="151"/>
      <point x="761" y="0"/>
    </contour>
  </outline>
</glyph>
<glyph name="ordfeminine" format="2">
  <advance width="407"/>
  <unicode hex="00AA"/>
  <outline>
    <contour>
      <point x="158" y="380" type="curve" smooth="yes"/>
      <point x="238" y="380"/>
      <point x="275" y="434"/>
      <point x="291" y="460" type="curve"/>
      <point x="291" y="460" type="line"/>
      <point x="291" y="386" type="line"/>
      <point x="360" y="386" type="line"/>
      <point x="360" y="396" type="line"/>
      <point x="314" y="396"/>
      <point x="311" y="409"/>
      <point x="311" y="464" type="curve" smooth="yes"/>
      <point x="311" y="624" type="line" smooth="yes"/>
      <point x="311" y="674"/>
      <point x="287" y="721"/>
      <point x="195" y="721" type="curve" smooth="yes"/>
      <point x="105" y="721"/>
      <point x="86" y="667"/>
      <point x="86" y="650" type="curve" smooth="yes"/>
      <point x="86" y="634"/>
      <point x="99" y="630"/>
      <point x="101" y="630" type="curve"/>
      <point x="101" y="693"/>
      <point x="119" y="711"/>
      <point x="194" y="711" type="curve" smooth="yes"/>
      <point x="288" y="711"/>
      <point x="291" y="683"/>
      <point x="291" y="612" type="curve" smooth="yes"/>
      <point x="291" y="562" type="line"/>
      <point x="233" y="560" type="line" smooth="yes"/>
      <point x="112" y="556"/>
      <point x="53" y="536"/>
      <point x="53" y="482" type="curve" smooth="yes"/>
      <point x="53" y="401"/>
      <point x="115" y="380"/>
    </contour>
    <contour>
      <point x="160" y="385" type="curve" smooth="yes"/>
      <point x="89" y="385"/>
      <point x="75" y="429"/>
      <point x="75" y="482" type="curve" smooth="yes"/>
      <point x="75" y="531"/>
      <point x="113" y="546"/>
      <point x="234" y="550" type="curve" smooth="yes"/>
      <point x="291" y="552" type="line"/>
      <point x="291" y="492" type="line" smooth="yes"/>
      <point x="291" y="463"/>
      <point x="238" y="385"/>
    </contour>
  </outline>
</glyph>
<glyph name="degree" format="2">
  <advance width="497"/>
  <unicode hex="00B0"/>
  <outline>
    <contour>
      <point x="246" y="401" type="curve" smooth="yes"/>
      <point x="355" y="401"/>
      <point x="438" y="471"/>
      <point x="438" y="562" type="curve" smooth="yes"/>
      <point x="438" y="652"/>
      <point x="355" y="724"/>
      <point x="246" y="724" type="curve" smooth="yes"/>
      <point x="137" y="724"/>
      <point x="55" y="652"/>
      <point x="55" y="562" type="curve" smooth="yes"/>
      <point x="55" y="471"/>
      <point x="137" y="401"/>
    </contour>
    <contour>
      <point x="248" y="421" type="curve" smooth="yes"/>
      <point x="148" y="421"/>
      <point x="75" y="486"/>
      <point x="75" y="564" type="curve" smooth="yes"/>
      <point x="75" y="644"/>
      <point x="150" y="704"/>
      <point x="248" y="704" type="curve" smooth="yes"/>
      <point x="346" y="704"/>
      <point x="418" y="644"/>
      <point x="418" y="564" type="curve" smooth="yes"/>
      <point x="418" y="486"/>
      <point x="348" y="421"/>
    </contour>
  </outline>
</glyph>
<glyph name="acute" format="2">
  <advance width="233"/>
  <unicode hex="00B4"/>
  <outline>
    <contour>
      <point x="40" y="606" type="line"/>
      <point x="40" y="606" type="line"/>
      <point x="84" y="649"/>
      <point x="157" y="721"/>
      <point x="193" y="756" type="curve"/>
      <point x="193" y="766" type="line"/>
      <point x="157" y="766" type="line"/>
      <point x="125" y="721"/>
      <point x="64" y="637"/>
      <point x="40" y="616" type="curve"/>
    </contour>
  </outline>
</glyph>
<glyph name="Aring" format="2">
  <advance width="791"/>
  <unicode hex="00C5"/>
  <anchor x="374" y="0" name="bottom"/>
  <anchor x="374" y="891" name="top"/>
  <outline>
    <contour>
      <point x="-6" y="0" type="line"/>
      <point x="239" y="0" type="line"/>
      <point x="239" y="10" type="line"/>
      <point x="156" y="10" type="line" smooth="yes"/>
      <point x="99" y="10"/>
      <point x="99" y="20"/>
      <point x="99" y="40" type="curve" smooth="yes"/>
      <point x="99" y="71"/>
      <point x="132" y="145"/>
      <point x="137" y="154" type="curve" smooth="yes"/>
      <point x="183" y="259" type="line"/>
      <point x="537" y="259" type="line"/>
      <point x="576" y="173" type="line" smooth="yes"/>
      <point x="581" y="162"/>
      <point x="616" y="74"/>
      <point x="616" y="38" type="curve" smooth="yes"/>
      <point x="616" y="21"/>
      <point x="614" y="10"/>
      <point x="558" y="10" type="curve" smooth="yes"/>
      <point x="502" y="10" type="line"/>
      <point x="502" y="0" type="line"/>
      <point x="755" y="0" type="line"/>
      <point x="755" y="10" type="line"/>
      <point x="726" y="10" type="line" smooth="yes"/>
      <point x="668" y="10"/>
      <point x="667" y="13"/>
      <point x="646" y="71" type="curve" smooth="yes"/>
      <point x="398" y="674" type="line"/>
      <point x="464" y="684"/>
      <point x="519" y="718"/>
      <point x="519" y="782" type="curve" smooth="yes"/>
      <point x="519" y="856"/>
      <point x="448" y="891"/>
      <point x="370" y="891" type="curve" smooth="yes"/>
      <point x="292" y="891"/>
      <point x="221" y="856"/>
      <point x="221" y="782" type="curve" smooth="yes"/>
      <point x="221" y="718"/>
      <point x="278" y="682"/>
      <point x="344" y="675" type="curve"/>
      <point x="76" y="22" type="line" smooth="yes"/>
      <point x="65" y="6"/>
      <point x="65" y="10"/>
      <point x="7" y="10" type="curve" smooth="yes"/>
      <point x="-6" y="10" type="line"/>
    </contour>
    <contour>
      <point x="189" y="269" type="line"/>
      <point x="283" y="496" type="line" smooth="yes"/>
      <point x="301" y="537"/>
      <point x="333" y="618"/>
      <point x="361" y="690" type="curve"/>
      <point x="378" y="659"/>
      <point x="419" y="551"/>
      <point x="429" y="536" type="curve" smooth="yes"/>
      <point x="533" y="269" type="line"/>
    </contour>
    <contour>
      <point x="369" y="683" type="curve" smooth="yes"/>
      <point x="295" y="683"/>
      <point x="233" y="713"/>
      <point x="233" y="782" type="curve" smooth="yes"/>
      <point x="233" y="851"/>
      <point x="295" y="881"/>
      <point x="369" y="881" type="curve" smooth="yes"/>
      <point x="445" y="881"/>
      <point x="507" y="851"/>
      <point x="507" y="782" type="curve" smooth="yes"/>
      <point x="507" y="713"/>
      <point x="445" y="683"/>
    </contour>
  </outline>
</glyph>
<glyph name="Thorn" format="2">
  <advance width="690"/>
  <unicode hex="00DE"/>
  <anchor x="345" y="0" name="bottom"/>
  <anchor x="345" y="714" name="top"/>
  <outline>
    <contour>
      <point x="64" y="0" type="line"/>
      <point x="370" y="0" type="line"/>
      <point x="370" y="10" type="line"/>
      <point x="272" y="10" type="line" smooth="yes"/>
      <point x="218" y="10"/>
      <point x="214" y="21"/>
      <point x="214" y="98" type="curve" smooth="yes"/>
      <point x="214" y="187" type="line"/>
      <point x="352" y="187" type="line" smooth="yes"/>
      <point x="571" y="187"/>
      <point x="625" y="310"/>
      <point x="625" y="376" type="curve" smooth="yes"/>
      <point x="625" y="461"/>
      <point x="554" y="533"/>
      <point x="379" y="533" type="curve" smooth="yes"/>
      <point x="214" y="533" type="line"/>
      <point x="214" y="614" type="line" smooth="yes"/>
      <point x="214" y="693"/>
      <point x="218" y="704"/>
      <point x="274" y="704" type="curve" smooth="yes"/>
      <point x="330" y="704" type="line"/>
      <point x="330" y="714" type="line"/>
      <point x="64" y="714" type="line"/>
      <point x="64" y="704" type="line"/>
      <point x="134" y="704" type="line" smooth="yes"/>
      <point x="178" y="704"/>
      <point x="186" y="693"/>
      <point x="186" y="614" type="curve" smooth="yes"/>
      <point x="186" y="98" type="line" smooth="yes"/>
      <point x="186" y="21"/>
      <point x="178" y="10"/>
      <point x="134" y="10" type="curve" smooth="yes"/>
      <point x="64" y="10" type="line"/>
    </contour>
    <contour>
      <point x="214" y="197" type="line"/>
      <point x="214" y="523" type="line"/>
      <point x="381" y="523" type="line" smooth="yes"/>
      <point x="532" y="523"/>
      <point x="597" y="460"/>
      <point x="597" y="378" type="curve" smooth="yes"/>
      <point x="597" y="313"/>
      <point x="556" y="197"/>
      <point x="348" y="197" type="curve" smooth="yes"/>
    </contour>
  </outline>
</glyph>
<glyph name="lslash" format="2">
  <advance width="288"/>
  <unicode hex="0142"/>
  <anchor x="144" y="0" name="bottom"/>
  <anchor x="144" y="760" name="top"/>
  <outline>
    <contour>
      <point x="-16" y="0" type="line"/>
      <point x="279" y="0" type="line"/>
      <point x="279" y="10" type="line"/>
      <point x="233" y="10" type="line" smooth="yes"/>
      <point x="176" y="10"/>
      <point x="146" y="24"/>
      <point x="146" y="92" type="curve" smooth="yes"/>
      <point x="146" y="423" type="line"/>
      <point x="293" y="497" type="line"/>
      <point x="293" y="507" type="line"/>
      <point x="146" y="433" type="line"/>
      <point x="146" y="760" type="line"/>
      <point x="-16" y="760" type="line"/>
      <point x="-16" y="750" type="line"/>
      <point x="21" y="750" type="line" smooth="yes"/>
      <point x="89" y="750"/>
      <point x="118" y="732"/>
      <point x="118" y="676" type="curve" smooth="yes"/>
      <point x="118" y="420" type="line"/>
      <point x="6" y="365" type="line"/>
      <point x="6" y="353" type="line"/>
      <point x="118" y="408" type="line"/>
      <point x="118" y="92" type="line" smooth="yes"/>
      <point x="118" y="24"/>
      <point x="88" y="10"/>
      <point x="31" y="10" type="curve" smooth="yes"/>
      <point x="-16" y="10" type="line"/>
    </contour>
  </outline>
</glyph>
<glyph name="eng" format="2">
  <advance width="751"/>
  <unicode hex="014B"/>
  <anchor x="365" y="-240" name="bottom"/>
  <anchor x="365" y="536" name="top"/>
  <outline>
    <contour>
      <point x="428" y="-240" type="line"/>
      <point x="452" y="-240" type="line" smooth="yes"/>
      <point x="550" y="-240"/>
      <point x="615" y="-169"/>
      <point x="615" y="4" type="curve" smooth="yes"/>
      <point x="615" y="351" type="line" smooth="yes"/>
      <point x="615" y="478"/>
      <point x="549" y="542"/>
      <point x="413" y="542" type="curve" smooth="yes"/>
      <point x="317" y="542"/>
      <point x="236" y="507"/>
      <point x="202" y="413" type="curve"/>
      <point x="200" y="413" type="line"/>
      <point x="200" y="536" type="line"/>
      <point x="55" y="536" type="line"/>
      <point x="55" y="526" type="line"/>
      <point x="110" y="526" type="line" smooth="yes"/>
      <point x="163" y="526"/>
      <point x="173" y="521"/>
      <point x="173" y="453" type="curve" smooth="yes"/>
      <point x="173" y="82" type="line" smooth="yes"/>
      <point x="173" y="12"/>
      <point x="169" y="10"/>
      <point x="92" y="10" type="curve" smooth="yes"/>
      <point x="48" y="10" type="line"/>
      <point x="48" y="0" type="line"/>
      <point x="315" y="0" type="line"/>
      <point x="315" y="10" type="line"/>
      <point x="287" y="10" type="line" smooth="yes"/>
      <point x="203" y="10"/>
      <point x="201" y="12"/>
      <point x="201" y="82" type="curve" smooth="yes"/>
      <point x="201" y="335" type="line" smooth="yes"/>
      <point x="201" y="389"/>
      <point x="218" y="527"/>
      <point x="413" y="527" type="curve" smooth="yes"/>
      <point x="542" y="527"/>
      <point x="587" y="461"/>
      <point x="587" y="366" type="curve" smooth="yes"/>
      <point x="587" y="4" type="line" smooth="yes"/>
      <point x="587" y="-174"/>
      <point x="532" y="-230"/>
      <point x="445" y="-230" type="curve" smooth="yes"/>
      <point x="428" y="-230" type="line"/>
    </contour>
  </outline>
</glyph>
<glyph name="uni0180" format="2">
  <advance width="701"/>
  <unicode hex="0180"/>
  <anchor x="350" y="0" name="bottom"/>
  <anchor x="350" y="760" name="top"/>
  <outline>
    <contour>
      <point x="377" y="-10" type="curve" smooth="yes"/>
      <point x="526" y="-10"/>
      <point x="621" y="100"/>
      <point x="621" y="257" type="curve" smooth="yes"/>
      <point x="621" y="444"/>
      <point x="553" y="524"/>
      <point x="392" y="524" type="curve" smooth="yes"/>
      <point x="280" y="524"/>
      <point x="202" y="464"/>
      <point x="176" y="354" type="curve"/>
      <point x="174" y="354" type="line"/>
      <point x="175" y="423"/>
      <point x="176" y="498"/>
      <point x="176" y="539" type="curve" smooth="yes"/>
      <point x="176" y="622" type="line"/>
      <point x="405" y="622" type="line"/>
      <point x="405" y="632" type="line"/>
      <point x="176" y="632" type="line"/>
      <point x="176" y="760" type="line"/>
      <point x="26" y="760" type="line"/>
      <point x="26" y="750" type="line"/>
      <point x="79" y="750" type="line" smooth="yes"/>
      <point x="141" y="750"/>
      <point x="148" y="747"/>
      <point x="148" y="673" type="curve" smooth="yes"/>
      <point x="148" y="632" type="line"/>
      <point x="31" y="632" type="line"/>
      <point x="31" y="622" type="line"/>
      <point x="148" y="622" type="line"/>
      <point x="148" y="91" type="line" smooth="yes"/>
      <point x="148" y="10"/>
      <point x="147" y="10"/>
      <point x="58" y="10" type="curve" smooth="yes"/>
      <point x="26" y="10" type="line"/>
      <point x="26" y="0" type="line"/>
      <point x="175" y="0" type="line"/>
      <point x="175" y="140" type="line"/>
      <point x="177" y="140" type="line"/>
      <point x="210" y="19"/>
      <point x="296" y="-10"/>
    </contour>
    <contour>
      <point x="385" y="10" type="curve" smooth="yes"/>
      <point x="212" y="10"/>
      <point x="175" y="114"/>
      <point x="175" y="260" type="curve" smooth="yes"/>
      <point x="175" y="398"/>
      <point x="234" y="504"/>
      <point x="383" y="504" type="curve" smooth="yes"/>
      <point x="536" y="504"/>
      <point x="593" y="440"/>
      <point x="593" y="261" type="curve" smooth="yes"/>
      <point x="593" y="115"/>
      <point x="518" y="10"/>
    </contour>
  </outline>
</glyph>
<glyph name="uni0191" format="2">
  <advance width="677"/>
  <unicode hex="0191"/>
  <anchor x="338" y="-240" name="bottom"/>
  <anchor x="338" y="714" name="top"/>
  <outline>
    <contour>
      <point x="-11" y="-240" type="line"/>
      <point x="-5" y="-240" type="line" smooth="yes"/>
      <point x="133" y="-240"/>
      <point x="217" y="-219"/>
      <point x="217" y="-22" type="curve" smooth="yes"/>
      <point x="217" y="346" type="line"/>
      <point x="518" y="346" type="line"/>
      <point x="518" y="356" type="line"/>
      <point x="217" y="356" type="line"/>
      <point x="217" y="704" type="line"/>
      <point x="540" y="704" type="line" smooth="yes"/>
      <point x="600" y="704"/>
      <point x="596" y="678"/>
      <point x="598" y="607" type="curve" smooth="yes"/>
      <point x="599" y="551" type="line"/>
      <point x="609" y="551" type="line"/>
      <point x="604" y="714" type="line"/>
      <point x="64" y="714" type="line"/>
      <point x="64" y="704" type="line"/>
      <point x="131" y="704" type="line" smooth="yes"/>
      <point x="183" y="704"/>
      <point x="189" y="693"/>
      <point x="189" y="616" type="curve" smooth="yes"/>
      <point x="189" y="-8" type="line" smooth="yes"/>
      <point x="189" y="-169"/>
      <point x="154" y="-230"/>
      <point x="3" y="-230" type="curve" smooth="yes"/>
      <point x="-11" y="-230" type="line"/>
    </contour>
  </outline>
</glyph>
<glyph name="uni0198" format="2">
  <advance width="810"/>
  <unicode hex="0198"/>
  <anchor x="405" y="0" name="bottom"/>
  <anchor x="405" y="714" name="top"/>
  <outline>
    <contour>
      <point x="64" y="0" type="line"/>
      <point x="337" y="0" type="line"/>
      <point x="337" y="10" type="line"/>
      <point x="274" y="10" type="line" smooth="yes"/>
      <point x="221" y="10"/>
      <point x="216" y="21"/>
      <point x="216" y="94" type="curve" smooth="yes"/>
      <point x="216" y="207" type="line"/>
      <point x="373" y="384" type="line"/>
      <point x="680" y="119" type="line" smooth="yes"/>
      <point x="782" y="21"/>
      <point x="803" y="0"/>
      <point x="846" y="0" type="curve" smooth="yes"/>
      <point x="852" y="0" type="line"/>
      <point x="852" y="10" type="line"/>
      <point x="851" y="10" type="line" smooth="yes"/>
      <point x="820" y="10"/>
      <point x="802" y="46"/>
      <point x="727" y="106" type="curve" smooth="yes"/>
      <point x="394" y="404" type="line"/>
      <point x="572" y="599" type="line" smooth="yes"/>
      <point x="631" y="665"/>
      <point x="656" y="688"/>
      <point x="693" y="688" type="curve" smooth="yes"/>
      <point x="719" y="688"/>
      <point x="747" y="686"/>
      <point x="759" y="649" type="curve"/>
      <point x="771" y="649"/>
      <point x="781" y="661"/>
      <point x="781" y="669" type="curve" smooth="yes"/>
      <point x="781" y="692"/>
      <point x="765" y="722"/>
      <point x="709" y="722" type="curve" smooth="yes"/>
      <point x="683" y="722"/>
      <point x="664" y="741"/>
      <point x="642" y="724" type="curve" smooth="yes"/>
      <point x="216" y="218" type="line"/>
      <point x="216" y="613" type="line" smooth="yes"/>
      <point x="216" y="693"/>
      <point x="220" y="704"/>
      <point x="278" y="704" type="curve" smooth="yes"/>
      <point x="333" y="704" type="line"/>
      <point x="333" y="714" type="line"/>
      <point x="64" y="714" type="line"/>
      <point x="64" y="704" type="line"/>
      <point x="130" y="704" type="line" smooth="yes"/>
      <point x="184" y="704"/>
      <point x="188" y="693"/>
      <point x="188" y="613" type="curve" smooth="yes"/>
      <point x="188" y="98" type="line" smooth="yes"/>
      <point x="188" y="21"/>
      <point x="182" y="10"/>
      <point x="128" y="10" type="curve" smooth="yes"/>
      <point x="64" y="10" type="line"/>
    </contour>
  </outline>
</glyph>
<glyph name="uni019C" format="2">
  <advance width="1127"/>
  <unicode hex="019C"/>
  <anchor x="563" y="0" name="bottom"/>
  <anchor x="563" y="714" name="top"/>
  <outline>
    <contour>
      <point x="322" y="-2" type="curve" smooth="yes"/>
      <point x="421" y="-2"/>
      <point x="506" y="35"/>
      <point x="521" y="128" type="curve"/>
      <point x="534" y="68"/>
      <point x="557" y="-2"/>
      <point x="699" y="-2" type="curve" smooth="yes"/>
      <point x="774" y="-2"/>
      <point x="870" y="26"/>
      <point x="899" y="99" type="curve"/>
      <point x="901" y="99" type="line"/>
      <point x="901" y="0" type="line"/>
      <point x="1052" y="0" type="line"/>
      <point x="1052" y="10" type="line"/>
      <point x="942" y="10" type="line" smooth="yes"/>
      <point x="934" y="10"/>
      <point x="930" y="21"/>
      <point x="930" y="98" type="curve" smooth="yes"/>
      <point x="930" y="614" type="line" smooth="yes"/>
      <point x="930" y="693"/>
      <point x="932" y="704"/>
      <point x="992" y="704" type="curve" smooth="yes"/>
      <point x="1057" y="704" type="line"/>
      <point x="1057" y="714" type="line"/>
      <point x="789" y="714" type="line"/>
      <point x="789" y="704" type="line"/>
      <point x="846" y="704" type="line" smooth="yes"/>
      <point x="898" y="704"/>
      <point x="902" y="693"/>
      <point x="902" y="614" type="curve" smooth="yes"/>
      <point x="902" y="162" type="line" smooth="yes"/>
      <point x="902" y="77"/>
      <point x="839" y="13"/>
      <point x="707" y="13" type="curve" smooth="yes"/>
      <point x="576" y="13"/>
      <point x="542" y="60"/>
      <point x="542" y="156" type="curve" smooth="yes"/>
      <point x="542" y="614" type="line" smooth="yes"/>
      <point x="542" y="693"/>
      <point x="544" y="704"/>
      <point x="562" y="704" type="curve" smooth="yes"/>
      <point x="617" y="704" type="line"/>
      <point x="617" y="714" type="line"/>
      <point x="455" y="714" type="line"/>
      <point x="455" y="704" type="line"/>
      <point x="496" y="704" type="line" smooth="yes"/>
      <point x="504" y="704"/>
      <point x="514" y="693"/>
      <point x="514" y="614" type="curve" smooth="yes"/>
      <point x="514" y="137" type="line" smooth="yes"/>
      <point x="514" y="75"/>
      <point x="458" y="11"/>
      <point x="314" y="11" type="curve" smooth="yes"/>
      <point x="200" y="11"/>
      <point x="164" y="57"/>
      <point x="164" y="150" type="curve" smooth="yes"/>
      <point x="164" y="614" type="line" smooth="yes"/>
      <point x="164" y="693"/>
      <point x="168" y="704"/>
      <point x="226" y="704" type="curve" smooth="yes"/>
      <point x="269" y="704" type="line"/>
      <point x="269" y="714" type="line"/>
      <point x="17" y="714" type="line"/>
      <point x="17" y="704" type="line"/>
      <point x="76" y="704" type="line" smooth="yes"/>
      <point x="132" y="704"/>
      <point x="136" y="693"/>
      <point x="136" y="614" type="curve" smooth="yes"/>
      <point x="136" y="162" type="line" smooth="yes"/>
      <point x="136" y="54"/>
      <point x="184" y="-2"/>
    </contour>
  </outline>
</glyph>
<glyph name="uni01A5" format="2">
  <advance width="705"/>
  <unicode hex="01A5"/>
  <anchor x="352" y="-240" name="bottom"/>
  <anchor x="352" y="766" name="top"/>
  <outline>
    <contour>
      <point x="30" y="-240" type="line"/>
      <point x="323" y="-240" type="line"/>
      <point x="323" y="-230" type="line"/>
      <point x="250" y="-230" type="line" smooth="yes"/>
      <point x="190" y="-230"/>
      <point x="182" y="-228"/>
      <point x="182" y="-150" type="curve" smooth="yes"/>
      <point x="182" y="-12" type="line" smooth="yes"/>
      <point x="182" y="86"/>
      <point x="181" y="173"/>
      <point x="180" y="178" type="curve"/>
      <point x="182" y="178" type="line"/>
      <point x="204" y="63"/>
      <point x="285" y="-10"/>
      <point x="384" y="-10" type="curve" smooth="yes"/>
      <point x="532" y="-10"/>
      <point x="623" y="80"/>
      <point x="623" y="276" type="curve" smooth="yes"/>
      <point x="623" y="451"/>
      <point x="554" y="546"/>
      <point x="386" y="546" type="curve" smooth="yes"/>
      <point x="276" y="546"/>
      <point x="196" y="463"/>
      <point x="183" y="379" type="curve"/>
      <point x="181" y="379" type="line"/>
      <point x="181" y="431"/>
      <point x="180" y="484"/>
      <point x="180" y="536" type="curve" smooth="yes"/>
      <point x="182" y="669" type="line" smooth="yes"/>
      <point x="184" y="708"/>
      <point x="223" y="756"/>
      <point x="275" y="756" type="curve" smooth="yes"/>
      <point x="292" y="756"/>
      <point x="336" y="771"/>
      <point x="362" y="714" type="curve"/>
      <point x="369" y="716"/>
      <point x="371" y="713"/>
      <point x="371" y="716" type="curve" smooth="yes"/>
      <point x="371" y="738"/>
      <point x="336" y="766"/>
      <point x="280" y="766" type="curve" smooth="yes"/>
      <point x="204" y="766"/>
      <point x="154" y="732"/>
      <point x="154" y="676" type="curve" smooth="yes"/>
      <point x="154" y="-150" type="line" smooth="yes"/>
      <point x="154" y="-228"/>
      <point x="146" y="-230"/>
      <point x="87" y="-230" type="curve" smooth="yes"/>
      <point x="30" y="-230" type="line"/>
    </contour>
    <contour>
      <point x="390" y="10" type="curve" smooth="yes"/>
      <point x="241" y="10"/>
      <point x="182" y="111"/>
      <point x="182" y="282" type="curve" smooth="yes"/>
      <point x="182" y="408"/>
      <point x="223" y="526"/>
      <point x="388" y="526" type="curve" smooth="yes"/>
      <point x="546" y="526"/>
      <point x="595" y="433"/>
      <point x="595" y="266" type="curve" smooth="yes"/>
      <point x="595" y="90"/>
      <point x="512" y="10"/>
    </contour>
  </outline>
</glyph>
<glyph name="uni0234" format="2">
  <advance width="409"/>
  <unicode hex="0234"/>
  <anchor x="205" y="0" name="bottom"/>
  <anchor x="205" y="760" name="top"/>
  <outline>
    <contour>
      <point x="11" y="50" type="line"/>
      <point x="55" y="132"/>
      <point x="98" y="152"/>
      <point x="142" y="171" type="curve"/>
      <point x="145" y="17"/>
      <point x="180" y="-10"/>
      <point x="284" y="-10" type="curve" smooth="yes"/>
      <point x="344" y="-10"/>
      <point x="390" y="21"/>
      <point x="390" y="92" type="curve" smooth="yes"/>
      <point x="390" y="155"/>
      <point x="341" y="209"/>
      <point x="261" y="209" type="curve" smooth="yes"/>
      <point x="225" y="209"/>
      <point x="191" y="200"/>
      <point x="170" y="191" type="curve"/>
      <point x="170" y="760" type="line"/>
      <point x="8" y="760" type="line"/>
      <point x="8" y="760" type="line"/>
      <point x="75" y="760" type="line" smooth="yes"/>
      <point x="135" y="760"/>
      <point x="142" y="756"/>
      <point x="142" y="682" type="curve" smooth="yes"/>
      <point x="142" y="201" type="line" smooth="yes"/>
      <point x="142" y="192"/>
      <point x="142" y="185"/>
      <point x="142" y="182" type="curve"/>
      <point x="73" y="136"/>
      <point x="36" y="105"/>
      <point x="3" y="56" type="curve"/>
    </contour>
    <contour>
      <point x="287" y="0" type="curve" smooth="yes"/>
      <point x="206" y="0"/>
      <point x="170" y="15"/>
      <point x="170" y="181" type="curve"/>
      <point x="191" y="190"/>
      <point x="228" y="199"/>
      <point x="261" y="199" type="curve" smooth="yes"/>
      <point x="331" y="199"/>
      <point x="376" y="149"/>
      <point x="376" y="93" type="curve" smooth="yes"/>
      <point x="376" y="28"/>
      <point x="337" y="0"/>
    </contour>
  </outline>
</glyph>
<glyph name="uni0236" format="2">
  <advance width="378"/>
  <unicode hex="0236"/>
  <anchor x="190" y="0" name="bottom"/>
  <anchor x="190" y="657" name="top"/>
  <outline>
    <contour>
      <point x="-19" y="55" type="line"/>
      <point x="10" y="104"/>
      <point x="66" y="160"/>
      <point x="117" y="175" type="curve"/>
      <point x="117" y="69"/>
      <point x="146" y="-10"/>
      <point x="253" y="-10" type="curve" smooth="yes"/>
      <point x="318" y="-10"/>
      <point x="365" y="25"/>
      <point x="365" y="94" type="curve" smooth="yes"/>
      <point x="365" y="165"/>
      <point x="314" y="211"/>
      <point x="231" y="211" type="curve" smooth="yes"/>
      <point x="212" y="211"/>
      <point x="177" y="207"/>
      <point x="145" y="192" type="curve"/>
      <point x="145" y="526" type="line"/>
      <point x="299" y="526" type="line"/>
      <point x="299" y="536" type="line"/>
      <point x="145" y="536" type="line"/>
      <point x="145" y="657" type="line"/>
      <point x="135" y="657" type="line"/>
      <point x="133" y="574"/>
      <point x="126" y="540"/>
      <point x="21" y="536" type="curve"/>
      <point x="21" y="526" type="line"/>
      <point x="117" y="526" type="line"/>
      <point x="117" y="212" type="line" smooth="yes"/>
      <point x="117" y="203"/>
      <point x="117" y="196"/>
      <point x="117" y="187" type="curve"/>
      <point x="53" y="160"/>
      <point x="1" y="99"/>
      <point x="-28" y="58" type="curve"/>
    </contour>
    <contour>
      <point x="244" y="-5" type="curve" smooth="yes"/>
      <point x="174" y="-5"/>
      <point x="145" y="63"/>
      <point x="145" y="181" type="curve"/>
      <point x="175" y="195"/>
      <point x="208" y="201"/>
      <point x="232" y="201" type="curve" smooth="yes"/>
      <point x="309" y="201"/>
      <point x="355" y="159"/>
      <point x="355" y="93" type="curve" smooth="yes"/>
      <point x="355" y="25"/>
      <point x="308" y="-5"/>
    </contour>
  </outline>
</glyph>
<glyph name="uni023D" format="2">
  <advance width="718"/>
  <unicode hex="023D"/>
  <anchor x="360" y="0" name="bottom"/>
  <anchor x="360" y="714" name="top"/>
  <anchor x="698" y="714" name="topright"/>
  <anchor x="360" y="357" name="center"/>
  <outline>
    <contour>
      <point x="64" y="373" type="line"/>
      <point x="367" y="373" type="line"/>
      <point x="367" y="383" type="line"/>
      <point x="64" y="383" type="line"/>
    </contour>
    <component base="L"/>
  </outline>
</glyph>
<glyph name="uni0252" format="2">
  <advance width="702"/>
  <unicode hex="0252"/>
  <anchor x="351" y="0" name="bottom"/>
  <anchor x="351" y="536" name="top"/>
  <outline>
    <contour>
      <point x="393" y="-8" type="curve" smooth="yes"/>
      <point x="557" y="-8"/>
      <point x="634" y="105"/>
      <point x="634" y="262" type="curve" smooth="yes"/>
      <point x="634" y="430"/>
      <point x="554" y="542"/>
      <point x="401" y="542" type="curve" smooth="yes"/>
      <point x="309" y="542"/>
      <point x="216" y="493"/>
      <point x="181" y="369" type="curve"/>
      <point x="178" y="369" type="line"/>
      <point x="178" y="485"/>
      <point x="162" y="538"/>
      <point x="107" y="538" type="curve" smooth="yes"/>
      <point x="67" y="538"/>
      <point x="41" y="531"/>
      <point x="28" y="529" type="curve"/>
      <point x="28" y="518" type="line"/>
      <point x="52" y="526"/>
      <point x="76" y="528"/>
      <point x="91" y="528" type="curve" smooth="yes"/>
      <point x="150" y="528"/>
      <point x="150" y="486"/>
      <point x="150" y="391" type="curve" smooth="yes"/>
      <point x="150" y="-4" type="line"/>
      <point x="162" y="-4" type="line"/>
      <point x="177" y="147" type="line"/>
      <point x="179" y="147" type="line"/>
      <point x="209" y="47"/>
      <point x="273" y="-8"/>
    </contour>
    <contour>
      <point x="393" y="12" type="curve" smooth="yes"/>
      <point x="245" y="12"/>
      <point x="176" y="68"/>
      <point x="176" y="268" type="curve" smooth="yes"/>
      <point x="176" y="406"/>
      <point x="254" y="518"/>
      <point x="403" y="522" type="curve" smooth="yes"/>
      <point x="514" y="526"/>
      <point x="606" y="425"/>
      <point x="606" y="268" type="curve" smooth="yes"/>
      <point x="606" y="116"/>
      <point x="541" y="12"/>
    </contour>
  </outline>
</glyph>
<glyph name="uni0255" format="2">
  <advance width="563"/>
  <unicode hex="0255"/>
  <anchor x="281" y="0" name="bottom"/>
  <anchor x="281" y="536" name="top"/>
  <outline>
    <contour>
      <point x="95" y="-5" type="line"/>
      <point x="106" y="9"/>
      <point x="123" y="39"/>
      <point x="140" y="66" type="curve"/>
      <point x="184" y="15"/>
      <point x="251" y="-10"/>
      <point x="321" y="-10" type="curve" smooth="yes"/>
      <point x="440" y="-10"/>
      <point x="512" y="38"/>
      <point x="512" y="115" type="curve" smooth="yes"/>
      <point x="512" y="186"/>
      <point x="458" y="229"/>
      <point x="367" y="229" type="curve" smooth="yes"/>
      <point x="288" y="229"/>
      <point x="225" y="196"/>
      <point x="150" y="89" type="curve"/>
      <point x="127" y="129"/>
      <point x="108" y="193"/>
      <point x="108" y="264" type="curve" smooth="yes"/>
      <point x="108" y="457"/>
      <point x="195" y="532"/>
      <point x="316" y="532" type="curve" smooth="yes"/>
      <point x="420" y="532"/>
      <point x="483" y="459"/>
      <point x="483" y="406" type="curve"/>
      <point x="494" y="408"/>
      <point x="503" y="420"/>
      <point x="503" y="425" type="curve" smooth="yes"/>
      <point x="503" y="487"/>
      <point x="432" y="542"/>
      <point x="324" y="542" type="curve" smooth="yes"/>
      <point x="188" y="542"/>
      <point x="80" y="471"/>
      <point x="80" y="263" type="curve" smooth="yes"/>
      <point x="80" y="168"/>
      <point x="102" y="109"/>
      <point x="133" y="71" type="curve"/>
      <point x="116" y="40"/>
      <point x="101" y="17"/>
      <point x="87" y="-2" type="curve"/>
    </contour>
    <contour>
      <point x="318" y="0" type="curve" smooth="yes"/>
      <point x="264" y="0"/>
      <point x="201" y="29"/>
      <point x="156" y="84" type="curve"/>
      <point x="233" y="190"/>
      <point x="292" y="219"/>
      <point x="367" y="219" type="curve" smooth="yes"/>
      <point x="450" y="219"/>
      <point x="502" y="180"/>
      <point x="502" y="115" type="curve" smooth="yes"/>
      <point x="502" y="44"/>
      <point x="433" y="0"/>
    </contour>
  </outline>
</glyph>
<glyph name="uni025E" format="2">
  <advance width="613"/>
  <unicode hex="025E"/>
  <anchor x="307" y="0" name="bottom"/>
  <anchor x="307" y="536" name="top"/>
  <outline>
    <contour>
      <point x="309" y="-10" type="curve" smooth="yes"/>
      <point x="489" y="-10"/>
      <point x="535" y="87"/>
      <point x="535" y="149" type="curve" smooth="yes"/>
      <point x="535" y="216"/>
      <point x="466" y="282"/>
      <point x="367" y="286" type="curve"/>
      <point x="367" y="288" type="line"/>
      <point x="459" y="294"/>
      <point x="518" y="347"/>
      <point x="518" y="418" type="curve" smooth="yes"/>
      <point x="518" y="489"/>
      <point x="447" y="542"/>
      <point x="331" y="542" type="curve" smooth="yes"/>
      <point x="162" y="542"/>
      <point x="82" y="454"/>
      <point x="82" y="267" type="curve" smooth="yes"/>
      <point x="82" y="79"/>
      <point x="167" y="-10"/>
    </contour>
    <contour>
      <point x="308" y="0" type="curve" smooth="yes"/>
      <point x="171" y="0"/>
      <point x="110" y="86"/>
      <point x="110" y="267" type="curve" smooth="yes"/>
      <point x="110" y="445"/>
      <point x="162" y="532"/>
      <point x="331" y="532" type="curve" smooth="yes"/>
      <point x="442" y="532"/>
      <point x="490" y="468"/>
      <point x="490" y="418" type="curve" smooth="yes"/>
      <point x="490" y="323"/>
      <point x="442" y="303"/>
      <point x="358" y="303" type="curve" smooth="yes"/>
      <point x="259" y="303" type="line"/>
      <point x="259" y="273" type="line"/>
      <point x="351" y="273" type="line" smooth="yes"/>
      <point x="446" y="273"/>
      <point x="507" y="238"/>
      <point x="507" y="149" type="curve" smooth="yes"/>
      <point x="507" y="50"/>
      <point x="450" y="0"/>
    </contour>
  </outline>
</glyph>
<glyph name="uni0261" format="2">
  <advance width="702"/>
  <unicode hex="0261"/>
  <anchor x="351" y="-238" name="bottom"/>
  <anchor x="351" y="536" name="top"/>
  <outline>
    <contour>
      <point x="304" y="-238" type="curve" smooth="yes"/>
      <point x="401" y="-238"/>
      <point x="568" y="-222"/>
      <point x="568" y="-88" type="curve" smooth="yes"/>
      <point x="568" y="454" type="line" smooth="yes"/>
      <point x="568" y="524"/>
      <point x="570" y="526"/>
      <point x="656" y="526" type="curve" smooth="yes"/>
      <point x="675" y="526" type="line"/>
      <point x="675" y="536" type="line"/>
      <point x="541" y="536" type="line"/>
      <point x="541" y="393" type="line"/>
      <point x="537" y="393" type="line"/>
      <point x="516" y="482"/>
      <point x="444" y="546"/>
      <point x="341" y="546" type="curve" smooth="yes"/>
      <point x="173" y="546"/>
      <point x="81" y="469"/>
      <point x="81" y="259" type="curve" smooth="yes"/>
      <point x="81" y="64"/>
      <point x="172" y="-18"/>
      <point x="321" y="-18" type="curve" smooth="yes"/>
      <point x="441" y="-18"/>
      <point x="518" y="78"/>
      <point x="538" y="170" type="curve"/>
      <point x="540" y="170" type="line"/>
      <point x="539" y="203"/>
      <point x="540" y="146"/>
      <point x="540" y="98" type="curve" smooth="yes"/>
      <point x="540" y="-61" type="line" smooth="yes"/>
      <point x="540" y="-66"/>
      <point x="546" y="-228"/>
      <point x="303" y="-228" type="curve" smooth="yes"/>
      <point x="178" y="-228"/>
      <point x="151" y="-167"/>
      <point x="151" y="-115" type="curve"/>
      <point x="135" y="-115"/>
      <point x="117" y="-117"/>
      <point x="117" y="-136" type="curve" smooth="yes"/>
      <point x="117" y="-197"/>
      <point x="190" y="-238"/>
    </contour>
    <contour>
      <point x="324" y="2" type="curve" smooth="yes"/>
      <point x="179" y="2"/>
      <point x="109" y="84"/>
      <point x="109" y="257" type="curve" smooth="yes"/>
      <point x="109" y="456"/>
      <point x="191" y="526"/>
      <point x="344" y="526" type="curve" smooth="yes"/>
      <point x="497" y="526"/>
      <point x="539" y="429"/>
      <point x="539" y="263" type="curve" smooth="yes"/>
      <point x="539" y="14"/>
      <point x="401" y="2"/>
    </contour>
  </outline>
</glyph>
<glyph name="uni0267" format="2">
  <advance width="683"/>
  <unicode hex="0267"/>
  <anchor x="342" y="-238" name="bottom"/>
  <anchor x="342" y="766" name="top"/>
  <outline>
    <contour>
      <point x="455" y="-238" type="curve" smooth="yes"/>
      <point x="542" y="-238"/>
      <point x="584" y="-172"/>
      <point x="584" y="-149" type="curve" smooth="yes"/>
      <point x="584" y="360" type="line" smooth="yes"/>
      <point x="584" y="496"/>
      <point x="518" y="542"/>
      <point x="389" y="542" type="curve" smooth="yes"/>
      <point x="291" y="542"/>
      <point x="211" y="491"/>
      <point x="177" y="396" type="curve"/>
      <point x="175" y="396" type="line"/>
      <point x="176" y="423"/>
      <point x="176" y="447"/>
      <point x="176" y="469" type="curve" smooth="yes"/>
      <point x="176" y="702" type="line" smooth="yes"/>
      <point x="176" y="752"/>
      <point x="223" y="756"/>
      <point x="268" y="756" type="curve" smooth="yes"/>
      <point x="292" y="756"/>
      <point x="332" y="767"/>
      <point x="356" y="708" type="curve"/>
      <point x="362" y="710"/>
      <point x="365" y="711"/>
      <point x="365" y="716" type="curve" smooth="yes"/>
      <point x="365" y="731"/>
      <point x="338" y="766"/>
      <point x="274" y="766" type="curve" smooth="yes"/>
      <point x="165" y="766"/>
      <point x="148" y="710"/>
      <point x="148" y="698" type="curve" smooth="yes"/>
      <point x="148" y="82" type="line" smooth="yes"/>
      <point x="148" y="12"/>
      <point x="146" y="10"/>
      <point x="61" y="10" type="curve" smooth="yes"/>
      <point x="20" y="10" type="line"/>
      <point x="20" y="0" type="line"/>
      <point x="297" y="0" type="line"/>
      <point x="297" y="10" type="line"/>
      <point x="264" y="10" type="line" smooth="yes"/>
      <point x="178" y="10"/>
      <point x="176" y="12"/>
      <point x="176" y="82" type="curve" smooth="yes"/>
      <point x="176" y="335" type="line" smooth="yes"/>
      <point x="176" y="453"/>
      <point x="269" y="527"/>
      <point x="395" y="527" type="curve" smooth="yes"/>
      <point x="503" y="527"/>
      <point x="556" y="484"/>
      <point x="556" y="356" type="curve" smooth="yes"/>
      <point x="556" y="-160" type="line" smooth="yes"/>
      <point x="556" y="-212"/>
      <point x="495" y="-228"/>
      <point x="461" y="-228" type="curve" smooth="yes"/>
      <point x="439" y="-228"/>
      <point x="400" y="-233"/>
      <point x="374" y="-186" type="curve"/>
      <point x="369" y="-184"/>
      <point x="367" y="-187"/>
      <point x="367" y="-192" type="curve" smooth="yes"/>
      <point x="367" y="-205"/>
      <point x="395" y="-238"/>
    </contour>
  </outline>
</glyph>
<glyph name="uni026A" format="2">
  <advance width="373"/>
  <unicode hex="026A"/>
  <anchor x="186" y="0" name="bottom"/>
  <anchor x="186" y="536" name="top"/>
  <outline>
    <contour>
      <point x="74" y="0" type="line"/>
      <point x="300" y="0" type="line"/>
      <point x="300" y="10" type="line"/>
      <point x="292" y="10" type="line" smooth="yes"/>
      <point x="212" y="10"/>
      <point x="206" y="7"/>
      <point x="206" y="70" type="curve" smooth="yes"/>
      <point x="206" y="466" type="line" smooth="yes"/>
      <point x="206" y="527"/>
      <point x="214" y="526"/>
      <point x="280" y="526" type="curve" smooth="yes"/>
      <point x="300" y="526" type="line"/>
      <point x="300" y="536" type="line"/>
      <point x="74" y="536" type="line"/>
      <point x="74" y="526" type="line"/>
      <point x="106" y="526" type="line" smooth="yes"/>
      <point x="172" y="526"/>
      <point x="178" y="527"/>
      <point x="178" y="466" type="curve" smooth="yes"/>
      <point x="178" y="72" type="line" smooth="yes"/>
      <point x="178" y="7"/>
      <point x="174" y="10"/>
      <point x="94" y="10" type="curve" smooth="yes"/>
      <point x="74" y="10" type="line"/>
    </contour>
  </outline>
</glyph>
<glyph name="uni026E" format="2">
  <advance width="702"/>
  <unicode hex="026E"/>
  <anchor x="352" y="-238" name="bottom"/>
  <anchor x="352" y="760" name="top"/>
  <outline>
    <contour>
      <point x="429" y="-238" type="curve" smooth="yes"/>
      <point x="575" y="-238"/>
      <point x="682" y="-129"/>
      <point x="682" y="-13" type="curve" smooth="yes"/>
      <point x="682" y="79"/>
      <point x="646" y="204"/>
      <point x="399" y="212" type="curve"/>
      <point x="674" y="522" type="line"/>
      <point x="674" y="536" type="line"/>
      <point x="169" y="536" type="line"/>
      <point x="169" y="760" type="line"/>
      <point x="7" y="760" type="line"/>
      <point x="7" y="750" type="line"/>
      <point x="74" y="750" type="line" smooth="yes"/>
      <point x="134" y="750"/>
      <point x="141" y="746"/>
      <point x="141" y="672" type="curve" smooth="yes"/>
      <point x="141" y="84" type="line" smooth="yes"/>
      <point x="141" y="14"/>
      <point x="137" y="10"/>
      <point x="64" y="10" type="curve" smooth="yes"/>
      <point x="7" y="10" type="line"/>
      <point x="7" y="0" type="line"/>
      <point x="302" y="0" type="line"/>
      <point x="302" y="10" type="line"/>
      <point x="246" y="10" type="line" smooth="yes"/>
      <point x="173" y="10"/>
      <point x="169" y="14"/>
      <point x="169" y="84" type="curve" smooth="yes"/>
      <point x="169" y="511" type="line"/>
      <point x="652" y="511" type="line"/>
      <point x="362" y="183" type="line"/>
      <point x="362" y="170" type="line"/>
      <point x="389" y="170" type="line" smooth="yes"/>
      <point x="576" y="170"/>
      <point x="654" y="80"/>
      <point x="654" y="-5" type="curve" smooth="yes"/>
      <point x="654" y="-124"/>
      <point x="551" y="-228"/>
      <point x="426" y="-228" type="curve" smooth="yes"/>
      <point x="310" y="-228"/>
      <point x="237" y="-177"/>
      <point x="236" y="-69" type="curve"/>
      <point x="209" y="-69"/>
      <point x="199" y="-70"/>
      <point x="199" y="-96" type="curve" smooth="yes"/>
      <point x="199" y="-177"/>
      <point x="287" y="-238"/>
    </contour>
  </outline>
</glyph>
<glyph name="uni0283" format="2">
  <advance width="381"/>
  <unicode hex="0283"/>
  <anchor x="190" y="-238" name="bottom"/>
  <anchor x="190" y="766" name="top"/>
  <outline>
    <contour>
      <point x="80" y="-238" type="curve" smooth="yes"/>
      <point x="146" y="-238"/>
      <point x="209" y="-223"/>
      <point x="209" y="-101" type="curve" smooth="yes"/>
      <point x="209" y="596" type="line" smooth="yes"/>
      <point x="209" y="722"/>
      <point x="236" y="756"/>
      <point x="307" y="756" type="curve" smooth="yes"/>
      <point x="355" y="756"/>
      <point x="380" y="736"/>
      <point x="380" y="642" type="curve"/>
      <point x="403" y="642"/>
      <point x="406" y="666"/>
      <point x="406" y="683" type="curve" smooth="yes"/>
      <point x="406" y="738"/>
      <point x="371" y="766"/>
      <point x="307" y="766" type="curve" smooth="yes"/>
      <point x="229" y="766"/>
      <point x="181" y="721"/>
      <point x="181" y="617" type="curve" smooth="yes"/>
      <point x="181" y="-83" type="line" smooth="yes"/>
      <point x="181" y="-145"/>
      <point x="176" y="-228"/>
      <point x="78" y="-228" type="curve" smooth="yes"/>
      <point x="32" y="-228"/>
      <point x="6" y="-198"/>
      <point x="6" y="-118" type="curve"/>
      <point x="-13" y="-118"/>
      <point x="-20" y="-142"/>
      <point x="-20" y="-165" type="curve" smooth="yes"/>
      <point x="-20" y="-190"/>
      <point x="-3" y="-238"/>
    </contour>
  </outline>
</glyph>
<glyph name="uni0288" format="2">
  <advance width="343"/>
  <unicode hex="0288"/>
  <anchor x="171" y="-240" name="bottom"/>
  <anchor x="171" y="657" name="top"/>
  <outline>
    <contour>
      <point x="237" y="-240" type="curve" smooth="yes"/>
      <point x="262" y="-240"/>
      <point x="282" y="-240"/>
      <point x="309" y="-235" type="curve"/>
      <point x="309" y="-225" type="line"/>
      <point x="286" y="-229"/>
      <point x="266" y="-230"/>
      <point x="237" y="-230" type="curve" smooth="yes"/>
      <point x="167" y="-230"/>
      <point x="145" y="-193"/>
      <point x="145" y="-91" type="curve" smooth="yes"/>
      <point x="145" y="526" type="line"/>
      <point x="299" y="526" type="line"/>
      <point x="299" y="536" type="line"/>
      <point x="145" y="536" type="line"/>
      <point x="145" y="657" type="line"/>
      <point x="135" y="657" type="line"/>
      <point x="136" y="588"/>
      <point x="128" y="559"/>
      <point x="109" y="547" type="curve" smooth="yes"/>
      <point x="90" y="534"/>
      <point x="60" y="534"/>
      <point x="21" y="536" type="curve"/>
      <point x="21" y="526" type="line"/>
      <point x="117" y="526" type="line"/>
      <point x="117" y="-89" type="line" smooth="yes"/>
      <point x="117" y="-196"/>
      <point x="151" y="-240"/>
    </contour>
  </outline>
</glyph>
<glyph name="uni0290" format="2">
  <advance width="603"/>
  <unicode hex="0290"/>
  <anchor x="314" y="-197" name="bottom"/>
  <anchor x="314" y="536" name="top"/>
  <outline>
    <contour>
      <point x="557" y="-199" type="curve" smooth="yes"/>
      <point x="594" y="-199"/>
      <point x="616" y="-189"/>
      <point x="616" y="-172" type="curve" smooth="yes"/>
      <point x="616" y="-169"/>
      <point x="610" y="-165"/>
      <point x="602" y="-161" type="curve"/>
      <point x="590" y="-175"/>
      <point x="578" y="-176"/>
      <point x="561" y="-176" type="curve" smooth="yes"/>
      <point x="519" y="-176"/>
      <point x="498" y="-156"/>
      <point x="498" y="-101" type="curve" smooth="yes"/>
      <point x="498" y="0" type="line"/>
      <point x="503" y="138" type="line"/>
      <point x="493" y="138" type="line"/>
      <point x="491" y="95" type="line" smooth="yes"/>
      <point x="489" y="39"/>
      <point x="482" y="15"/>
      <point x="430" y="15" type="curve" smooth="yes"/>
      <point x="127" y="15" type="line"/>
      <point x="536" y="534" type="line"/>
      <point x="536" y="536" type="line"/>
      <point x="109" y="536" type="line"/>
      <point x="101" y="420" type="line"/>
      <point x="111" y="420" type="line"/>
      <point x="113" y="452" type="line" smooth="yes"/>
      <point x="116" y="507"/>
      <point x="124" y="521"/>
      <point x="176" y="521" type="curve" smooth="yes"/>
      <point x="493" y="521" type="line"/>
      <point x="88" y="2" type="line"/>
      <point x="88" y="0" type="line"/>
      <point x="488" y="0" type="line"/>
      <point x="488" y="-116" type="line" smooth="yes"/>
      <point x="488" y="-180"/>
      <point x="512" y="-199"/>
    </contour>
  </outline>
</glyph>
<glyph name="eopenclosed" format="2">
  <advance width="613"/>
  <unicode hex="029A"/>
  <anchor x="303" y="0" name="bottom"/>
  <anchor x="303" y="536" name="top"/>
  <outline>
    <contour>
      <point x="304" y="-10" type="curve" smooth="yes"/>
      <point x="446" y="-10"/>
      <point x="531" y="79"/>
      <point x="531" y="267" type="curve" smooth="yes"/>
      <point x="531" y="454"/>
      <point x="451" y="542"/>
      <point x="282" y="542" type="curve" smooth="yes"/>
      <point x="166" y="542"/>
      <point x="95" y="489"/>
      <point x="95" y="418" type="curve" smooth="yes"/>
      <point x="95" y="347"/>
      <point x="154" y="295"/>
      <point x="244" y="288" type="curve"/>
      <point x="244" y="286" type="line"/>
      <point x="147" y="283"/>
      <point x="78" y="216"/>
      <point x="78" y="149" type="curve" smooth="yes"/>
      <point x="78" y="87"/>
      <point x="124" y="-10"/>
    </contour>
    <contour>
      <point x="305" y="0" type="curve" smooth="yes"/>
      <point x="163" y="0"/>
      <point x="106" y="50"/>
      <point x="106" y="149" type="curve" smooth="yes"/>
      <point x="106" y="238"/>
      <point x="167" y="273"/>
      <point x="262" y="273" type="curve" smooth="yes"/>
      <point x="354" y="273" type="line"/>
      <point x="354" y="303" type="line"/>
      <point x="255" y="303" type="line" smooth="yes"/>
      <point x="171" y="303"/>
      <point x="123" y="323"/>
      <point x="123" y="418" type="curve" smooth="yes"/>
      <point x="123" y="468"/>
      <point x="171" y="532"/>
      <point x="282" y="532" type="curve" smooth="yes"/>
      <point x="451" y="532"/>
      <point x="505" y="445"/>
      <point x="503" y="267" type="curve" smooth="yes"/>
      <point x="501" y="86"/>
      <point x="442" y="0"/>
    </contour>
  </outline>
</glyph>
<glyph name="tslig" format="2">
  <advance width="797"/>
  <unicode hex="02A6"/>
  <anchor x="399" y="0" name="bottom"/>
  <anchor x="399" y="657" name="top"/>
  <outline>
    <contour>
      <point x="238" y="-8" type="curve" smooth="yes"/>
      <point x="294" y="-8"/>
      <point x="359" y="5"/>
      <point x="418" y="31" type="curve"/>
      <point x="444" y="7"/>
      <point x="487" y="-10"/>
      <point x="561" y="-10" type="curve" smooth="yes"/>
      <point x="656" y="-10"/>
      <point x="731" y="53"/>
      <point x="731" y="135" type="curve" smooth="yes"/>
      <point x="731" y="167"/>
      <point x="741" y="210"/>
      <point x="585" y="283" type="curve" smooth="yes"/>
      <point x="490" y="321"/>
      <point x="425" y="355"/>
      <point x="425" y="416" type="curve" smooth="yes"/>
      <point x="425" y="496"/>
      <point x="470" y="533"/>
      <point x="557" y="533" type="curve" smooth="yes"/>
      <point x="636" y="533"/>
      <point x="683" y="520"/>
      <point x="683" y="405" type="curve"/>
      <point x="706" y="405"/>
      <point x="709" y="417"/>
      <point x="709" y="441" type="curve" smooth="yes"/>
      <point x="709" y="474"/>
      <point x="683" y="543"/>
      <point x="564" y="543" type="curve" smooth="yes"/>
      <point x="541" y="543"/>
      <point x="521" y="541"/>
      <point x="504" y="536" type="curve"/>
      <point x="145" y="536" type="line"/>
      <point x="145" y="657" type="line"/>
      <point x="135" y="657" type="line"/>
      <point x="136" y="588"/>
      <point x="128" y="559"/>
      <point x="109" y="547" type="curve"/>
      <point x="90" y="534"/>
      <point x="60" y="534"/>
      <point x="21" y="536" type="curve"/>
      <point x="21" y="526" type="line"/>
      <point x="117" y="526" type="line"/>
      <point x="117" y="141" type="line" smooth="yes"/>
      <point x="117" y="34"/>
      <point x="151" y="-8"/>
    </contour>
    <contour>
      <point x="561" y="0" type="curve" smooth="yes"/>
      <point x="435" y="0"/>
      <point x="419" y="47"/>
      <point x="419" y="135" type="curve"/>
      <point x="394" y="135"/>
      <point x="393" y="122"/>
      <point x="393" y="95" type="curve" smooth="yes"/>
      <point x="393" y="78"/>
      <point x="395" y="59"/>
      <point x="411" y="40" type="curve"/>
      <point x="354" y="15"/>
      <point x="281" y="1"/>
      <point x="238" y="1" type="curve" smooth="yes"/>
      <point x="167" y="1"/>
      <point x="145" y="37"/>
      <point x="145" y="139" type="curve" smooth="yes"/>
      <point x="145" y="526" type="line"/>
      <point x="473" y="526" type="line"/>
      <point x="425" y="506"/>
      <point x="397" y="470"/>
      <point x="397" y="426" type="curve" smooth="yes"/>
      <point x="397" y="359"/>
      <point x="426" y="324"/>
      <point x="595" y="244" type="curve" smooth="yes"/>
      <point x="688" y="207"/>
      <point x="703" y="178"/>
      <point x="703" y="139" type="curve" smooth="yes"/>
      <point x="703" y="69"/>
      <point x="656" y="0"/>
    </contour>
  </outline>
</glyph>
<glyph name="uni02C2" format="2">
  <advance width="335"/>
  <unicode hex="02C2"/>
  <outline>
    <contour>
      <point x="294" y="546" type="curve"/>
      <point x="302" y="546" type="line"/>
      <point x="302" y="560" type="line"/>
      <point x="263" y="567"/>
      <point x="98" y="644"/>
      <point x="58" y="652" type="curve"/>
      <point x="98" y="662"/>
      <point x="263" y="741"/>
      <point x="302" y="750" type="curve"/>
      <point x="302" y="764" type="line"/>
      <point x="294" y="764" type="line"/>
      <point x="207" y="736"/>
      <point x="120" y="697"/>
      <point x="38" y="664" type="curve"/>
      <point x="38" y="644" type="line"/>
      <point x="110" y="617"/>
      <point x="204" y="575"/>
    </contour>
  </outline>
</glyph>
<glyph name="uni02C3" format="2">
  <advance width="335"/>
  <unicode hex="02C3"/>
  <outline>
    <contour>
      <point x="37" y="546" type="line"/>
      <point x="45" y="546" type="line"/>
      <point x="129" y="575"/>
      <point x="229" y="619"/>
      <point x="301" y="646" type="curve"/>
      <point x="301" y="666" type="line"/>
      <point x="219" y="699"/>
      <point x="138" y="736"/>
      <point x="45" y="764" type="curve"/>
      <point x="37" y="764" type="line"/>
      <point x="37" y="750" type="line"/>
      <point x="76" y="741"/>
      <point x="241" y="664"/>
      <point x="281" y="656" type="curve"/>
      <point x="241" y="646"/>
      <point x="76" y="567"/>
      <point x="37" y="560" type="curve"/>
    </contour>
  </outline>
</glyph>
<glyph name="circumflex" format="2">
  <advance width="328"/>
  <unicode hex="02C6"/>
  <outline>
    <contour>
      <point x="40" y="606" type="line"/>
      <point x="42" y="606" type="line"/>
      <point x="97" y="656"/>
      <point x="127" y="688"/>
      <point x="164" y="741" type="curve"/>
      <point x="203" y="688"/>
      <point x="231" y="656"/>
      <point x="286" y="606" type="curve"/>
      <point x="288" y="606" type="line"/>
      <point x="288" y="618" type="line"/>
      <point x="252" y="660"/>
      <point x="204" y="721"/>
      <point x="180" y="766" type="curve"/>
      <point x="147" y="766" type="line"/>
      <point x="125" y="721"/>
      <point x="76" y="660"/>
      <point x="40" y="618" type="curve"/>
    </contour>
  </outline>
</glyph>
<glyph name="tilde" format="2">
  <advance width="451"/>
  <unicode hex="02DC"/>
  <outline>
    <contour>
      <point x="328" y="632" type="curve" smooth="yes"/>
      <point x="387" y="632"/>
      <point x="407" y="667"/>
      <point x="411" y="706" type="curve"/>
      <point x="401" y="706" type="line"/>
      <point x="396" y="681"/>
      <point x="385" y="658"/>
      <point x="322" y="658" type="curve" smooth="yes"/>
      <point x="271" y="658"/>
      <point x="213" y="700"/>
      <point x="134" y="700" type="curve" smooth="yes"/>
      <point x="70" y="700"/>
      <point x="44" y="649"/>
      <point x="40" y="616" type="curve"/>
      <point x="50" y="616" type="line"/>
      <point x="56" y="639"/>
      <point x="64" y="674"/>
      <point x="137" y="674" type="curve" smooth="yes"/>
      <point x="193" y="674"/>
      <point x="261" y="632"/>
    </contour>
  </outline>
</glyph>
<glyph name="horncomb" format="2">
  <unicode hex="031B"/>
  <anchor x="-17" y="536" name="_topright"/>
  <outline>
    <contour>
      <point x="-82" y="561" type="line"/>
      <point x="-7" y="562"/>
      <point x="50" y="604"/>
      <point x="50" y="709" type="curve" smooth="yes"/>
      <point x="50" y="740"/>
      <point x="37" y="770"/>
      <point x="16" y="770" type="curve" smooth="yes"/>
      <point x="6" y="770"/>
      <point x="-10" y="766"/>
      <point x="-10" y="751" type="curve" smooth="yes"/>
      <point x="-10" y="718"/>
      <point x="37" y="715"/>
      <point x="37" y="686" type="curve" smooth="yes"/>
      <point x="37" y="611"/>
      <point x="-31" y="568"/>
      <point x="-82" y="570" type="curve"/>
    </contour>
  </outline>
</glyph>
<glyph name="ringbelowcomb" format="2">
  <unicode hex="0325"/>
  <anchor x="-3" y="0" name="_bottom"/>
  <anchor x="-3" y="-211" name="bottom"/>
  <outline>
    <contour>
      <point x="-1" y="-211" type="curve" smooth="yes"/>
      <point x="55" y="-211"/>
      <point x="106" y="-190"/>
      <point x="106" y="-144" type="curve" smooth="yes"/>
      <point x="106" y="-94"/>
      <point x="55" y="-73"/>
      <point x="-1" y="-73" type="curve" smooth="yes"/>
      <point x="-57" y="-73"/>
      <point x="-112" y="-94"/>
      <point x="-112" y="-144" type="curve" smooth="yes"/>
      <point x="-112" y="-190"/>
      <point x="-57" y="-211"/>
    </contour>
    <contour>
      <point x="-2" y="-209" type="curve" smooth="yes"/>
      <point x="-67" y="-209"/>
      <point x="-108" y="-184"/>
      <point x="-108" y="-144" type="curve" smooth="yes"/>
      <point x="-108" y="-102"/>
      <point x="-67" y="-75"/>
      <point x="-2" y="-75" type="curve" smooth="yes"/>
      <point x="63" y="-75"/>
      <point x="102" y="-102"/>
      <point x="102" y="-144" type="curve" smooth="yes"/>
      <point x="102" y="-184"/>
      <point x="63" y="-209"/>
    </contour>
  </outline>
</glyph>
<glyph name="tildebelowcomb" format="2">
  <unicode hex="0330"/>
  <anchor x="9" y="0" name="_bottom"/>
  <anchor x="9" y="-141" name="bottom"/>
  <outline>
    <contour>
      <point x="112" y="-141" type="curve" smooth="yes"/>
      <point x="169" y="-141"/>
      <point x="190" y="-109"/>
      <point x="194" y="-69" type="curve"/>
      <point x="184" y="-69" type="line"/>
      <point x="178" y="-96"/>
      <point x="170" y="-119"/>
      <point x="108" y="-119" type="curve" smooth="yes"/>
      <point x="58" y="-119"/>
      <point x="-5" y="-57"/>
      <point x="-84" y="-57" type="curve" smooth="yes"/>
      <point x="-147" y="-57"/>
      <point x="-173" y="-108"/>
      <point x="-177" y="-141" type="curve"/>
      <point x="-167" y="-141" type="line"/>
      <point x="-160" y="-117"/>
      <point x="-156" y="-79"/>
      <point x="-84" y="-79" type="curve" smooth="yes"/>
      <point x="-28" y="-79"/>
      <point x="46" y="-141"/>
    </contour>
  </outline>
</glyph>
<glyph name="macronbelowcomb" format="2">
  <unicode hex="0331"/>
  <anchor x="0" y="0" name="_bottom"/>
  <anchor x="0" y="-120" name="bottom"/>
  <outline>
    <contour>
      <point x="-180" y="-85" type="line"/>
      <point x="180" y="-85" type="line"/>
      <point x="180" y="-65" type="line"/>
      <point x="-180" y="-65" type="line"/>
    </contour>
  </outline>
</glyph>
<glyph name="slashshortoverlaycomb" format="2">
  <unicode hex="0337"/>
  <anchor x="-15" y="283" name="_center"/>
  <outline>
    <contour>
      <point x="-160" y="201" type="line"/>
      <point x="145" y="355" type="line"/>
      <point x="136" y="373" type="line"/>
      <point x="-169" y="219" type="line"/>
    </contour>
  </outline>
</glyph>
<glyph name="tildeverticalcomb" format="2">
  <unicode hex="033E"/>
  <anchor x="-5" y="536" name="_top"/>
  <anchor x="-5" y="891" name="top"/>
  <outline>
    <contour>
      <point x="-58" y="556" type="line"/>
      <point x="32" y="552"/>
      <point x="54" y="595"/>
      <point x="54" y="640" type="curve" smooth="yes"/>
      <point x="54" y="724"/>
      <point x="-36" y="738"/>
      <point x="-36" y="810" type="curve" smooth="yes"/>
      <point x="-36" y="854"/>
      <point x="-2" y="882"/>
      <point x="48" y="881" type="curve"/>
      <point x="48" y="891" type="line"/>
      <point x="-35" y="893"/>
      <point x="-60" y="857"/>
      <point x="-60" y="810" type="curve" smooth="yes"/>
      <point x="-60" y="729"/>
      <point x="24" y="710"/>
      <point x="24" y="640" type="curve" smooth="yes"/>
      <point x="24" y="598"/>
      <point x="-7" y="564"/>
      <point x="-58" y="566" type="curve"/>
    </contour>
  </outline>
</glyph>
<glyph name="fermatacomb" format="2">
  <unicode hex="0352"/>
  <anchor x="3" y="536" name="_top"/>
  <anchor x="3" y="808" name="top"/>
  <outline>
    <contour>
      <point x="-120" y="681" type="curve"/>
      <point x="-110" y="681" type="line"/>
      <point x="-103" y="759"/>
      <point x="-67" y="792"/>
      <point x="0" y="792" type="curve" smooth="yes"/>
      <point x="70" y="792"/>
      <point x="110" y="757"/>
      <point x="116" y="681" type="curve"/>
      <point x="126" y="681" type="line"/>
      <point x="123" y="738"/>
      <point x="101" y="808"/>
      <point x="0" y="808" type="curve" smooth="yes"/>
      <point x="-100" y="808"/>
      <point x="-117" y="737"/>
    </contour>
    <contour>
      <point x="-1" y="631" type="curve" smooth="yes"/>
      <point x="9" y="631"/>
      <point x="18" y="639"/>
      <point x="18" y="675" type="curve" smooth="yes"/>
      <point x="18" y="712"/>
      <point x="9" y="717"/>
      <point x="-1" y="717" type="curve" smooth="yes"/>
      <point x="-10" y="717"/>
      <point x="-21" y="712"/>
      <point x="-21" y="675" type="curve" smooth="yes"/>
      <point x="-21" y="639"/>
      <point x="-10" y="631"/>
    </contour>
  </outline>
</glyph>
<glyph name="dieresistonos" format="2">
  <advance width="717"/>
  <unicode hex="0385"/>
  <anchor x="351" y="536" name="_top"/>
  <outline>
    <contour>
      <point x="328" y="663" type="line"/>
      <point x="332" y="663" type="line"/>
      <point x="376" y="741"/>
      <point x="391" y="761"/>
      <point x="421" y="811" type="curve"/>
      <point x="421" y="825" type="line"/>
      <point x="391" y="825" type="line"/>
      <point x="362" y="752"/>
      <point x="354" y="746"/>
      <point x="328" y="680" type="curve"/>
    </contour>
    <contour>
      <point x="249" y="637" type="curve" smooth="yes"/>
      <point x="261" y="637"/>
      <point x="265" y="638"/>
      <point x="265" y="681" type="curve" smooth="yes"/>
      <point x="265" y="721"/>
      <point x="261" y="726"/>
      <point x="249" y="726" type="curve" smooth="yes"/>
      <point x="239" y="726"/>
      <point x="233" y="721"/>
      <point x="233" y="681" type="curve" smooth="yes"/>
      <point x="233" y="638"/>
      <point x="239" y="637"/>
    </contour>
    <contour>
      <point x="454" y="637" type="curve" smooth="yes"/>
      <point x="464" y="637"/>
      <point x="468" y="638"/>
      <point x="468" y="681" type="curve" smooth="yes"/>
      <point x="468" y="721"/>
      <point x="464" y="726"/>
      <point x="454" y="726" type="curve" smooth="yes"/>
      <point x="443" y="726"/>
      <point x="437" y="721"/>
      <point x="437" y="681" type="curve" smooth="yes"/>
      <point x="437" y="638"/>
      <point x="443" y="637"/>
    </contour>
  </outline>
</glyph>
<glyph name="Sigma" format="2">
  <advance width="740"/>
  <unicode hex="03A3"/>
  <anchor x="371" y="0" name="bottom"/>
  <anchor x="371" y="714" name="top"/>
  <outline>
    <contour>
      <point x="35" y="0" type="line"/>
      <point x="680" y="0" type="line"/>
      <point x="693" y="161" type="line"/>
      <point x="683" y="161" type="line"/>
      <point x="674" y="29" type="line" smooth="yes"/>
      <point x="672" y="55"/>
      <point x="666" y="22"/>
      <point x="645" y="22" type="curve" smooth="yes"/>
      <point x="50" y="22" type="line"/>
      <point x="427" y="358" type="line"/>
      <point x="427" y="367" type="line"/>
      <point x="84" y="704" type="line"/>
      <point x="622" y="704" type="line" smooth="yes"/>
      <point x="674" y="704"/>
      <point x="666" y="674"/>
      <point x="671" y="668" type="curve" smooth="yes"/>
      <point x="680" y="549" type="line"/>
      <point x="690" y="549" type="line"/>
      <point x="679" y="714" type="line"/>
      <point x="46" y="714" type="line"/>
      <point x="46" y="706" type="line"/>
      <point x="404" y="354" type="line"/>
      <point x="35" y="27" type="line"/>
    </contour>
  </outline>
</glyph>
<glyph name="Phi" format="2">
  <advance width="854"/>
  <unicode hex="03A6"/>
  <anchor x="428" y="0" name="bottom"/>
  <anchor x="428" y="714" name="top"/>
  <outline>
    <contour>
      <point x="294" y="0" type="line"/>
      <point x="560" y="0" type="line"/>
      <point x="560" y="10" type="line"/>
      <point x="472" y="10" type="line" smooth="yes"/>
      <point x="452" y="10"/>
      <point x="444" y="21"/>
      <point x="444" y="98" type="curve" smooth="yes"/>
      <point x="444" y="134" type="line"/>
      <point x="477" y="134" type="line" smooth="yes"/>
      <point x="664" y="134"/>
      <point x="782" y="182"/>
      <point x="782" y="360" type="curve" smooth="yes"/>
      <point x="782" y="478"/>
      <point x="686" y="590"/>
      <point x="517" y="590" type="curve" smooth="yes"/>
      <point x="444" y="590" type="line"/>
      <point x="444" y="594" type="line" smooth="yes"/>
      <point x="444" y="693"/>
      <point x="446" y="704"/>
      <point x="480" y="704" type="curve" smooth="yes"/>
      <point x="560" y="704" type="line"/>
      <point x="560" y="714" type="line"/>
      <point x="294" y="714" type="line"/>
      <point x="294" y="704" type="line"/>
      <point x="382" y="704" type="line" smooth="yes"/>
      <point x="412" y="704"/>
      <point x="416" y="693"/>
      <point x="416" y="594" type="curve" smooth="yes"/>
      <point x="416" y="590" type="line"/>
      <point x="343" y="590" type="line" smooth="yes"/>
      <point x="184" y="590"/>
      <point x="78" y="490"/>
      <point x="78" y="366" type="curve" smooth="yes"/>
      <point x="78" y="194"/>
      <point x="193" y="134"/>
      <point x="383" y="134" type="curve" smooth="yes"/>
      <point x="416" y="134" type="line"/>
      <point x="416" y="98" type="line" smooth="yes"/>
      <point x="416" y="21"/>
      <point x="410" y="10"/>
      <point x="386" y="10" type="curve" smooth="yes"/>
      <point x="294" y="10" type="line"/>
    </contour>
    <contour>
      <point x="406" y="144" type="line" smooth="yes"/>
      <point x="198" y="144"/>
      <point x="106" y="197"/>
      <point x="106" y="365" type="curve" smooth="yes"/>
      <point x="106" y="510"/>
      <point x="198" y="580"/>
      <point x="376" y="580" type="curve" smooth="yes"/>
      <point x="416" y="580" type="line"/>
      <point x="416" y="144" type="line"/>
    </contour>
    <contour>
      <point x="444" y="144" type="line"/>
      <point x="444" y="580" type="line"/>
      <point x="485" y="580" type="line" smooth="yes"/>
      <point x="659" y="580"/>
      <point x="754" y="510"/>
      <point x="754" y="359" type="curve" smooth="yes"/>
      <point x="754" y="197"/>
      <point x="665" y="144"/>
      <point x="449" y="144" type="curve" smooth="yes"/>
    </contour>
  </outline>
</glyph>
<glyph name="alpha" format="2">
  <advance width="692"/>
  <unicode hex="03B1"/>
  <anchor x="347" y="0" name="bottom"/>
  <anchor x="347" y="536" name="top"/>
  <outline>
    <contour>
      <point x="332" y="-10" type="curve" smooth="yes"/>
      <point x="418" y="-10"/>
      <point x="498" y="22"/>
      <point x="525" y="173" type="curve"/>
      <point x="527" y="173" type="line"/>
      <point x="527" y="50"/>
      <point x="538" y="0"/>
      <point x="638" y="0" type="curve" smooth="yes"/>
      <point x="664" y="0" type="line"/>
      <point x="664" y="10" type="line"/>
      <point x="644" y="10" type="line" smooth="yes"/>
      <point x="580" y="10"/>
      <point x="552" y="37"/>
      <point x="552" y="118" type="curve" smooth="yes"/>
      <point x="552" y="345" type="line"/>
      <point x="552" y="441"/>
      <point x="578" y="485"/>
      <point x="591" y="536" type="curve"/>
      <point x="591" y="536" type="line"/>
      <point x="566" y="505"/>
      <point x="541" y="470"/>
      <point x="528" y="415" type="curve"/>
      <point x="526" y="415" type="line"/>
      <point x="489" y="477"/>
      <point x="414" y="538"/>
      <point x="326" y="538" type="curve" smooth="yes"/>
      <point x="187" y="538"/>
      <point x="82" y="486"/>
      <point x="82" y="267" type="curve" smooth="yes"/>
      <point x="82" y="143"/>
      <point x="149" y="-10"/>
    </contour>
    <contour>
      <point x="332" y="10" type="curve" smooth="yes"/>
      <point x="174" y="10"/>
      <point x="110" y="141"/>
      <point x="110" y="264" type="curve" smooth="yes"/>
      <point x="110" y="468"/>
      <point x="191" y="518"/>
      <point x="311" y="518" type="curve" smooth="yes"/>
      <point x="439" y="518"/>
      <point x="490" y="445"/>
      <point x="524" y="418" type="curve"/>
      <point x="524" y="269" type="line" smooth="yes"/>
      <point x="524" y="144"/>
      <point x="494" y="10"/>
    </contour>
  </outline>
</glyph>
<glyph name="xi" format="2">
  <advance width="515"/>
  <unicode hex="03BE"/>
  <anchor x="257" y="-201" name="bottom"/>
  <anchor x="257" y="769" name="top"/>
  <outline>
    <contour>
      <point x="376" y="-201" type="line"/>
      <point x="428" y="-196"/>
      <point x="486" y="-152"/>
      <point x="486" y="-81" type="curve" smooth="yes"/>
      <point x="486" y="-23"/>
      <point x="479" y="-3"/>
      <point x="255" y="69" type="curve" smooth="yes"/>
      <point x="137" y="107"/>
      <point x="95" y="151"/>
      <point x="95" y="215" type="curve" smooth="yes"/>
      <point x="95" y="356"/>
      <point x="288" y="427"/>
      <point x="344" y="436" type="curve"/>
      <point x="375" y="433"/>
      <point x="388" y="434"/>
      <point x="398" y="434" type="curve" smooth="yes"/>
      <point x="424" y="434"/>
      <point x="437" y="438"/>
      <point x="437" y="450" type="curve" smooth="yes"/>
      <point x="437" y="461"/>
      <point x="426" y="465"/>
      <point x="400" y="465" type="curve" smooth="yes"/>
      <point x="382" y="465"/>
      <point x="363" y="461"/>
      <point x="329" y="448" type="curve"/>
      <point x="222" y="460"/>
      <point x="162" y="483"/>
      <point x="162" y="544" type="curve" smooth="yes"/>
      <point x="162" y="614"/>
      <point x="206" y="639"/>
      <point x="311" y="682" type="curve"/>
      <point x="329" y="682"/>
      <point x="363" y="677"/>
      <point x="405" y="677" type="curve" smooth="yes"/>
      <point x="411" y="677"/>
      <point x="418" y="676"/>
      <point x="418" y="690" type="curve" smooth="yes"/>
      <point x="418" y="697"/>
      <point x="407" y="704"/>
      <point x="385" y="704" type="curve" smooth="yes"/>
      <point x="361" y="704"/>
      <point x="331" y="691"/>
      <point x="308" y="691" type="curve"/>
      <point x="223" y="698"/>
      <point x="155" y="713"/>
      <point x="89" y="757" type="curve"/>
      <point x="81" y="747" type="line"/>
      <point x="146" y="709"/>
      <point x="199" y="693"/>
      <point x="292" y="683" type="curve"/>
      <point x="213" y="665"/>
      <point x="134" y="632"/>
      <point x="134" y="545" type="curve" smooth="yes"/>
      <point x="134" y="480"/>
      <point x="214" y="445"/>
      <point x="319" y="439" type="curve"/>
      <point x="319" y="439" type="line"/>
      <point x="204" y="391"/>
      <point x="67" y="319"/>
      <point x="67" y="215" type="curve" smooth="yes"/>
      <point x="67" y="86"/>
      <point x="193" y="55"/>
      <point x="273" y="31" type="curve" smooth="yes"/>
      <point x="423" y="-13"/>
      <point x="462" y="-41"/>
      <point x="462" y="-87" type="curve" smooth="yes"/>
      <point x="462" y="-175"/>
      <point x="403" y="-188"/>
      <point x="376" y="-192" type="curve"/>
    </contour>
  </outline>
</glyph>
<glyph name="uni03D6" format="2">
  <advance width="980"/>
  <unicode hex="03D6"/>
  <outline>
    <contour>
      <point x="316" y="-10" type="curve" smooth="yes"/>
      <point x="418" y="-10"/>
      <point x="464" y="49"/>
      <point x="489" y="193" type="curve"/>
      <point x="509" y="61"/>
      <point x="559" y="-10"/>
      <point x="667" y="-10" type="curve" smooth="yes"/>
      <point x="791" y="-10"/>
      <point x="854" y="66"/>
      <point x="854" y="243" type="curve" smooth="yes"/>
      <point x="854" y="366"/>
      <point x="783" y="456"/>
      <point x="717" y="514" type="curve"/>
      <point x="775" y="514" type="line" smooth="yes"/>
      <point x="897" y="514"/>
      <point x="918" y="551"/>
      <point x="918" y="618" type="curve"/>
      <point x="908" y="618" type="line"/>
      <point x="908" y="587"/>
      <point x="875" y="536"/>
      <point x="794" y="536" type="curve" smooth="yes"/>
      <point x="195" y="536" type="line" smooth="yes"/>
      <point x="73" y="536"/>
      <point x="42" y="489"/>
      <point x="42" y="437" type="curve"/>
      <point x="52" y="437" type="line"/>
      <point x="52" y="484"/>
      <point x="87" y="514"/>
      <point x="146" y="514" type="curve" smooth="yes"/>
      <point x="258" y="514" type="line"/>
      <point x="196" y="460"/>
      <point x="123" y="370"/>
      <point x="123" y="243" type="curve" smooth="yes"/>
      <point x="123" y="71"/>
      <point x="190" y="-10"/>
    </contour>
    <contour>
      <point x="318" y="0" type="curve" smooth="yes"/>
      <point x="198" y="0"/>
      <point x="151" y="115"/>
      <point x="151" y="244" type="curve" smooth="yes"/>
      <point x="151" y="386"/>
      <point x="204" y="424"/>
      <point x="270" y="514" type="curve"/>
      <point x="705" y="514" type="line"/>
      <point x="775" y="420"/>
      <point x="826" y="383"/>
      <point x="826" y="244" type="curve" smooth="yes"/>
      <point x="826" y="115"/>
      <point x="785" y="0"/>
      <point x="665" y="0" type="curve" smooth="yes"/>
      <point x="557" y="0"/>
      <point x="514" y="54"/>
      <point x="494" y="171" type="curve"/>
      <point x="499" y="174"/>
      <point x="514" y="204"/>
      <point x="514" y="279" type="curve" smooth="yes"/>
      <point x="514" y="330"/>
      <point x="510" y="368"/>
      <point x="488" y="368" type="curve" smooth="yes"/>
      <point x="467" y="368"/>
      <point x="463" y="329"/>
      <point x="463" y="279" type="curve" smooth="yes"/>
      <point x="463" y="204"/>
      <point x="479" y="175"/>
      <point x="483" y="171" type="curve"/>
      <point x="464" y="55"/>
      <point x="429" y="0"/>
    </contour>
  </outline>
</glyph>
<glyph name="uni03DB" format="2">
  <advance width="527"/>
  <unicode hex="03DB"/>
  <anchor x="264" y="-201" name="bottom"/>
  <anchor x="264" y="536" name="top"/>
  <outline>
    <contour>
      <point x="344" y="-191" type="curve" smooth="yes"/>
      <point x="373" y="-191"/>
      <point x="467" y="-145"/>
      <point x="467" y="-77" type="curve" smooth="yes"/>
      <point x="467" y="-17"/>
      <point x="438" y="18"/>
      <point x="285" y="56" type="curve" smooth="yes"/>
      <point x="175" y="79"/>
      <point x="110" y="104"/>
      <point x="110" y="267" type="curve" smooth="yes"/>
      <point x="110" y="499"/>
      <point x="231" y="532"/>
      <point x="321" y="532" type="curve" smooth="yes"/>
      <point x="377" y="532"/>
      <point x="386" y="492"/>
      <point x="429" y="492" type="curve" smooth="yes"/>
      <point x="475" y="492"/>
      <point x="495" y="530"/>
      <point x="491" y="567" type="curve"/>
      <point x="481" y="567" type="line"/>
      <point x="482" y="541"/>
      <point x="464" y="518"/>
      <point x="438" y="518" type="curve" smooth="yes"/>
      <point x="411" y="518"/>
      <point x="395" y="542"/>
      <point x="324" y="542" type="curve" smooth="yes"/>
      <point x="222" y="542"/>
      <point x="82" y="495"/>
      <point x="82" y="283" type="curve" smooth="yes"/>
      <point x="82" y="113"/>
      <point x="145" y="57"/>
      <point x="243" y="41" type="curve" smooth="yes"/>
      <point x="458" y="-7"/>
      <point x="445" y="-49"/>
      <point x="445" y="-69" type="curve" smooth="yes"/>
      <point x="445" y="-141"/>
      <point x="423" y="-162"/>
      <point x="316" y="-162" type="curve"/>
      <point x="316" y="-186"/>
      <point x="332" y="-191"/>
    </contour>
  </outline>
</glyph>
<glyph name="uni03E1" format="2">
  <advance width="472"/>
  <unicode hex="03E1"/>
  <anchor x="237" y="-240" name="bottom"/>
  <anchor x="237" y="545" name="top"/>
  <outline>
    <contour>
      <point x="255" y="-240" type="line"/>
      <point x="309" y="-162"/>
      <point x="391" y="-50"/>
      <point x="391" y="76" type="curve" smooth="yes"/>
      <point x="391" y="392"/>
      <point x="238" y="491"/>
      <point x="29" y="545" type="curve"/>
      <point x="29" y="535" type="line"/>
      <point x="173" y="487"/>
      <point x="262" y="418"/>
      <point x="313" y="311" type="curve"/>
      <point x="78" y="249" type="line"/>
      <point x="80" y="238" type="line"/>
      <point x="319" y="300" type="line"/>
      <point x="341" y="241"/>
      <point x="353" y="204"/>
      <point x="359" y="161" type="curve"/>
      <point x="125" y="109" type="line"/>
      <point x="127" y="98" type="line"/>
      <point x="360" y="151" type="line"/>
      <point x="360" y="147"/>
      <point x="363" y="82"/>
      <point x="363" y="91" type="curve" smooth="yes"/>
      <point x="363" y="-41"/>
      <point x="304" y="-137"/>
      <point x="245" y="-237" type="curve"/>
    </contour>
  </outline>
</glyph>
<glyph name="afii10047" format="2">
  <advance width="731"/>
  <unicode hex="042D"/>
  <anchor x="366" y="0" name="bottom"/>
  <anchor x="366" y="714" name="top"/>
  <outline>
    <contour>
      <point x="301" y="-10" type="curve" smooth="yes"/>
      <point x="506" y="-10"/>
      <point x="657" y="76"/>
      <point x="657" y="356" type="curve" smooth="yes"/>
      <point x="657" y="559"/>
      <point x="584" y="726"/>
      <point x="345" y="726" type="curve" smooth="yes"/>
      <point x="208" y="726"/>
      <point x="88" y="659"/>
      <point x="88" y="569" type="curve" smooth="yes"/>
      <point x="88" y="550"/>
      <point x="101" y="536"/>
      <point x="116" y="536" type="curve"/>
      <point x="116" y="657"/>
      <point x="192" y="716"/>
      <point x="350" y="716" type="curve" smooth="yes"/>
      <point x="510" y="716"/>
      <point x="618" y="629"/>
      <point x="629" y="374" type="curve"/>
      <point x="202" y="374" type="line"/>
      <point x="202" y="364" type="line"/>
      <point x="629" y="364" type="line"/>
      <point x="631" y="70"/>
      <point x="478" y="0"/>
      <point x="307" y="0" type="curve" smooth="yes"/>
      <point x="139" y="0"/>
      <point x="91" y="80"/>
      <point x="106" y="210" type="curve"/>
      <point x="83" y="215"/>
      <point x="70" y="194"/>
      <point x="70" y="161" type="curve" smooth="yes"/>
      <point x="70" y="115"/>
      <point x="82" y="-10"/>
    </contour>
  </outline>
</glyph>
<glyph name="afii10048" format="2">
  <advance width="1161"/>
  <unicode hex="042E"/>
  <anchor x="580" y="0" name="bottom"/>
  <anchor x="580" y="714" name="top"/>
  <outline>
    <contour>
      <point x="749" y="-10" type="curve" smooth="yes"/>
      <point x="1007" y="-10"/>
      <point x="1087" y="145"/>
      <point x="1087" y="358" type="curve" smooth="yes"/>
      <point x="1087" y="570"/>
      <point x="1001" y="725"/>
      <point x="750" y="725" type="curve" smooth="yes"/>
      <point x="538" y="725"/>
      <point x="416" y="602"/>
      <point x="408" y="379" type="curve"/>
      <point x="216" y="379" type="line"/>
      <point x="216" y="614" type="line" smooth="yes"/>
      <point x="216" y="693"/>
      <point x="222" y="704"/>
      <point x="272" y="704" type="curve" smooth="yes"/>
      <point x="327" y="704" type="line"/>
      <point x="327" y="714" type="line"/>
      <point x="63" y="714" type="line"/>
      <point x="63" y="704" type="line"/>
      <point x="136" y="704" type="line" smooth="yes"/>
      <point x="180" y="704"/>
      <point x="188" y="693"/>
      <point x="188" y="614" type="curve" smooth="yes"/>
      <point x="188" y="98" type="line" smooth="yes"/>
      <point x="188" y="21"/>
      <point x="184" y="10"/>
      <point x="128" y="10" type="curve" smooth="yes"/>
      <point x="63" y="10" type="line"/>
      <point x="63" y="0" type="line"/>
      <point x="327" y="0" type="line"/>
      <point x="327" y="10" type="line"/>
      <point x="272" y="10" type="line" smooth="yes"/>
      <point x="222" y="10"/>
      <point x="216" y="21"/>
      <point x="216" y="98" type="curve" smooth="yes"/>
      <point x="216" y="369" type="line"/>
      <point x="408" y="369" type="line"/>
      <point x="410" y="106"/>
      <point x="518" y="-10"/>
    </contour>
    <contour>
      <point x="749" y="0" type="curve" smooth="yes"/>
      <point x="540" y="0"/>
      <point x="436" y="118"/>
      <point x="436" y="358" type="curve" smooth="yes"/>
      <point x="436" y="587"/>
      <point x="546" y="715"/>
      <point x="750" y="715" type="curve" smooth="yes"/>
      <point x="974" y="715"/>
      <point x="1059" y="587"/>
      <point x="1059" y="370" type="curve" smooth="yes"/>
      <point x="1059" y="129"/>
      <point x="977" y="0"/>
    </contour>
  </outline>
</glyph>
<glyph name="afii10049" format="2">
  <advance width="754"/>
  <unicode hex="042F"/>
  <anchor x="376" y="0" name="bottom"/>
  <anchor x="376" y="714" name="top"/>
  <outline>
    <contour>
      <point x="0" y="0" type="line"/>
      <point x="41" y="0" type="line" smooth="yes"/>
      <point x="82" y="0"/>
      <point x="107" y="6"/>
      <point x="135" y="31" type="curve" smooth="yes"/>
      <point x="362" y="317" type="line"/>
      <point x="538" y="317" type="line"/>
      <point x="538" y="98" type="line" smooth="yes"/>
      <point x="538" y="21"/>
      <point x="530" y="10"/>
      <point x="488" y="10" type="curve" smooth="yes"/>
      <point x="427" y="10" type="line"/>
      <point x="427" y="0" type="line"/>
      <point x="690" y="0" type="line"/>
      <point x="690" y="10" type="line"/>
      <point x="618" y="10" type="line" smooth="yes"/>
      <point x="574" y="10"/>
      <point x="566" y="21"/>
      <point x="566" y="98" type="curve" smooth="yes"/>
      <point x="566" y="614" type="line" smooth="yes"/>
      <point x="566" y="693"/>
      <point x="564" y="704"/>
      <point x="596" y="704" type="curve" smooth="yes"/>
      <point x="690" y="704" type="line"/>
      <point x="690" y="714" type="line"/>
      <point x="461" y="714" type="line" smooth="yes"/>
      <point x="279" y="714"/>
      <point x="154" y="661"/>
      <point x="154" y="512" type="curve" smooth="yes"/>
      <point x="154" y="433"/>
      <point x="191" y="348"/>
      <point x="331" y="325" type="curve"/>
      <point x="152" y="106" type="line" smooth="yes"/>
      <point x="85" y="19"/>
      <point x="49" y="10"/>
      <point x="13" y="10" type="curve" smooth="yes"/>
      <point x="0" y="10" type="line"/>
    </contour>
    <contour>
      <point x="428" y="327" type="line" smooth="yes"/>
      <point x="274" y="327"/>
      <point x="182" y="361"/>
      <point x="182" y="512" type="curve" smooth="yes"/>
      <point x="182" y="636"/>
      <point x="266" y="704"/>
      <point x="451" y="704" type="curve" smooth="yes"/>
      <point x="538" y="704" type="line"/>
      <point x="538" y="327" type="line"/>
    </contour>
  </outline>
</glyph>
<glyph name="afii10107" format="2">
  <advance width="1033"/>
  <unicode hex="045A"/>
  <anchor x="517" y="0" name="bottom"/>
  <anchor x="517" y="536" name="top"/>
  <outline>
    <contour>
      <point x="41" y="0" type="line"/>
      <point x="328" y="0" type="line"/>
      <point x="328" y="10" type="line"/>
      <point x="264" y="10" type="line" smooth="yes"/>
      <point x="210" y="10"/>
      <point x="201" y="13"/>
      <point x="201" y="82" type="curve" smooth="yes"/>
      <point x="201" y="283" type="line"/>
      <point x="590" y="283" type="line"/>
      <point x="590" y="82" type="line" smooth="yes"/>
      <point x="590" y="12"/>
      <point x="586" y="10"/>
      <point x="511" y="10" type="curve" smooth="yes"/>
      <point x="474" y="10" type="line"/>
      <point x="474" y="0" type="line"/>
      <point x="759" y="0" type="line" smooth="yes"/>
      <point x="906" y="0"/>
      <point x="967" y="71"/>
      <point x="967" y="162" type="curve" smooth="yes"/>
      <point x="967" y="267"/>
      <point x="878" y="293"/>
      <point x="760" y="293" type="curve" smooth="yes"/>
      <point x="618" y="293" type="line"/>
      <point x="618" y="454" type="line" smooth="yes"/>
      <point x="618" y="522"/>
      <point x="628" y="526"/>
      <point x="684" y="526" type="curve" smooth="yes"/>
      <point x="731" y="526" type="line"/>
      <point x="731" y="536" type="line"/>
      <point x="464" y="536" type="line"/>
      <point x="464" y="526" type="line"/>
      <point x="515" y="526" type="line" smooth="yes"/>
      <point x="586" y="526"/>
      <point x="590" y="522"/>
      <point x="590" y="454" type="curve" smooth="yes"/>
      <point x="590" y="293" type="line"/>
      <point x="201" y="293" type="line"/>
      <point x="201" y="454" type="line" smooth="yes"/>
      <point x="201" y="522"/>
      <point x="209" y="526"/>
      <point x="273" y="526" type="curve" smooth="yes"/>
      <point x="328" y="526" type="line"/>
      <point x="328" y="536" type="line"/>
      <point x="41" y="536" type="line"/>
      <point x="41" y="526" type="line"/>
      <point x="96" y="526" type="line" smooth="yes"/>
      <point x="171" y="526"/>
      <point x="173" y="522"/>
      <point x="173" y="454" type="curve" smooth="yes"/>
      <point x="173" y="82" type="line" smooth="yes"/>
      <point x="173" y="13"/>
      <point x="167" y="10"/>
      <point x="100" y="10" type="curve" smooth="yes"/>
      <point x="41" y="10" type="line"/>
    </contour>
    <contour>
      <point x="618" y="10" type="line"/>
      <point x="618" y="283" type="line"/>
      <point x="741" y="283" type="line" smooth="yes"/>
      <point x="888" y="283"/>
      <point x="939" y="253"/>
      <point x="939" y="162" type="curve" smooth="yes"/>
      <point x="939" y="56"/>
      <point x="889" y="10"/>
      <point x="704" y="10" type="curve" smooth="yes"/>
    </contour>
  </outline>
</glyph>
<glyph name="uni0463" format="2">
  <advance width="669"/>
  <unicode hex="0463"/>
  <anchor x="335" y="0" name="bottom"/>
  <anchor x="335" y="760" name="top"/>
  <outline>
    <contour>
      <point x="40" y="0" type="line"/>
      <point x="386" y="0" type="line" smooth="yes"/>
      <point x="535" y="0"/>
      <point x="591" y="64"/>
      <point x="591" y="168" type="curve" smooth="yes"/>
      <point x="591" y="263"/>
      <point x="514" y="290"/>
      <point x="378" y="290" type="curve" smooth="yes"/>
      <point x="208" y="290" type="line"/>
      <point x="208" y="485" type="line"/>
      <point x="374" y="485" type="line"/>
      <point x="374" y="495" type="line"/>
      <point x="208" y="495" type="line"/>
      <point x="208" y="760" type="line"/>
      <point x="40" y="760" type="line"/>
      <point x="40" y="750" type="line"/>
      <point x="111" y="750" type="line" smooth="yes"/>
      <point x="174" y="750"/>
      <point x="180" y="748"/>
      <point x="180" y="670" type="curve" smooth="yes"/>
      <point x="180" y="495" type="line"/>
      <point x="48" y="495" type="line"/>
      <point x="48" y="485" type="line"/>
      <point x="180" y="485" type="line"/>
      <point x="180" y="82" type="line" smooth="yes"/>
      <point x="180" y="12"/>
      <point x="180" y="10"/>
      <point x="87" y="10" type="curve" smooth="yes"/>
      <point x="40" y="10" type="line"/>
    </contour>
    <contour>
      <point x="208" y="10" type="line"/>
      <point x="208" y="280" type="line"/>
      <point x="372" y="280" type="line" smooth="yes"/>
      <point x="516" y="280"/>
      <point x="563" y="244"/>
      <point x="563" y="168" type="curve" smooth="yes"/>
      <point x="563" y="51"/>
      <point x="519" y="10"/>
      <point x="332" y="10" type="curve" smooth="yes"/>
    </contour>
  </outline>
</glyph>
<glyph name="uni0467" format="2">
  <advance width="612"/>
  <unicode hex="0467"/>
  <anchor x="321" y="0" name="bottom"/>
  <anchor x="333" y="536" name="top"/>
  <outline>
    <contour>
      <point x="4" y="0" type="line"/>
      <point x="183" y="0" type="line"/>
      <point x="183" y="10" type="line"/>
      <point x="126" y="9"/>
      <point x="106" y="6"/>
      <point x="106" y="30" type="curve" smooth="yes"/>
      <point x="106" y="62"/>
      <point x="126" y="94"/>
      <point x="155" y="157" type="curve" smooth="yes"/>
      <point x="205" y="270" type="line"/>
      <point x="307" y="270" type="line"/>
      <point x="307" y="0" type="line"/>
      <point x="335" y="0" type="line"/>
      <point x="335" y="270" type="line"/>
      <point x="422" y="270" type="line"/>
      <point x="491" y="119" type="line" smooth="yes"/>
      <point x="504" y="91"/>
      <point x="527" y="54"/>
      <point x="527" y="34" type="curve" smooth="yes"/>
      <point x="527" y="11"/>
      <point x="513" y="9"/>
      <point x="461" y="10" type="curve"/>
      <point x="461" y="0" type="line"/>
      <point x="607" y="0" type="line"/>
      <point x="607" y="10" type="line"/>
      <point x="595" y="9"/>
      <point x="573" y="3"/>
      <point x="550" y="58" type="curve" smooth="yes"/>
      <point x="329" y="536" type="line"/>
      <point x="314" y="536" type="line"/>
      <point x="100" y="68" type="line" smooth="yes"/>
      <point x="77" y="13"/>
      <point x="85" y="10"/>
      <point x="-4" y="10" type="curve" smooth="yes"/>
      <point x="4" y="10" type="line"/>
    </contour>
    <contour>
      <point x="210" y="280" type="line"/>
      <point x="235" y="338" type="line" smooth="yes"/>
      <point x="276" y="429"/>
      <point x="303" y="487"/>
      <point x="314" y="511" type="curve"/>
      <point x="326" y="480"/>
      <point x="361" y="409"/>
      <point x="389" y="349" type="curve" smooth="yes"/>
      <point x="419" y="280" type="line"/>
    </contour>
  </outline>
</glyph>
<glyph name="uni0469" format="2">
  <advance width="827"/>
  <unicode hex="0469"/>
  <anchor x="414" y="0" name="bottom"/>
  <anchor x="414" y="536" name="top"/>
  <outline>
    <contour>
      <point x="41" y="0" type="line"/>
      <point x="199" y="0" type="line"/>
      <point x="199" y="270" type="line"/>
      <point x="420" y="270" type="line"/>
      <point x="420" y="280" type="line"/>
      <point x="199" y="280" type="line"/>
      <point x="199" y="454" type="line" smooth="yes"/>
      <point x="199" y="522"/>
      <point x="199" y="526"/>
      <point x="283" y="526" type="curve" smooth="yes"/>
      <point x="328" y="526" type="line"/>
      <point x="328" y="536" type="line"/>
      <point x="41" y="536" type="line"/>
      <point x="41" y="526" type="line"/>
      <point x="86" y="526" type="line" smooth="yes"/>
      <point x="169" y="526"/>
      <point x="171" y="522"/>
      <point x="171" y="454" type="curve" smooth="yes"/>
      <point x="171" y="82" type="line" smooth="yes"/>
      <point x="171" y="13"/>
      <point x="169" y="10"/>
      <point x="86" y="10" type="curve" smooth="yes"/>
      <point x="41" y="10" type="line"/>
    </contour>
    <component base="uni0467" xOffset="215"/>
  </outline>
</glyph>
<glyph name="uni046B" format="2">
  <advance width="751"/>
  <unicode hex="046B"/>
  <anchor x="375" y="0" name="bottom"/>
  <anchor x="375" y="536" name="top"/>
  <outline>
    <contour>
      <point x="20" y="0" type="line"/>
      <point x="39" y="0" type="line" smooth="yes"/>
      <point x="87" y="0"/>
      <point x="102" y="35"/>
      <point x="151" y="125" type="curve" smooth="yes"/>
      <point x="193" y="200" type="line" smooth="yes"/>
      <point x="240" y="288"/>
      <point x="262" y="294"/>
      <point x="358" y="294" type="curve"/>
      <point x="358" y="82" type="line" smooth="yes"/>
      <point x="358" y="12"/>
      <point x="363" y="10"/>
      <point x="337" y="10" type="curve" smooth="yes"/>
      <point x="271" y="10" type="line"/>
      <point x="271" y="0" type="line"/>
      <point x="475" y="0" type="line"/>
      <point x="475" y="10" type="line"/>
      <point x="401" y="10" type="line" smooth="yes"/>
      <point x="387" y="10"/>
      <point x="386" y="12"/>
      <point x="386" y="82" type="curve" smooth="yes"/>
      <point x="386" y="294" type="line"/>
      <point x="477" y="294"/>
      <point x="515" y="286"/>
      <point x="556" y="205" type="curve" smooth="yes"/>
      <point x="598" y="123" type="line" smooth="yes"/>
      <point x="644" y="34"/>
      <point x="661" y="0"/>
      <point x="713" y="0" type="curve" smooth="yes"/>
      <point x="731" y="0" type="line"/>
      <point x="731" y="10" type="line"/>
      <point x="712" y="10" type="line" smooth="yes"/>
      <point x="693" y="10"/>
      <point x="686" y="-2"/>
      <point x="631" y="115" type="curve" smooth="yes"/>
      <point x="582" y="216" type="line" smooth="yes"/>
      <point x="548" y="286"/>
      <point x="483" y="307"/>
      <point x="392" y="306" type="curve"/>
      <point x="629" y="524" type="line"/>
      <point x="629" y="536" type="line"/>
      <point x="124" y="536" type="line"/>
      <point x="124" y="524" type="line"/>
      <point x="346" y="306" type="line"/>
      <point x="254" y="309"/>
      <point x="203" y="290"/>
      <point x="167" y="212" type="curve" smooth="yes"/>
      <point x="120" y="115" type="line" smooth="yes"/>
      <point x="67" y="4"/>
      <point x="60" y="10"/>
      <point x="39" y="10" type="curve" smooth="yes"/>
      <point x="20" y="10" type="line"/>
    </contour>
    <contour>
      <point x="381" y="310" type="line"/>
      <point x="157" y="526" type="line"/>
      <point x="602" y="526" type="line"/>
      <point x="382" y="310" type="line"/>
    </contour>
  </outline>
</glyph>
<glyph name="uni046E" format="2">
  <advance width="719"/>
  <unicode hex="046E"/>
  <anchor x="360" y="-198" name="bottom"/>
  <anchor x="360" y="849" name="top"/>
  <outline>
    <contour>
      <point x="579" y="-201" type="curve"/>
      <point x="590" y="-201"/>
      <point x="608" y="-187"/>
      <point x="608" y="-173" type="curve" smooth="yes"/>
      <point x="608" y="-147"/>
      <point x="582" y="-125"/>
      <point x="549" y="-125" type="curve" smooth="yes"/>
      <point x="435" y="-125"/>
      <point x="331" y="-175"/>
      <point x="253" y="-175" type="curve" smooth="yes"/>
      <point x="140" y="-175"/>
      <point x="150" y="-89"/>
      <point x="150" y="-77" type="curve" smooth="yes"/>
      <point x="150" y="-55"/>
      <point x="173" y="25"/>
      <point x="302" y="54" type="curve" smooth="yes"/>
      <point x="436" y="84"/>
      <point x="549" y="96"/>
      <point x="549" y="214" type="curve" smooth="yes"/>
      <point x="549" y="307"/>
      <point x="514" y="356"/>
      <point x="402" y="371" type="curve"/>
      <point x="525" y="391"/>
      <point x="565" y="448"/>
      <point x="565" y="551" type="curve" smooth="yes"/>
      <point x="565" y="635"/>
      <point x="507" y="719"/>
      <point x="354" y="726" type="curve"/>
      <point x="406" y="786"/>
      <point x="427" y="823"/>
      <point x="473" y="823" type="curve" smooth="yes"/>
      <point x="489" y="823"/>
      <point x="496" y="818"/>
      <point x="499" y="816" type="curve"/>
      <point x="500" y="817"/>
      <point x="502" y="821"/>
      <point x="502" y="827" type="curve" smooth="yes"/>
      <point x="502" y="841"/>
      <point x="487" y="847"/>
      <point x="471" y="847" type="curve" smooth="yes"/>
      <point x="419" y="847"/>
      <point x="403" y="815"/>
      <point x="335" y="726" type="curve"/>
      <point x="308" y="752"/>
      <point x="249" y="826"/>
      <point x="227" y="850" type="curve"/>
      <point x="219" y="850" type="line"/>
      <point x="219" y="837" type="line"/>
      <point x="242" y="807"/>
      <point x="271" y="757"/>
      <point x="291" y="725" type="curve"/>
      <point x="191" y="714"/>
      <point x="92" y="686"/>
      <point x="92" y="606" type="curve" smooth="yes"/>
      <point x="92" y="587"/>
      <point x="104" y="565"/>
      <point x="124" y="565" type="curve"/>
      <point x="124" y="667"/>
      <point x="177" y="715"/>
      <point x="330" y="715" type="curve" smooth="yes"/>
      <point x="476" y="715"/>
      <point x="537" y="638"/>
      <point x="537" y="544" type="curve" smooth="yes"/>
      <point x="537" y="429"/>
      <point x="483" y="377"/>
      <point x="333" y="377" type="curve" smooth="yes"/>
      <point x="238" y="377" type="line"/>
      <point x="238" y="367" type="line"/>
      <point x="335" y="367" type="line" smooth="yes"/>
      <point x="461" y="367"/>
      <point x="521" y="303"/>
      <point x="521" y="207" type="curve" smooth="yes"/>
      <point x="521" y="143"/>
      <point x="441" y="94"/>
      <point x="296" y="62" type="curve" smooth="yes"/>
      <point x="191" y="36"/>
      <point x="119" y="1"/>
      <point x="119" y="-78" type="curve" smooth="yes"/>
      <point x="119" y="-150"/>
      <point x="167" y="-185"/>
      <point x="253" y="-185" type="curve" smooth="yes"/>
      <point x="325" y="-185"/>
      <point x="432" y="-155"/>
      <point x="529" y="-155" type="curve" smooth="yes"/>
      <point x="577" y="-155"/>
      <point x="580" y="-172"/>
    </contour>
  </outline>
</glyph>
<glyph name="uni047B" format="2">
  <advance width="692"/>
  <unicode hex="047B"/>
  <outline>
    <contour>
      <point x="341" y="-61" type="curve" smooth="yes"/>
      <point x="354" y="-61"/>
      <point x="365" y="-57"/>
      <point x="367" y="-9" type="curve"/>
      <point x="528" y="-3"/>
      <point x="610" y="91"/>
      <point x="610" y="267" type="curve" smooth="yes"/>
      <point x="610" y="459"/>
      <point x="522" y="534"/>
      <point x="377" y="541" type="curve"/>
      <point x="375" y="589"/>
      <point x="366" y="595"/>
      <point x="351" y="595" type="curve" smooth="yes"/>
      <point x="339" y="595"/>
      <point x="327" y="589"/>
      <point x="325" y="541" type="curve"/>
      <point x="168" y="533"/>
      <point x="82" y="447"/>
      <point x="82" y="267" type="curve" smooth="yes"/>
      <point x="82" y="93"/>
      <point x="173" y="2"/>
      <point x="315" y="-9" type="curve"/>
      <point x="317" y="-57"/>
      <point x="329" y="-61"/>
    </contour>
    <contour>
      <point x="315" y="1" type="curve"/>
      <point x="172" y="11"/>
      <point x="110" y="139"/>
      <point x="110" y="267" type="curve" smooth="yes"/>
      <point x="110" y="424"/>
      <point x="176" y="521"/>
      <point x="326" y="531" type="curve"/>
      <point x="330" y="505"/>
      <point x="342" y="506"/>
      <point x="351" y="506" type="curve" smooth="yes"/>
      <point x="364" y="506"/>
      <point x="373" y="505"/>
      <point x="377" y="531" type="curve"/>
      <point x="512" y="523"/>
      <point x="582" y="434"/>
      <point x="582" y="267" type="curve" smooth="yes"/>
      <point x="582" y="148"/>
      <point x="524" y="11"/>
      <point x="367" y="1" type="curve"/>
      <point x="363" y="27"/>
      <point x="354" y="28"/>
      <point x="341" y="28" type="curve" smooth="yes"/>
      <point x="331" y="28"/>
      <point x="319" y="27"/>
    </contour>
  </outline>
</glyph>
<glyph name="titlocomb.cy" format="2">
  <unicode hex="0483"/>
  <anchor x="0" y="536" name="_top"/>
  <anchor x="0" y="695" name="top"/>
  <outline>
    <contour>
      <point x="-155" y="578" type="curve" smooth="yes"/>
      <point x="-129" y="578"/>
      <point x="-115" y="596"/>
      <point x="-115" y="627" type="curve"/>
      <point x="141" y="627" type="line" smooth="yes"/>
      <point x="175" y="627"/>
      <point x="193" y="640"/>
      <point x="193" y="663" type="curve" smooth="yes"/>
      <point x="193" y="683"/>
      <point x="180" y="695"/>
      <point x="158" y="695" type="curve" smooth="yes"/>
      <point x="132" y="695"/>
      <point x="118" y="678"/>
      <point x="118" y="647" type="curve"/>
      <point x="-138" y="647" type="line" smooth="yes"/>
      <point x="-172" y="647"/>
      <point x="-190" y="634"/>
      <point x="-190" y="610" type="curve" smooth="yes"/>
      <point x="-190" y="590"/>
      <point x="-177" y="578"/>
    </contour>
  </outline>
</glyph>
<glyph name="uni0492" format="2">
  <advance width="644"/>
  <unicode hex="0492"/>
  <anchor x="323" y="0" name="bottom"/>
  <anchor x="323" y="714" name="top"/>
  <outline>
    <contour>
      <point x="64" y="0" type="line"/>
      <point x="376" y="0" type="line"/>
      <point x="376" y="10" type="line"/>
      <point x="273" y="10" type="line" smooth="yes"/>
      <point x="223" y="10"/>
      <point x="217" y="21"/>
      <point x="217" y="98" type="curve" smooth="yes"/>
      <point x="217" y="374" type="line"/>
      <point x="389" y="374" type="line"/>
      <point x="389" y="384" type="line"/>
      <point x="217" y="384" type="line"/>
      <point x="217" y="704" type="line"/>
      <point x="522" y="704" type="line" smooth="yes"/>
      <point x="586" y="704"/>
      <point x="598" y="702"/>
      <point x="600" y="631" type="curve" smooth="yes"/>
      <point x="604" y="538" type="line"/>
      <point x="614" y="538" type="line"/>
      <point x="608" y="714" type="line"/>
      <point x="64" y="714" type="line"/>
      <point x="64" y="704" type="line"/>
      <point x="133" y="704" type="line" smooth="yes"/>
      <point x="183" y="704"/>
      <point x="189" y="693"/>
      <point x="189" y="618" type="curve" smooth="yes"/>
      <point x="189" y="384" type="line"/>
      <point x="76" y="384" type="line"/>
      <point x="76" y="374" type="line"/>
      <point x="189" y="374" type="line"/>
      <point x="189" y="98" type="line" smooth="yes"/>
      <point x="189" y="21"/>
      <point x="181" y="10"/>
      <point x="135" y="10" type="curve" smooth="yes"/>
      <point x="64" y="10" type="line"/>
    </contour>
  </outline>
</glyph>
<glyph name="uni0495" format="2">
  <advance width="612"/>
  <unicode hex="0495"/>
  <anchor x="307" y="-240" name="bottom"/>
  <anchor x="307" y="536" name="top"/>
  <outline>
    <contour>
      <point x="310" y="-240" type="curve" smooth="yes"/>
      <point x="453" y="-240"/>
      <point x="545" y="-114"/>
      <point x="545" y="38" type="curve" smooth="yes"/>
      <point x="545" y="191"/>
      <point x="520" y="295"/>
      <point x="308" y="295" type="curve" smooth="yes"/>
      <point x="258" y="295"/>
      <point x="220" y="283"/>
      <point x="201" y="279" type="curve"/>
      <point x="201" y="516" type="line"/>
      <point x="422" y="516" type="line" smooth="yes"/>
      <point x="484" y="516"/>
      <point x="494" y="502"/>
      <point x="498" y="494" type="curve" smooth="yes"/>
      <point x="506" y="382" type="line"/>
      <point x="516" y="382" type="line"/>
      <point x="506" y="536" type="line"/>
      <point x="41" y="536" type="line"/>
      <point x="41" y="526" type="line"/>
      <point x="96" y="526" type="line" smooth="yes"/>
      <point x="163" y="526"/>
      <point x="173" y="514"/>
      <point x="173" y="454" type="curve" smooth="yes"/>
      <point x="173" y="82" type="line" smooth="yes"/>
      <point x="173" y="12"/>
      <point x="171" y="10"/>
      <point x="88" y="10" type="curve" smooth="yes"/>
      <point x="41" y="10" type="line"/>
      <point x="41" y="0" type="line"/>
      <point x="355" y="0" type="line"/>
      <point x="355" y="10" type="line"/>
      <point x="272" y="10" type="line" smooth="yes"/>
      <point x="207" y="10"/>
      <point x="201" y="14"/>
      <point x="201" y="82" type="curve" smooth="yes"/>
      <point x="201" y="270" type="line"/>
      <point x="220" y="273"/>
      <point x="264" y="285"/>
      <point x="308" y="285" type="curve" smooth="yes"/>
      <point x="503" y="285"/>
      <point x="517" y="173"/>
      <point x="517" y="45" type="curve" smooth="yes"/>
      <point x="517" y="-101"/>
      <point x="446" y="-232"/>
      <point x="313" y="-232" type="curve" smooth="yes"/>
      <point x="259" y="-232"/>
      <point x="193" y="-220"/>
      <point x="193" y="-107" type="curve"/>
      <point x="185" y="-107"/>
      <point x="165" y="-123"/>
      <point x="165" y="-152" type="curve" smooth="yes"/>
      <point x="165" y="-236"/>
      <point x="245" y="-240"/>
    </contour>
  </outline>
</glyph>
<glyph name="uni0499" format="2">
  <advance width="550"/>
  <unicode hex="0499"/>
  <anchor x="276" y="-218" name="bottom"/>
  <anchor x="276" y="536" name="top"/>
  <outline>
    <contour>
      <point x="270" y="-216" type="curve" smooth="yes"/>
      <point x="331" y="-216"/>
      <point x="367" y="-173"/>
      <point x="367" y="-126" type="curve" smooth="yes"/>
      <point x="367" y="-57"/>
      <point x="292" y="3"/>
      <point x="274" y="-6" type="curve"/>
      <point x="418" y="2"/>
      <point x="470" y="70"/>
      <point x="470" y="144" type="curve" smooth="yes"/>
      <point x="470" y="237"/>
      <point x="421" y="274"/>
      <point x="336" y="289" type="curve"/>
      <point x="336" y="291" type="line"/>
      <point x="403" y="302"/>
      <point x="452" y="331"/>
      <point x="452" y="411" type="curve" smooth="yes"/>
      <point x="452" y="489"/>
      <point x="387" y="543"/>
      <point x="267" y="543" type="curve" smooth="yes"/>
      <point x="181" y="543"/>
      <point x="80" y="515"/>
      <point x="80" y="443" type="curve" smooth="yes"/>
      <point x="80" y="420"/>
      <point x="84" y="410"/>
      <point x="100" y="410" type="curve"/>
      <point x="100" y="497"/>
      <point x="194" y="533"/>
      <point x="275" y="533" type="curve" smooth="yes"/>
      <point x="375" y="533"/>
      <point x="424" y="473"/>
      <point x="424" y="410" type="curve" smooth="yes"/>
      <point x="424" y="343"/>
      <point x="367" y="295"/>
      <point x="286" y="295" type="curve" smooth="yes"/>
      <point x="242" y="295" type="line"/>
      <point x="242" y="285" type="line"/>
      <point x="280" y="285" type="line" smooth="yes"/>
      <point x="386" y="285"/>
      <point x="442" y="215"/>
      <point x="442" y="149" type="curve" smooth="yes"/>
      <point x="442" y="43"/>
      <point x="378" y="2"/>
      <point x="253" y="2" type="curve" smooth="yes"/>
      <point x="140" y="2"/>
      <point x="84" y="66"/>
      <point x="84" y="134" type="curve"/>
      <point x="63" y="134"/>
      <point x="50" y="123"/>
      <point x="50" y="103" type="curve" smooth="yes"/>
      <point x="50" y="75"/>
      <point x="104" y="-11"/>
      <point x="257" y="-8" type="curve"/>
      <point x="297" y="-28"/>
      <point x="340" y="-70"/>
      <point x="340" y="-136" type="curve" smooth="yes"/>
      <point x="340" y="-176"/>
      <point x="319" y="-201"/>
      <point x="271" y="-201" type="curve" smooth="yes"/>
      <point x="248" y="-201"/>
      <point x="223" y="-196"/>
      <point x="210" y="-178" type="curve"/>
      <point x="203" y="-185"/>
      <point x="205" y="-191"/>
      <point x="205" y="-188" type="curve" smooth="yes"/>
      <point x="205" y="-198"/>
      <point x="232" y="-216"/>
    </contour>
  </outline>
</glyph>
<glyph name="uni049B" format="2">
  <advance width="713"/>
  <unicode hex="049B"/>
  <anchor x="372" y="0" name="bottom"/>
  <anchor x="372" y="536" name="top"/>
  <outline>
    <contour>
      <point x="698" y="-210" type="curve"/>
      <point x="708" y="-210" type="line"/>
      <point x="708" y="10" type="line"/>
      <point x="629" y="10" type="line" smooth="yes"/>
      <point x="571" y="10"/>
      <point x="590" y="-29"/>
      <point x="528" y="96" type="curve" smooth="yes"/>
      <point x="487" y="173" type="line" smooth="yes"/>
      <point x="448" y="249"/>
      <point x="410" y="269"/>
      <point x="293" y="272" type="curve"/>
      <point x="377" y="289"/>
      <point x="404" y="342"/>
      <point x="440" y="396" type="curve" smooth="yes"/>
      <point x="485" y="464"/>
      <point x="518" y="521"/>
      <point x="572" y="521" type="curve" smooth="yes"/>
      <point x="633" y="521"/>
      <point x="643" y="488"/>
      <point x="642" y="433" type="curve"/>
      <point x="663" y="439"/>
      <point x="660" y="461"/>
      <point x="660" y="475" type="curve" smooth="yes"/>
      <point x="660" y="515"/>
      <point x="617" y="542"/>
      <point x="580" y="542" type="curve" smooth="yes"/>
      <point x="500" y="542"/>
      <point x="474" y="489"/>
      <point x="440" y="430" type="curve" smooth="yes"/>
      <point x="415" y="387"/>
      <point x="403" y="352"/>
      <point x="377" y="330" type="curve" smooth="yes"/>
      <point x="317" y="273"/>
      <point x="265" y="275"/>
      <point x="200" y="275" type="curve"/>
      <point x="200" y="454" type="line" smooth="yes"/>
      <point x="200" y="521"/>
      <point x="204" y="526"/>
      <point x="275" y="526" type="curve" smooth="yes"/>
      <point x="311" y="526" type="line"/>
      <point x="311" y="536" type="line"/>
      <point x="41" y="536" type="line"/>
      <point x="41" y="526" type="line"/>
      <point x="110" y="526" type="line" smooth="yes"/>
      <point x="165" y="526"/>
      <point x="172" y="522"/>
      <point x="172" y="454" type="curve" smooth="yes"/>
      <point x="172" y="83" type="line" smooth="yes"/>
      <point x="172" y="12"/>
      <point x="170" y="10"/>
      <point x="83" y="10" type="curve" smooth="yes"/>
      <point x="33" y="10" type="line"/>
      <point x="33" y="0" type="line"/>
      <point x="318" y="0" type="line"/>
      <point x="318" y="10" type="line"/>
      <point x="283" y="10" type="line" smooth="yes"/>
      <point x="206" y="10"/>
      <point x="200" y="12"/>
      <point x="200" y="82" type="curve" smooth="yes"/>
      <point x="200" y="265" type="line"/>
      <point x="366" y="265"/>
      <point x="416" y="256"/>
      <point x="464" y="164" type="curve" smooth="yes"/>
      <point x="518" y="60" type="line" smooth="yes"/>
      <point x="530" y="41"/>
      <point x="556" y="-12"/>
      <point x="644" y="0" type="curve" smooth="yes"/>
      <point x="683" y="10"/>
      <point x="689" y="16"/>
    </contour>
  </outline>
</glyph>
<glyph name="uni04A4" format="2">
  <advance width="1000"/>
  <unicode hex="04A4"/>
  <anchor x="500" y="0" name="bottom"/>
  <anchor x="500" y="714" name="top"/>
  <outline>
    <contour>
      <point x="63" y="0" type="line"/>
      <point x="337" y="0" type="line"/>
      <point x="337" y="10" type="line"/>
      <point x="274" y="10" type="line" smooth="yes"/>
      <point x="220" y="10"/>
      <point x="216" y="21"/>
      <point x="216" y="98" type="curve" smooth="yes"/>
      <point x="216" y="369" type="line"/>
      <point x="724" y="369" type="line"/>
      <point x="724" y="98" type="line" smooth="yes"/>
      <point x="724" y="21"/>
      <point x="720" y="10"/>
      <point x="664" y="10" type="curve" smooth="yes"/>
      <point x="603" y="10" type="line"/>
      <point x="603" y="0" type="line"/>
      <point x="875" y="0" type="line"/>
      <point x="875" y="10" type="line"/>
      <point x="808" y="10" type="line" smooth="yes"/>
      <point x="758" y="10"/>
      <point x="752" y="21"/>
      <point x="752" y="98" type="curve" smooth="yes"/>
      <point x="752" y="704" type="line"/>
      <point x="916" y="704" type="line" smooth="yes"/>
      <point x="926" y="704"/>
      <point x="934" y="694"/>
      <point x="934" y="705" type="curve" smooth="yes"/>
      <point x="942" y="564" type="line"/>
      <point x="956" y="564" type="line"/>
      <point x="950" y="714" type="line"/>
      <point x="603" y="714" type="line"/>
      <point x="603" y="704" type="line"/>
      <point x="662" y="704" type="line" smooth="yes"/>
      <point x="720" y="704"/>
      <point x="724" y="693"/>
      <point x="724" y="614" type="curve" smooth="yes"/>
      <point x="724" y="379" type="line"/>
      <point x="216" y="379" type="line"/>
      <point x="216" y="614" type="line" smooth="yes"/>
      <point x="216" y="693"/>
      <point x="220" y="704"/>
      <point x="274" y="704" type="curve" smooth="yes"/>
      <point x="337" y="704" type="line"/>
      <point x="337" y="714" type="line"/>
      <point x="63" y="714" type="line"/>
      <point x="63" y="704" type="line"/>
      <point x="130" y="704" type="line" smooth="yes"/>
      <point x="184" y="704"/>
      <point x="188" y="693"/>
      <point x="188" y="614" type="curve" smooth="yes"/>
      <point x="188" y="98" type="line" smooth="yes"/>
      <point x="188" y="21"/>
      <point x="184" y="10"/>
      <point x="128" y="10" type="curve" smooth="yes"/>
      <point x="63" y="10" type="line"/>
    </contour>
  </outline>
</glyph>
<glyph name="uni04A7" format="2">
  <advance width="1045"/>
  <unicode hex="04A7"/>
  <anchor x="522" y="-240" name="bottom"/>
  <anchor x="522" y="536" name="top"/>
  <outline>
    <contour>
      <point x="739" y="-240" type="curve" smooth="yes"/>
      <point x="886" y="-240"/>
      <point x="978" y="-138"/>
      <point x="978" y="38" type="curve" smooth="yes"/>
      <point x="978" y="191"/>
      <point x="953" y="295"/>
      <point x="741" y="295" type="curve" smooth="yes"/>
      <point x="688" y="295"/>
      <point x="657" y="283"/>
      <point x="635" y="279" type="curve"/>
      <point x="635" y="452" type="line" smooth="yes"/>
      <point x="635" y="520"/>
      <point x="635" y="524"/>
      <point x="719" y="524" type="curve" smooth="yes"/>
      <point x="768" y="524" type="line"/>
      <point x="768" y="536" type="line"/>
      <point x="41" y="536" type="line"/>
      <point x="41" y="526" type="line"/>
      <point x="96" y="526" type="line" smooth="yes"/>
      <point x="171" y="526"/>
      <point x="173" y="522"/>
      <point x="173" y="454" type="curve" smooth="yes"/>
      <point x="173" y="82" type="line" smooth="yes"/>
      <point x="173" y="13"/>
      <point x="171" y="10"/>
      <point x="88" y="10" type="curve" smooth="yes"/>
      <point x="41" y="10" type="line"/>
      <point x="41" y="0" type="line"/>
      <point x="328" y="0" type="line"/>
      <point x="328" y="10" type="line"/>
      <point x="284" y="10" type="line" smooth="yes"/>
      <point x="206" y="10"/>
      <point x="201" y="13"/>
      <point x="201" y="82" type="curve" smooth="yes"/>
      <point x="201" y="516" type="line"/>
      <point x="607" y="516" type="line"/>
      <point x="607" y="82" type="line" smooth="yes"/>
      <point x="607" y="12"/>
      <point x="603" y="10"/>
      <point x="520" y="10" type="curve" smooth="yes"/>
      <point x="481" y="10" type="line"/>
      <point x="481" y="0" type="line"/>
      <point x="768" y="0" type="line"/>
      <point x="768" y="10" type="line"/>
      <point x="717" y="10" type="line" smooth="yes"/>
      <point x="638" y="10"/>
      <point x="635" y="12"/>
      <point x="635" y="82" type="curve" smooth="yes"/>
      <point x="635" y="270" type="line"/>
      <point x="657" y="273"/>
      <point x="694" y="285"/>
      <point x="741" y="285" type="curve" smooth="yes"/>
      <point x="936" y="285"/>
      <point x="950" y="173"/>
      <point x="950" y="45" type="curve" smooth="yes"/>
      <point x="950" y="-121"/>
      <point x="879" y="-230"/>
      <point x="742" y="-230" type="curve" smooth="yes"/>
      <point x="692" y="-230"/>
      <point x="635" y="-218"/>
      <point x="635" y="-107" type="curve"/>
      <point x="620" y="-107"/>
      <point x="602" y="-123"/>
      <point x="602" y="-156" type="curve" smooth="yes"/>
      <point x="602" y="-234"/>
      <point x="678" y="-240"/>
    </contour>
  </outline>
</glyph>
<glyph name="uni04A8" format="2">
  <advance width="856"/>
  <unicode hex="04A8"/>
  <anchor x="428" y="0" name="bottom"/>
  <anchor x="428" y="714" name="top"/>
  <outline>
    <contour>
      <point x="719" y="-38" type="curve" smooth="yes"/>
      <point x="778" y="-38"/>
      <point x="799" y="-15"/>
      <point x="799" y="-2" type="curve" smooth="yes"/>
      <point x="799" y="1"/>
      <point x="797" y="7"/>
      <point x="783" y="13" type="curve"/>
      <point x="779" y="-7"/>
      <point x="750" y="-28"/>
      <point x="714" y="-28" type="curve" smooth="yes"/>
      <point x="676" y="-28"/>
      <point x="610" y="-4"/>
      <point x="580" y="36" type="curve"/>
      <point x="696" y="99"/>
      <point x="777" y="212"/>
      <point x="777" y="336" type="curve" smooth="yes"/>
      <point x="777" y="533"/>
      <point x="712" y="589"/>
      <point x="611" y="589" type="curve" smooth="yes"/>
      <point x="529" y="589"/>
      <point x="441" y="521"/>
      <point x="441" y="312" type="curve" smooth="yes"/>
      <point x="441" y="195"/>
      <point x="505" y="106"/>
      <point x="562" y="43" type="curve"/>
      <point x="523" y="32"/>
      <point x="460" y="0"/>
      <point x="414" y="0" type="curve" smooth="yes"/>
      <point x="224" y="0"/>
      <point x="98" y="123"/>
      <point x="98" y="358" type="curve" smooth="yes"/>
      <point x="98" y="579"/>
      <point x="232" y="715"/>
      <point x="391" y="715" type="curve" smooth="yes"/>
      <point x="421" y="715"/>
      <point x="444" y="707"/>
      <point x="468" y="674" type="curve"/>
      <point x="473" y="678"/>
      <point x="477" y="682"/>
      <point x="477" y="691" type="curve" smooth="yes"/>
      <point x="477" y="709"/>
      <point x="449" y="725"/>
      <point x="387" y="725" type="curve" smooth="yes"/>
      <point x="212" y="725"/>
      <point x="72" y="555"/>
      <point x="72" y="359" type="curve" smooth="yes"/>
      <point x="72" y="54"/>
      <point x="258" y="-10"/>
      <point x="414" y="-10" type="curve" smooth="yes"/>
      <point x="473" y="-10"/>
      <point x="528" y="16"/>
      <point x="572" y="34" type="curve"/>
      <point x="611" y="-4"/>
      <point x="656" y="-38"/>
    </contour>
    <contour>
      <point x="572" y="45" type="curve"/>
      <point x="517" y="95"/>
      <point x="469" y="184"/>
      <point x="469" y="310" type="curve" smooth="yes"/>
      <point x="469" y="530"/>
      <point x="552" y="579"/>
      <point x="610" y="579" type="curve" smooth="yes"/>
      <point x="690" y="579"/>
      <point x="749" y="540"/>
      <point x="749" y="336" type="curve" smooth="yes"/>
      <point x="749" y="187"/>
      <point x="677" y="88"/>
    </contour>
  </outline>
</glyph>
<glyph name="uni04B6" format="2">
  <advance width="900"/>
  <unicode hex="04B6"/>
  <anchor x="450" y="0" name="bottom"/>
  <anchor x="450" y="714" name="top"/>
  <outline>
    <contour>
      <point x="841" y="-210" type="curve"/>
      <point x="851" y="-210" type="line"/>
      <point x="851" y="20" type="line"/>
      <point x="774" y="20" type="line" smooth="yes"/>
      <point x="716" y="20"/>
      <point x="712" y="21"/>
      <point x="712" y="100" type="curve" smooth="yes"/>
      <point x="712" y="614" type="line" smooth="yes"/>
      <point x="712" y="693"/>
      <point x="716" y="704"/>
      <point x="770" y="704" type="curve" smooth="yes"/>
      <point x="832" y="704" type="line"/>
      <point x="832" y="714" type="line"/>
      <point x="561" y="714" type="line"/>
      <point x="561" y="704" type="line"/>
      <point x="626" y="704" type="line" smooth="yes"/>
      <point x="678" y="704"/>
      <point x="684" y="693"/>
      <point x="684" y="614" type="curve" smooth="yes"/>
      <point x="684" y="344" type="line"/>
      <point x="567" y="279"/>
      <point x="474" y="264"/>
      <point x="332" y="264" type="curve" smooth="yes"/>
      <point x="257" y="264"/>
      <point x="200" y="293"/>
      <point x="200" y="402" type="curve" smooth="yes"/>
      <point x="200" y="614" type="line" smooth="yes"/>
      <point x="200" y="693"/>
      <point x="202" y="704"/>
      <point x="260" y="704" type="curve" smooth="yes"/>
      <point x="311" y="704" type="line"/>
      <point x="311" y="714" type="line"/>
      <point x="49" y="714" type="line"/>
      <point x="49" y="704" type="line"/>
      <point x="116" y="704" type="line" smooth="yes"/>
      <point x="164" y="704"/>
      <point x="172" y="693"/>
      <point x="172" y="614" type="curve" smooth="yes"/>
      <point x="172" y="386" type="line" smooth="yes"/>
      <point x="172" y="303"/>
      <point x="227" y="252"/>
      <point x="322" y="252" type="curve" smooth="yes"/>
      <point x="469" y="252"/>
      <point x="567" y="265"/>
      <point x="684" y="333" type="curve"/>
      <point x="684" y="98" type="line" smooth="yes"/>
      <point x="684" y="21"/>
      <point x="678" y="10"/>
      <point x="630" y="10" type="curve" smooth="yes"/>
      <point x="537" y="10" type="line"/>
      <point x="537" y="0" type="line"/>
      <point x="858" y="0" type="line" smooth="yes"/>
      <point x="852" y="0"/>
      <point x="841" y="-34"/>
    </contour>
  </outline>
</glyph>
<glyph name="uni04C4" format="2">
  <advance width="720"/>
  <unicode hex="04C4"/>
  <anchor x="360" y="-240" name="bottom"/>
  <anchor x="360" y="536" name="top"/>
  <outline>
    <contour>
      <point x="442" y="-240" type="curve" smooth="yes"/>
      <point x="585" y="-240"/>
      <point x="661" y="-126"/>
      <point x="661" y="26" type="curve" smooth="yes"/>
      <point x="661" y="213"/>
      <point x="538" y="300"/>
      <point x="349" y="300" type="curve"/>
      <point x="390" y="317"/>
      <point x="410" y="354"/>
      <point x="437" y="396" type="curve" smooth="yes"/>
      <point x="475" y="455"/>
      <point x="522" y="521"/>
      <point x="578" y="521" type="curve" smooth="yes"/>
      <point x="635" y="521"/>
      <point x="643" y="486"/>
      <point x="642" y="433" type="curve"/>
      <point x="663" y="439"/>
      <point x="660" y="461"/>
      <point x="660" y="475" type="curve" smooth="yes"/>
      <point x="660" y="515"/>
      <point x="617" y="542"/>
      <point x="580" y="542" type="curve" smooth="yes"/>
      <point x="516" y="542"/>
      <point x="489" y="531"/>
      <point x="443" y="438" type="curve" smooth="yes"/>
      <point x="405" y="359"/>
      <point x="380" y="292"/>
      <point x="302" y="280" type="curve" smooth="yes"/>
      <point x="278" y="283"/>
      <point x="222" y="280"/>
      <point x="200" y="270" type="curve"/>
      <point x="200" y="454" type="line" smooth="yes"/>
      <point x="200" y="521"/>
      <point x="202" y="526"/>
      <point x="281" y="526" type="curve" smooth="yes"/>
      <point x="311" y="526" type="line"/>
      <point x="311" y="536" type="line"/>
      <point x="41" y="536" type="line"/>
      <point x="41" y="526" type="line"/>
      <point x="112" y="526" type="line" smooth="yes"/>
      <point x="165" y="526"/>
      <point x="172" y="522"/>
      <point x="172" y="454" type="curve" smooth="yes"/>
      <point x="172" y="83" type="line" smooth="yes"/>
      <point x="172" y="12"/>
      <point x="168" y="10"/>
      <point x="85" y="10" type="curve" smooth="yes"/>
      <point x="33" y="10" type="line"/>
      <point x="33" y="0" type="line"/>
      <point x="318" y="0" type="line"/>
      <point x="318" y="10" type="line"/>
      <point x="289" y="10" type="line" smooth="yes"/>
      <point x="204" y="10"/>
      <point x="200" y="12"/>
      <point x="200" y="82" type="curve" smooth="yes"/>
      <point x="200" y="260" type="line"/>
      <point x="229" y="267"/>
      <point x="303" y="290"/>
      <point x="358" y="290" type="curve" smooth="yes"/>
      <point x="525" y="290"/>
      <point x="633" y="179"/>
      <point x="633" y="33" type="curve" smooth="yes"/>
      <point x="633" y="-113"/>
      <point x="578" y="-230"/>
      <point x="445" y="-230" type="curve" smooth="yes"/>
      <point x="381" y="-230"/>
      <point x="314" y="-220"/>
      <point x="314" y="-107" type="curve"/>
      <point x="299" y="-107"/>
      <point x="281" y="-125"/>
      <point x="281" y="-151" type="curve" smooth="yes"/>
      <point x="281" y="-236"/>
      <point x="377" y="-240"/>
    </contour>
  </outline>
</glyph>
<glyph name="uni04C6" format="2">
  <advance width="724"/>
  <unicode hex="04C6"/>
  <anchor x="353" y="0" name="bottom"/>
  <anchor x="363" y="536" name="top"/>
  <outline>
    <contour>
      <point x="569" y="-210" type="line"/>
      <point x="591" y="-210" type="line"/>
      <point x="685" y="0" type="line"/>
      <point x="685" y="10" type="line"/>
      <point x="675" y="10" type="line"/>
      <point x="675" y="0" type="line"/>
    </contour>
    <component base="afii10077"/>
  </outline>
</glyph>
<glyph name="uni0506" format="2">
  <advance width="702"/>
  <unicode hex="0506"/>
  <anchor x="322" y="0" name="bottom"/>
  <anchor x="352" y="714" name="top"/>
  <outline>
    <contour>
      <point x="667" y="-210" type="curve"/>
      <point x="677" y="-210" type="line"/>
      <point x="677" y="20" type="line"/>
      <point x="592" y="20" type="line" smooth="yes"/>
      <point x="548" y="20"/>
      <point x="540" y="21"/>
      <point x="540" y="100" type="curve" smooth="yes"/>
      <point x="540" y="143" type="line" smooth="yes"/>
      <point x="540" y="305"/>
      <point x="488" y="365"/>
      <point x="367" y="372" type="curve"/>
      <point x="489" y="383"/>
      <point x="529" y="448"/>
      <point x="529" y="551" type="curve" smooth="yes"/>
      <point x="529" y="641"/>
      <point x="466" y="727"/>
      <point x="292" y="727" type="curve" smooth="yes"/>
      <point x="169" y="727"/>
      <point x="49" y="696"/>
      <point x="49" y="604" type="curve" smooth="yes"/>
      <point x="49" y="588"/>
      <point x="57" y="565"/>
      <point x="87" y="565" type="curve"/>
      <point x="87" y="657"/>
      <point x="140" y="717"/>
      <point x="290" y="717" type="curve" smooth="yes"/>
      <point x="440" y="717"/>
      <point x="501" y="640"/>
      <point x="501" y="544" type="curve" smooth="yes"/>
      <point x="501" y="419"/>
      <point x="443" y="377"/>
      <point x="303" y="377" type="curve" smooth="yes"/>
      <point x="194" y="377" type="line"/>
      <point x="194" y="367" type="line"/>
      <point x="305" y="367" type="line" smooth="yes"/>
      <point x="436" y="367"/>
      <point x="512" y="320"/>
      <point x="512" y="157" type="curve" smooth="yes"/>
      <point x="512" y="0" type="line"/>
      <point x="668" y="0" type="line" smooth="yes"/>
      <point x="671" y="0"/>
      <point x="667" y="-9"/>
    </contour>
  </outline>
</glyph>
<glyph name="uni0518" format="2">
  <advance width="1077"/>
  <unicode hex="0518"/>
  <anchor x="539" y="0" name="bottom"/>
  <anchor x="539" y="714" name="top"/>
  <outline>
    <contour>
      <point x="0" y="0" type="line"/>
      <point x="41" y="0" type="line" smooth="yes"/>
      <point x="82" y="0"/>
      <point x="105" y="8"/>
      <point x="135" y="31" type="curve" smooth="yes"/>
      <point x="362" y="301" type="line"/>
      <point x="538" y="301" type="line"/>
      <point x="538" y="94" type="line" smooth="yes"/>
      <point x="538" y="21"/>
      <point x="528" y="10"/>
      <point x="490" y="10" type="curve" smooth="yes"/>
      <point x="421" y="10" type="line"/>
      <point x="421" y="0" type="line"/>
      <point x="998" y="0" type="line"/>
      <point x="1008" y="162" type="line"/>
      <point x="998" y="162" type="line"/>
      <point x="994" y="90" type="line" smooth="yes"/>
      <point x="991" y="39"/>
      <point x="977" y="9"/>
      <point x="920" y="9" type="curve" smooth="yes"/>
      <point x="564" y="9" type="line"/>
      <point x="564" y="370" type="line"/>
      <point x="871" y="370" type="line"/>
      <point x="871" y="380" type="line"/>
      <point x="564" y="380" type="line"/>
      <point x="564" y="704" type="line"/>
      <point x="899" y="704" type="line" smooth="yes"/>
      <point x="939" y="704"/>
      <point x="948" y="677"/>
      <point x="951" y="613" type="curve" smooth="yes"/>
      <point x="955" y="552" type="line"/>
      <point x="965" y="552" type="line"/>
      <point x="956" y="714" type="line"/>
      <point x="461" y="714" type="line" smooth="yes"/>
      <point x="279" y="714"/>
      <point x="154" y="661"/>
      <point x="154" y="512" type="curve" smooth="yes"/>
      <point x="154" y="407"/>
      <point x="191" y="327"/>
      <point x="328" y="306" type="curve"/>
      <point x="152" y="106" type="line" smooth="yes"/>
      <point x="55" y="-23"/>
      <point x="55" y="10"/>
      <point x="21" y="10" type="curve" smooth="yes"/>
      <point x="0" y="10" type="line"/>
    </contour>
    <contour>
      <point x="451" y="311" type="line" smooth="yes"/>
      <point x="267" y="311"/>
      <point x="182" y="345"/>
      <point x="182" y="512" type="curve" smooth="yes"/>
      <point x="182" y="646"/>
      <point x="266" y="704"/>
      <point x="451" y="704" type="curve" smooth="yes"/>
      <point x="538" y="704" type="line"/>
      <point x="538" y="311" type="line"/>
    </contour>
  </outline>
</glyph>
<glyph name="uni051F" format="2">
  <advance width="666"/>
  <unicode hex="051F"/>
  <anchor x="334" y="0" name="bottom"/>
  <anchor x="334" y="536" name="top"/>
  <outline>
    <contour>
      <point x="547" y="293" type="line"/>
      <point x="552" y="303" type="line"/>
      <point x="321" y="456" type="line"/>
      <point x="315" y="446" type="line"/>
    </contour>
    <component base="afii10076"/>
  </outline>
</glyph>
<glyph name="uni0525" format="2">
  <advance width="830"/>
  <unicode hex="0525"/>
  <anchor x="405" y="0" name="bottom"/>
  <anchor x="415" y="536" name="top"/>
  <outline>
    <contour>
      <point x="780" y="-210" type="line"/>
      <point x="790" y="-210" type="line"/>
      <point x="790" y="20" type="line"/>
      <point x="691" y="20" type="line" smooth="yes"/>
      <point x="659" y="20"/>
      <point x="655" y="22"/>
      <point x="655" y="82" type="curve" smooth="yes"/>
      <point x="655" y="452" type="line" smooth="yes"/>
      <point x="655" y="520"/>
      <point x="659" y="524"/>
      <point x="743" y="524" type="curve" smooth="yes"/>
      <point x="788" y="524" type="line"/>
      <point x="788" y="536" type="line"/>
      <point x="41" y="536" type="line"/>
      <point x="41" y="526" type="line"/>
      <point x="92" y="526" type="line" smooth="yes"/>
      <point x="169" y="526"/>
      <point x="173" y="522"/>
      <point x="173" y="454" type="curve" smooth="yes"/>
      <point x="173" y="82" type="line" smooth="yes"/>
      <point x="173" y="13"/>
      <point x="169" y="10"/>
      <point x="86" y="10" type="curve" smooth="yes"/>
      <point x="41" y="10" type="line"/>
      <point x="41" y="0" type="line"/>
      <point x="328" y="0" type="line"/>
      <point x="328" y="10" type="line"/>
      <point x="284" y="10" type="line" smooth="yes"/>
      <point x="206" y="10"/>
      <point x="201" y="13"/>
      <point x="201" y="82" type="curve" smooth="yes"/>
      <point x="201" y="516" type="line"/>
      <point x="627" y="516" type="line"/>
      <point x="627" y="82" type="line" smooth="yes"/>
      <point x="627" y="12"/>
      <point x="623" y="10"/>
      <point x="540" y="10" type="curve" smooth="yes"/>
      <point x="501" y="10" type="line"/>
      <point x="501" y="0" type="line"/>
      <point x="805" y="0" type="line" smooth="yes"/>
      <point x="764" y="0"/>
      <point x="763" y="18"/>
      <point x="763" y="82" type="curve" smooth="yes"/>
    </contour>
  </outline>
</glyph>
<glyph name="uni0529" format="2">
  <advance width="855"/>
  <unicode hex="0529"/>
  <anchor x="427" y="-240" name="bottom"/>
  <anchor x="427" y="536" name="top"/>
  <outline>
    <contour>
      <point x="4" y="-240" type="line"/>
      <point x="21" y="-240" type="line" smooth="yes"/>
      <point x="129" y="-240"/>
      <point x="201" y="-222"/>
      <point x="201" y="-44" type="curve" smooth="yes"/>
      <point x="201" y="270" type="line"/>
      <point x="656" y="270" type="line"/>
      <point x="656" y="82" type="line" smooth="yes"/>
      <point x="656" y="12"/>
      <point x="652" y="10"/>
      <point x="569" y="10" type="curve" smooth="yes"/>
      <point x="530" y="10" type="line"/>
      <point x="530" y="0" type="line"/>
      <point x="817" y="0" type="line"/>
      <point x="817" y="10" type="line"/>
      <point x="766" y="10" type="line" smooth="yes"/>
      <point x="687" y="10"/>
      <point x="684" y="12"/>
      <point x="684" y="82" type="curve" smooth="yes"/>
      <point x="684" y="454" type="line" smooth="yes"/>
      <point x="684" y="522"/>
      <point x="686" y="526"/>
      <point x="770" y="526" type="curve" smooth="yes"/>
      <point x="817" y="526" type="line"/>
      <point x="817" y="536" type="line"/>
      <point x="530" y="536" type="line"/>
      <point x="530" y="526" type="line"/>
      <point x="571" y="526" type="line" smooth="yes"/>
      <point x="654" y="526"/>
      <point x="656" y="522"/>
      <point x="656" y="454" type="curve" smooth="yes"/>
      <point x="656" y="280" type="line"/>
      <point x="201" y="280" type="line"/>
      <point x="201" y="454" type="line" smooth="yes"/>
      <point x="201" y="522"/>
      <point x="203" y="526"/>
      <point x="287" y="526" type="curve" smooth="yes"/>
      <point x="328" y="526" type="line"/>
      <point x="328" y="536" type="line"/>
      <point x="41" y="536" type="line"/>
      <point x="41" y="526" type="line"/>
      <point x="88" y="526" type="line" smooth="yes"/>
      <point x="171" y="526"/>
      <point x="173" y="522"/>
      <point x="173" y="454" type="curve" smooth="yes"/>
      <point x="173" y="-71" type="line" smooth="yes"/>
      <point x="173" y="-216"/>
      <point x="118" y="-230"/>
      <point x="15" y="-230" type="curve" smooth="yes"/>
      <point x="4" y="-230" type="line"/>
    </contour>
  </outline>
</glyph>
<glyph name="uni1C83" format="2">
  <advance width="555"/>
  <unicode hex="1C83"/>
  <anchor x="281" y="0" name="bottom"/>
  <anchor x="281" y="536" name="top"/>
  <outline>
    <contour>
      <point x="345" y="-10" type="curve" smooth="yes"/>
      <point x="440" y="-10"/>
      <point x="504" y="20"/>
      <point x="504" y="50" type="curve" smooth="yes"/>
      <point x="504" y="67"/>
      <point x="499" y="77"/>
      <point x="493" y="80" type="curve"/>
      <point x="477" y="18"/>
      <point x="419" y="0"/>
      <point x="339" y="0" type="curve" smooth="yes"/>
      <point x="210" y="0"/>
      <point x="108" y="106"/>
      <point x="108" y="277" type="curve" smooth="yes"/>
      <point x="108" y="493"/>
      <point x="240" y="532"/>
      <point x="339" y="532" type="curve" smooth="yes"/>
      <point x="440" y="532"/>
      <point x="481" y="500"/>
      <point x="481" y="418" type="curve"/>
      <point x="508" y="418"/>
      <point x="517" y="440"/>
      <point x="517" y="456" type="curve" smooth="yes"/>
      <point x="517" y="521"/>
      <point x="439" y="542"/>
      <point x="347" y="542" type="curve" smooth="yes"/>
      <point x="216" y="542"/>
      <point x="80" y="472"/>
      <point x="80" y="274" type="curve" smooth="yes"/>
      <point x="80" y="124"/>
      <point x="156" y="-10"/>
    </contour>
  </outline>
</glyph>
<glyph name="uni1C86" format="2">
  <advance width="741"/>
  <unicode hex="1C86"/>
  <anchor x="370" y="0" name="bottom"/>
  <anchor x="370" y="760" name="top"/>
  <outline>
    <contour>
      <point x="106" y="0" type="line"/>
      <point x="466" y="0" type="line" smooth="yes"/>
      <point x="613" y="0"/>
      <point x="674" y="71"/>
      <point x="674" y="162" type="curve" smooth="yes"/>
      <point x="674" y="267"/>
      <point x="585" y="293"/>
      <point x="467" y="293" type="curve" smooth="yes"/>
      <point x="276" y="293" type="line"/>
      <point x="276" y="670" type="line" smooth="yes"/>
      <point x="276" y="748"/>
      <point x="280" y="750"/>
      <point x="363" y="750" type="curve" smooth="yes"/>
      <point x="398" y="750" type="line"/>
      <point x="398" y="760" type="line"/>
      <point x="11" y="760" type="line"/>
      <point x="3" y="610" type="line"/>
      <point x="13" y="610" type="line"/>
      <point x="26" y="740" type="line" smooth="yes"/>
      <point x="30" y="730"/>
      <point x="41" y="740"/>
      <point x="71" y="740" type="curve" smooth="yes"/>
      <point x="248" y="740" type="line"/>
      <point x="248" y="82" type="line" smooth="yes"/>
      <point x="248" y="14"/>
      <point x="250" y="10"/>
      <point x="165" y="10" type="curve" smooth="yes"/>
      <point x="106" y="10" type="line"/>
    </contour>
    <contour>
      <point x="276" y="10" type="line"/>
      <point x="276" y="283" type="line"/>
      <point x="448" y="283" type="line" smooth="yes"/>
      <point x="595" y="283"/>
      <point x="646" y="245"/>
      <point x="646" y="162" type="curve" smooth="yes"/>
      <point x="646" y="56"/>
      <point x="596" y="10"/>
      <point x="411" y="10" type="curve" smooth="yes"/>
    </contour>
  </outline>
</glyph>
<glyph name="uni1D04" format="2">
  <advance width="598"/>
  <unicode hex="1D04"/>
  <anchor x="299" y="0" name="bottom"/>
  <anchor x="299" y="536" name="top"/>
  <outline>
    <contour>
      <point x="340" y="-10" type="curve" smooth="yes"/>
      <point x="471" y="-10"/>
      <point x="523" y="53"/>
      <point x="523" y="44" type="curve" smooth="yes"/>
      <point x="523" y="59"/>
      <point x="512" y="69"/>
      <point x="498" y="66" type="curve"/>
      <point x="479" y="12"/>
      <point x="431" y="0"/>
      <point x="338" y="0" type="curve" smooth="yes"/>
      <point x="171" y="0"/>
      <point x="101" y="119"/>
      <point x="101" y="270" type="curve" smooth="yes"/>
      <point x="101" y="395"/>
      <point x="180" y="532"/>
      <point x="335" y="532" type="curve" smooth="yes"/>
      <point x="481" y="532"/>
      <point x="506" y="489"/>
      <point x="506" y="436" type="curve"/>
      <point x="515" y="436"/>
      <point x="534" y="444"/>
      <point x="534" y="469" type="curve" smooth="yes"/>
      <point x="534" y="487"/>
      <point x="489" y="542"/>
      <point x="343" y="542" type="curve" smooth="yes"/>
      <point x="159" y="542"/>
      <point x="73" y="399"/>
      <point x="73" y="271" type="curve" smooth="yes"/>
      <point x="73" y="131"/>
      <point x="147" y="-10"/>
    </contour>
  </outline>
</glyph>
<glyph name="uni1D10" format="2">
  <advance width="643"/>
  <unicode hex="1D10"/>
  <anchor x="322" y="0" name="bottom"/>
  <anchor x="322" y="536" name="top"/>
  <outline>
    <contour>
      <point x="283" y="-10" type="curve" smooth="yes"/>
      <point x="473" y="-10"/>
      <point x="561" y="132"/>
      <point x="561" y="261" type="curve" smooth="yes"/>
      <point x="561" y="401"/>
      <point x="474" y="542"/>
      <point x="277" y="542" type="curve" smooth="yes"/>
      <point x="144" y="542"/>
      <point x="90" y="468"/>
      <point x="90" y="479" type="curve" smooth="yes"/>
      <point x="90" y="476"/>
      <point x="94" y="474"/>
      <point x="102" y="476" type="curve"/>
      <point x="132" y="512"/>
      <point x="191" y="532"/>
      <point x="281" y="532" type="curve" smooth="yes"/>
      <point x="450" y="532"/>
      <point x="533" y="411"/>
      <point x="533" y="262" type="curve" smooth="yes"/>
      <point x="533" y="138"/>
      <point x="452" y="0"/>
      <point x="295" y="0" type="curve" smooth="yes"/>
      <point x="143" y="0"/>
      <point x="116" y="42"/>
      <point x="116" y="96" type="curve"/>
      <point x="101" y="96"/>
      <point x="90" y="78"/>
      <point x="90" y="64" type="curve" smooth="yes"/>
      <point x="90" y="46"/>
      <point x="137" y="-10"/>
    </contour>
  </outline>
</glyph>
<glyph name="uni1D19" format="2">
  <advance width="770"/>
  <unicode hex="1D19"/>
  <anchor x="385" y="0" name="bottom"/>
  <anchor x="385" y="536" name="top"/>
  <outline>
    <contour>
      <point x="34" y="0" type="line"/>
      <point x="50" y="0" type="line" smooth="yes"/>
      <point x="134" y="0"/>
      <point x="138" y="-1"/>
      <point x="189" y="67" type="curve" smooth="yes"/>
      <point x="331" y="244" type="line"/>
      <point x="555" y="244" type="line"/>
      <point x="555" y="82" type="line" smooth="yes"/>
      <point x="555" y="12"/>
      <point x="553" y="10"/>
      <point x="493" y="10" type="curve" smooth="yes"/>
      <point x="428" y="10" type="line"/>
      <point x="428" y="0" type="line"/>
      <point x="704" y="0" type="line"/>
      <point x="704" y="10" type="line"/>
      <point x="648" y="10" type="line" smooth="yes"/>
      <point x="583" y="10"/>
      <point x="583" y="12"/>
      <point x="583" y="82" type="curve" smooth="yes"/>
      <point x="583" y="454" type="line" smooth="yes"/>
      <point x="583" y="522"/>
      <point x="583" y="526"/>
      <point x="630" y="526" type="curve" smooth="yes"/>
      <point x="702" y="526" type="line"/>
      <point x="702" y="536" type="line"/>
      <point x="329" y="536" type="line" smooth="yes"/>
      <point x="174" y="536"/>
      <point x="108" y="497"/>
      <point x="108" y="404" type="curve" smooth="yes"/>
      <point x="108" y="335"/>
      <point x="141" y="272"/>
      <point x="295" y="248" type="curve"/>
      <point x="172" y="95" type="line" smooth="yes"/>
      <point x="99" y="-7"/>
      <point x="83" y="10"/>
      <point x="34" y="10" type="curve"/>
    </contour>
    <contour>
      <point x="354" y="254" type="line" smooth="yes"/>
      <point x="210" y="254"/>
      <point x="136" y="304"/>
      <point x="136" y="396" type="curve" smooth="yes"/>
      <point x="136" y="480"/>
      <point x="209" y="526"/>
      <point x="331" y="526" type="curve" smooth="yes"/>
      <point x="555" y="526" type="line"/>
      <point x="555" y="254" type="line"/>
    </contour>
  </outline>
</glyph>
<glyph name="uni1D20" format="2">
  <advance width="661"/>
  <unicode hex="1D20"/>
  <anchor x="369" y="0" name="bottom"/>
  <anchor x="369" y="536" name="top"/>
  <outline>
    <contour>
      <point x="326" y="0" type="line"/>
      <point x="331" y="0" type="line"/>
      <point x="562" y="482" type="line" smooth="yes"/>
      <point x="578" y="511"/>
      <point x="578" y="526"/>
      <point x="624" y="526" type="curve" smooth="yes"/>
      <point x="651" y="526" type="line"/>
      <point x="651" y="536" type="line"/>
      <point x="470" y="536" type="line"/>
      <point x="470" y="526" type="line"/>
      <point x="493" y="526" type="line" smooth="yes"/>
      <point x="555" y="526"/>
      <point x="560" y="527"/>
      <point x="560" y="508" type="curve" smooth="yes"/>
      <point x="560" y="500"/>
      <point x="554" y="504"/>
      <point x="560" y="541" type="curve" smooth="yes"/>
      <point x="403" y="170" type="line" smooth="yes"/>
      <point x="378" y="129"/>
      <point x="358" y="89"/>
      <point x="340" y="52" type="curve"/>
      <point x="338" y="52" type="line"/>
      <point x="324" y="70"/>
      <point x="310" y="89"/>
      <point x="276" y="162" type="curve" smooth="yes"/>
      <point x="126" y="503" type="line" smooth="yes"/>
      <point x="122" y="503"/>
      <point x="122" y="496"/>
      <point x="122" y="504" type="curve" smooth="yes"/>
      <point x="122" y="523"/>
      <point x="135" y="526"/>
      <point x="165" y="526" type="curve" smooth="yes"/>
      <point x="244" y="526" type="line"/>
      <point x="244" y="536" type="line"/>
      <point x="13" y="536" type="line"/>
      <point x="13" y="526" type="line"/>
      <point x="53" y="526" type="line" smooth="yes"/>
      <point x="73" y="526"/>
      <point x="77" y="519"/>
      <point x="90" y="494" type="curve" smooth="yes"/>
    </contour>
  </outline>
</glyph>
<glyph name="uni1D26" format="2">
  <advance width="574"/>
  <unicode hex="1D26"/>
  <outline>
    <contour>
      <point x="50" y="0" type="line"/>
      <point x="313" y="0" type="line"/>
      <point x="313" y="10" type="line"/>
      <point x="262" y="10" type="line" smooth="yes"/>
      <point x="179" y="10"/>
      <point x="181" y="12"/>
      <point x="181" y="82" type="curve" smooth="yes"/>
      <point x="181" y="518" type="line"/>
      <point x="415" y="518" type="line" smooth="yes"/>
      <point x="475" y="518"/>
      <point x="489" y="518"/>
      <point x="493" y="498" type="curve" smooth="yes"/>
      <point x="499" y="399" type="line"/>
      <point x="509" y="399" type="line"/>
      <point x="502" y="536" type="line"/>
      <point x="50" y="536" type="line"/>
      <point x="50" y="526" type="line"/>
      <point x="95" y="526" type="line" smooth="yes"/>
      <point x="149" y="526"/>
      <point x="153" y="522"/>
      <point x="153" y="454" type="curve" smooth="yes"/>
      <point x="153" y="82" type="line" smooth="yes"/>
      <point x="153" y="12"/>
      <point x="149" y="10"/>
      <point x="95" y="10" type="curve" smooth="yes"/>
      <point x="50" y="10" type="line"/>
    </contour>
  </outline>
</glyph>
<glyph name="uni1D27" format="2">
  <advance width="726"/>
  <unicode hex="1D27"/>
  <outline>
    <contour>
      <point x="-6" y="0" type="line"/>
      <point x="211" y="0" type="line"/>
      <point x="211" y="10" type="line"/>
      <point x="152" y="10" type="line" smooth="yes"/>
      <point x="104" y="10"/>
      <point x="102" y="19"/>
      <point x="102" y="30" type="curve" smooth="yes"/>
      <point x="102" y="68"/>
      <point x="130" y="116"/>
      <point x="176" y="233" type="curve" smooth="yes"/>
      <point x="248" y="338" type="line" smooth="yes"/>
      <point x="296" y="428"/>
      <point x="327" y="504"/>
      <point x="334" y="494" type="curve"/>
      <point x="336" y="494" type="line"/>
      <point x="346" y="472"/>
      <point x="387" y="390"/>
      <point x="408" y="351" type="curve" smooth="yes"/>
      <point x="515" y="121" type="line" smooth="yes"/>
      <point x="529" y="93"/>
      <point x="553" y="54"/>
      <point x="553" y="34" type="curve" smooth="yes"/>
      <point x="553" y="21"/>
      <point x="553" y="10"/>
      <point x="503" y="10" type="curve" smooth="yes"/>
      <point x="452" y="10" type="line"/>
      <point x="452" y="0" type="line"/>
      <point x="690" y="0" type="line"/>
      <point x="690" y="10" type="line"/>
      <point x="678" y="10" type="line" smooth="yes"/>
      <point x="618" y="10"/>
      <point x="616" y="12"/>
      <point x="594" y="58" type="curve" smooth="yes"/>
      <point x="360" y="536" type="line"/>
      <point x="355" y="536" type="line"/>
      <point x="111" y="58" type="line" smooth="yes"/>
      <point x="88" y="13"/>
      <point x="89" y="10"/>
      <point x="18" y="10" type="curve" smooth="yes"/>
      <point x="-6" y="10" type="line"/>
    </contour>
  </outline>
</glyph>
<glyph name="uni1D2B" format="2">
  <advance width="726"/>
  <unicode hex="1D2B"/>
  <outline>
    <contour>
      <point x="102" y="-3" type="curve" smooth="yes"/>
      <point x="182" y="-3"/>
      <point x="216" y="56"/>
      <point x="237" y="52" type="curve" smooth="yes"/>
      <point x="277" y="149"/>
      <point x="322" y="376"/>
      <point x="335" y="526" type="curve"/>
      <point x="544" y="526" type="line"/>
      <point x="544" y="82" type="line" smooth="yes"/>
      <point x="544" y="12"/>
      <point x="544" y="10"/>
      <point x="492" y="10" type="curve" smooth="yes"/>
      <point x="445" y="10" type="line"/>
      <point x="445" y="0" type="line"/>
      <point x="670" y="0" type="line"/>
      <point x="670" y="10" type="line"/>
      <point x="625" y="10" type="line" smooth="yes"/>
      <point x="572" y="10"/>
      <point x="572" y="12"/>
      <point x="572" y="82" type="curve" smooth="yes"/>
      <point x="572" y="464" type="line" smooth="yes"/>
      <point x="572" y="522"/>
      <point x="572" y="526"/>
      <point x="611" y="526" type="curve" smooth="yes"/>
      <point x="670" y="526" type="line"/>
      <point x="670" y="536" type="line"/>
      <point x="201" y="536" type="line"/>
      <point x="201" y="526" type="line"/>
      <point x="302" y="526" type="line" smooth="yes"/>
      <point x="319" y="526"/>
      <point x="319" y="510"/>
      <point x="319" y="493" type="curve" smooth="yes"/>
      <point x="319" y="402"/>
      <point x="271" y="160"/>
      <point x="232" y="66" type="curve" smooth="yes"/>
      <point x="202" y="26"/>
      <point x="181" y="24"/>
      <point x="124" y="24" type="curve" smooth="yes"/>
      <point x="93" y="24"/>
      <point x="52" y="44"/>
      <point x="40" y="65" type="curve"/>
      <point x="36" y="67"/>
      <point x="23" y="57"/>
      <point x="23" y="48" type="curve" smooth="yes"/>
      <point x="23" y="14"/>
      <point x="62" y="-3"/>
    </contour>
  </outline>
</glyph>
<glyph name="uni1D8F" format="2">
  <advance width="634"/>
  <unicode hex="1D8F"/>
  <anchor x="318" y="536" name="top"/>
  <anchor x="614" y="536" name="topright"/>
  <anchor x="308" y="0" name="bottom"/>
  <outline>
    <contour>
      <point x="631" y="-199" type="curve" smooth="yes"/>
      <point x="668" y="-199"/>
      <point x="690" y="-189"/>
      <point x="690" y="-172" type="curve" smooth="yes"/>
      <point x="690" y="-169"/>
      <point x="684" y="-165"/>
      <point x="676" y="-161" type="curve"/>
      <point x="664" y="-175"/>
      <point x="652" y="-176"/>
      <point x="635" y="-176" type="curve" smooth="yes"/>
      <point x="593" y="-176"/>
      <point x="572" y="-156"/>
      <point x="572" y="-101" type="curve" smooth="yes"/>
      <point x="572" y="4" type="line"/>
      <point x="562" y="4" type="line"/>
      <point x="562" y="-116" type="line" smooth="yes"/>
      <point x="562" y="-180"/>
      <point x="586" y="-199"/>
    </contour>
    <component base="a"/>
  </outline>
</glyph>
<glyph name="uni1D92" format="2">
  <advance width="599"/>
  <unicode hex="1D92"/>
  <anchor x="310" y="536" name="top"/>
  <anchor x="579" y="536" name="topright"/>
  <anchor x="310" y="0" name="bottom"/>
  <outline>
    <contour>
      <point x="578" y="-199" type="curve" smooth="yes"/>
      <point x="615" y="-199"/>
      <point x="637" y="-189"/>
      <point x="637" y="-172" type="curve" smooth="yes"/>
      <point x="637" y="-169"/>
      <point x="631" y="-165"/>
      <point x="623" y="-161" type="curve"/>
      <point x="611" y="-175"/>
      <point x="599" y="-176"/>
      <point x="582" y="-176" type="curve" smooth="yes"/>
      <point x="540" y="-176"/>
      <point x="519" y="-156"/>
      <point x="519" y="-101" type="curve" smooth="yes"/>
      <point x="519" y="91" type="line"/>
      <point x="509" y="91" type="line"/>
      <point x="509" y="-116" type="line" smooth="yes"/>
      <point x="509" y="-180"/>
      <point x="533" y="-199"/>
    </contour>
    <component base="e"/>
  </outline>
</glyph>
<glyph name="uni1D93" format="2">
  <advance width="554"/>
  <unicode hex="1D93"/>
  <anchor x="281" y="536" name="top"/>
  <anchor x="281" y="0" name="bottom"/>
  <outline>
    <contour>
      <point x="569" y="-199" type="curve" smooth="yes"/>
      <point x="606" y="-199"/>
      <point x="628" y="-189"/>
      <point x="628" y="-172" type="curve" smooth="yes"/>
      <point x="628" y="-169"/>
      <point x="622" y="-165"/>
      <point x="614" y="-161" type="curve"/>
      <point x="602" y="-175"/>
      <point x="590" y="-176"/>
      <point x="573" y="-176" type="curve" smooth="yes"/>
      <point x="531" y="-176"/>
      <point x="510" y="-156"/>
      <point x="510" y="-101" type="curve" smooth="yes"/>
      <point x="510" y="90" type="line"/>
      <point x="500" y="90" type="line"/>
      <point x="500" y="-116" type="line" smooth="yes"/>
      <point x="500" y="-180"/>
      <point x="524" y="-199"/>
    </contour>
    <component base="uni025B"/>
  </outline>
</glyph>
<glyph name="macronbreve" format="2">
  <unicode hex="1DCC"/>
  <anchor x="-154" y="536" name="_top"/>
  <anchor x="-154" y="699" name="top"/>
  <outline>
    <contour>
      <point x="15" y="620" type="curve" smooth="yes"/>
      <point x="80" y="620"/>
      <point x="138" y="656"/>
      <point x="151" y="699" type="curve"/>
      <point x="141" y="699" type="line"/>
      <point x="123" y="673"/>
      <point x="83" y="654"/>
      <point x="15" y="654" type="curve" smooth="yes"/>
      <point x="-48" y="654"/>
      <point x="-92" y="671"/>
      <point x="-113" y="699" type="curve"/>
      <point x="-123" y="699" type="line"/>
      <point x="-110" y="657"/>
      <point x="-53" y="620"/>
    </contour>
    <contour>
      <point x="-460" y="679" type="line"/>
      <point x="-113" y="679" type="line"/>
      <point x="-113" y="699" type="line"/>
      <point x="-460" y="699" type="line"/>
    </contour>
  </outline>
</glyph>
<glyph name="isbelowcomb" format="2">
  <unicode hex="1DD0"/>
  <anchor x="0" y="0" name="_bottom"/>
  <anchor x="0" y="-255" name="bottom"/>
  <outline>
    <contour>
      <point x="102" y="-256" type="curve" smooth="yes"/>
      <point x="148" y="-256"/>
      <point x="195" y="-230"/>
      <point x="195" y="-176" type="curve" smooth="yes"/>
      <point x="195" y="-144"/>
      <point x="179" y="-118"/>
      <point x="153" y="-96" type="curve"/>
      <point x="143" y="-96" type="line"/>
      <point x="169" y="-117"/>
      <point x="188" y="-144"/>
      <point x="188" y="-175" type="curve" smooth="yes"/>
      <point x="188" y="-216"/>
      <point x="151" y="-234"/>
      <point x="112" y="-234" type="curve" smooth="yes"/>
      <point x="65" y="-234"/>
      <point x="42" y="-222"/>
      <point x="-3" y="-196" type="curve" smooth="yes"/>
      <point x="-39" y="-175"/>
      <point x="-65" y="-167"/>
      <point x="-90" y="-167" type="curve" smooth="yes"/>
      <point x="-118" y="-167"/>
      <point x="-146" y="-176"/>
      <point x="-172" y="-204" type="curve"/>
      <point x="-101" y="0" type="line"/>
      <point x="-113" y="0" type="line"/>
      <point x="-195" y="-246" type="line"/>
      <point x="-185" y="-246" type="line"/>
      <point x="-170" y="-208"/>
      <point x="-135" y="-193"/>
      <point x="-96" y="-193" type="curve" smooth="yes"/>
      <point x="-68" y="-193"/>
      <point x="-50" y="-201"/>
      <point x="-11" y="-222" type="curve" smooth="yes"/>
      <point x="25" y="-242"/>
      <point x="52" y="-256"/>
    </contour>
  </outline>
</glyph>
<glyph name="uni1FCD" format="2">
  <advance width="497"/>
  <unicode hex="1FCD"/>
  <anchor x="250" y="536" name="_top"/>
  <anchor x="250" y="730" name="top"/>
  <outline>
    <contour>
      <point x="125" y="547" type="line"/>
      <point x="199" y="572"/>
      <point x="216" y="597"/>
      <point x="216" y="661" type="curve" smooth="yes"/>
      <point x="216" y="709"/>
      <point x="200" y="730"/>
      <point x="178" y="730" type="curve" smooth="yes"/>
      <point x="155" y="730"/>
      <point x="144" y="716"/>
      <point x="144" y="691" type="curve" smooth="yes"/>
      <point x="144" y="638"/>
      <point x="200" y="669"/>
      <point x="200" y="621" type="curve" smooth="yes"/>
      <point x="200" y="605"/>
      <point x="179" y="573"/>
      <point x="125" y="559" type="curve"/>
    </contour>
    <contour>
      <point x="364" y="573" type="curve"/>
      <point x="374" y="573" type="line"/>
      <point x="374" y="588" type="line"/>
      <point x="349" y="636"/>
      <point x="340" y="675"/>
      <point x="335" y="713" type="curve"/>
      <point x="285" y="713" type="line"/>
      <point x="285" y="701" type="line"/>
      <point x="298" y="670"/>
      <point x="324" y="633"/>
    </contour>
  </outline>
</glyph>
<glyph name="quotesinglbase" format="2">
  <advance width="267"/>
  <unicode hex="201A"/>
  <outline>
    <contour>
      <point x="68" y="-105" type="line"/>
      <point x="139" y="-90"/>
      <point x="178" y="-18"/>
      <point x="178" y="39" type="curve" smooth="yes"/>
      <point x="178" y="81"/>
      <point x="163" y="97"/>
      <point x="139" y="97" type="curve" smooth="yes"/>
      <point x="125" y="97"/>
      <point x="115" y="87"/>
      <point x="115" y="62" type="curve" smooth="yes"/>
      <point x="115" y="41"/>
      <point x="158" y="24"/>
      <point x="158" y="12" type="curve" smooth="yes"/>
      <point x="158" y="-17"/>
      <point x="118" y="-89"/>
      <point x="68" y="-94" type="curve"/>
    </contour>
  </outline>
</glyph>
<glyph name="quotedblright" format="2">
  <advance width="362"/>
  <unicode hex="201D"/>
  <outline>
    <contour>
      <point x="49" y="512" type="line"/>
      <point x="123" y="529"/>
      <point x="159" y="599"/>
      <point x="159" y="661" type="curve" smooth="yes"/>
      <point x="159" y="695"/>
      <point x="144" y="714"/>
      <point x="121" y="714" type="curve" smooth="yes"/>
      <point x="103" y="714"/>
      <point x="96" y="700"/>
      <point x="96" y="683" type="curve" smooth="yes"/>
      <point x="96" y="666"/>
      <point x="142" y="639"/>
      <point x="142" y="633" type="curve" smooth="yes"/>
      <point x="142" y="596"/>
      <point x="102" y="530"/>
      <point x="49" y="523" type="curve"/>
    </contour>
    <contour>
      <point x="185" y="512" type="line"/>
      <point x="259" y="529"/>
      <point x="295" y="599"/>
      <point x="295" y="661" type="curve" smooth="yes"/>
      <point x="295" y="695"/>
      <point x="280" y="714"/>
      <point x="257" y="714" type="curve" smooth="yes"/>
      <point x="239" y="714"/>
      <point x="232" y="700"/>
      <point x="232" y="683" type="curve" smooth="yes"/>
      <point x="232" y="666"/>
      <point x="278" y="639"/>
      <point x="278" y="633" type="curve" smooth="yes"/>
      <point x="278" y="596"/>
      <point x="238" y="530"/>
      <point x="185" y="523" type="curve"/>
    </contour>
  </outline>
</glyph>
<glyph name="quotedblbase" format="2">
  <advance width="422"/>
  <unicode hex="201E"/>
  <outline>
    <contour>
      <point x="39" y="-105" type="line"/>
      <point x="110" y="-90"/>
      <point x="149" y="-18"/>
      <point x="149" y="39" type="curve" smooth="yes"/>
      <point x="149" y="81"/>
      <point x="134" y="97"/>
      <point x="110" y="97" type="curve" smooth="yes"/>
      <point x="96" y="97"/>
      <point x="86" y="87"/>
      <point x="86" y="62" type="curve" smooth="yes"/>
      <point x="86" y="41"/>
      <point x="129" y="24"/>
      <point x="129" y="12" type="curve" smooth="yes"/>
      <point x="129" y="-17"/>
      <point x="89" y="-89"/>
      <point x="39" y="-94" type="curve"/>
    </contour>
    <contour>
      <point x="254" y="-105" type="line"/>
      <point x="325" y="-90"/>
      <point x="364" y="-18"/>
      <point x="364" y="39" type="curve" smooth="yes"/>
      <point x="364" y="81"/>
      <point x="349" y="97"/>
      <point x="325" y="97" type="curve" smooth="yes"/>
      <point x="311" y="97"/>
      <point x="301" y="87"/>
      <point x="301" y="62" type="curve" smooth="yes"/>
      <point x="301" y="41"/>
      <point x="344" y="24"/>
      <point x="344" y="12" type="curve" smooth="yes"/>
      <point x="344" y="-17"/>
      <point x="304" y="-89"/>
      <point x="254" y="-94" type="curve"/>
    </contour>
  </outline>
</glyph>
<glyph name="uni201F" format="2">
  <advance width="489"/>
  <unicode hex="201F"/>
  <outline>
    <contour>
      <point x="410" y="512" type="curve"/>
      <point x="410" y="523" type="line"/>
      <point x="360" y="528"/>
      <point x="320" y="600"/>
      <point x="320" y="629" type="curve" smooth="yes"/>
      <point x="320" y="641"/>
      <point x="363" y="658"/>
      <point x="363" y="679" type="curve" smooth="yes"/>
      <point x="363" y="704"/>
      <point x="353" y="714"/>
      <point x="339" y="714" type="curve" smooth="yes"/>
      <point x="315" y="714"/>
      <point x="300" y="698"/>
      <point x="300" y="656" type="curve" smooth="yes"/>
      <point x="300" y="599"/>
      <point x="339" y="527"/>
    </contour>
    <contour>
      <point x="195" y="512" type="curve"/>
      <point x="195" y="523" type="line"/>
      <point x="145" y="528"/>
      <point x="105" y="600"/>
      <point x="105" y="629" type="curve" smooth="yes"/>
      <point x="105" y="641"/>
      <point x="148" y="658"/>
      <point x="148" y="679" type="curve" smooth="yes"/>
      <point x="148" y="704"/>
      <point x="138" y="714"/>
      <point x="124" y="714" type="curve" smooth="yes"/>
      <point x="100" y="714"/>
      <point x="85" y="698"/>
      <point x="85" y="656" type="curve" smooth="yes"/>
      <point x="85" y="599"/>
      <point x="124" y="527"/>
    </contour>
  </outline>
</glyph>
<glyph name="daggerdbl" format="2">
  <advance width="503"/>
  <unicode hex="2021"/>
  <outline>
    <contour>
      <point x="238" y="-111" type="line"/>
      <point x="266" y="-111" type="line"/>
      <point x="255" y="104" type="line"/>
      <point x="459" y="98" type="line"/>
      <point x="459" y="126" type="line"/>
      <point x="255" y="114" type="line"/>
      <point x="266" y="232" type="line"/>
      <point x="256" y="312"/>
      <point x="256" y="323"/>
      <point x="256" y="328" type="curve"/>
      <point x="257" y="323"/>
      <point x="256" y="337"/>
      <point x="266" y="417" type="curve"/>
      <point x="254" y="525" type="line"/>
      <point x="459" y="522" type="line"/>
      <point x="459" y="550" type="line"/>
      <point x="254" y="535" type="line"/>
      <point x="266" y="760" type="line"/>
      <point x="238" y="760" type="line"/>
      <point x="249" y="535" type="line"/>
      <point x="43" y="550" type="line"/>
      <point x="43" y="522" type="line"/>
      <point x="249" y="525" type="line"/>
      <point x="238" y="417" type="line"/>
      <point x="246" y="337"/>
      <point x="247" y="323"/>
      <point x="246" y="327" type="curve"/>
      <point x="248" y="323"/>
      <point x="246" y="312"/>
      <point x="238" y="232" type="curve"/>
      <point x="250" y="114" type="line"/>
      <point x="43" y="126" type="line"/>
      <point x="43" y="98" type="line"/>
      <point x="250" y="104" type="line"/>
    </contour>
  </outline>
</glyph>
<glyph name="bullet" format="2">
  <advance width="381"/>
  <unicode hex="2022"/>
  <outline>
    <contour>
      <point x="181" y="228" type="curve" smooth="yes"/>
      <point x="248" y="228"/>
      <point x="312" y="260"/>
      <point x="312" y="356" type="curve" smooth="yes"/>
      <point x="312" y="453"/>
      <point x="248" y="484"/>
      <point x="181" y="484" type="curve" smooth="yes"/>
      <point x="115" y="484"/>
      <point x="49" y="453"/>
      <point x="49" y="356" type="curve" smooth="yes"/>
      <point x="49" y="260"/>
      <point x="115" y="228"/>
    </contour>
  </outline>
</glyph>
<glyph name="blackrightbullet" format="2">
  <advance width="704"/>
  <unicode hex="204D"/>
  <outline>
    <contour>
      <point x="51" y="188" type="line"/>
      <point x="488" y="188" type="line" smooth="yes"/>
      <point x="628" y="188"/>
      <point x="655" y="259"/>
      <point x="655" y="366" type="curve" smooth="yes"/>
      <point x="655" y="473"/>
      <point x="628" y="544"/>
      <point x="488" y="544" type="curve" smooth="yes"/>
      <point x="51" y="544" type="line"/>
      <point x="51" y="535" type="line"/>
      <point x="146" y="535" type="line" smooth="yes"/>
      <point x="144" y="535"/>
      <point x="168" y="515"/>
      <point x="168" y="528" type="curve" smooth="yes"/>
      <point x="168" y="204" type="line" smooth="yes"/>
      <point x="168" y="220"/>
      <point x="144" y="198"/>
      <point x="146" y="198" type="curve" smooth="yes"/>
      <point x="51" y="198" type="line"/>
    </contour>
    <contour>
      <point x="196" y="198" type="line"/>
      <point x="196" y="534" type="line"/>
      <point x="343" y="534" type="line"/>
      <point x="343" y="198" type="line"/>
    </contour>
  </outline>
</glyph>
<glyph name="quadrupleprime" format="2">
  <advance width="441"/>
  <unicode hex="2057"/>
  <outline>
    <contour>
      <point x="20" y="479" type="line"/>
      <point x="30" y="479" type="line"/>
      <point x="115" y="714" type="line"/>
      <point x="63" y="714" type="line"/>
    </contour>
    <contour>
      <point x="326" y="479" type="line"/>
      <point x="336" y="479" type="line"/>
      <point x="421" y="714" type="line"/>
      <point x="369" y="714" type="line"/>
    </contour>
    <contour>
      <point x="122" y="479" type="line"/>
      <point x="132" y="479" type="line"/>
      <point x="217" y="714" type="line"/>
      <point x="165" y="714" type="line"/>
    </contour>
    <contour>
      <point x="224" y="479" type="line"/>
      <point x="234" y="479" type="line"/>
      <point x="319" y="714" type="line"/>
      <point x="267" y="714" type="line"/>
    </contour>
  </outline>
</glyph>
<glyph name="twodotpunctuation" format="2">
  <advance width="244"/>
  <unicode hex="205A"/>
  <outline>
    <contour>
      <point x="117" y="658" type="curve" smooth="yes"/>
      <point x="130" y="658"/>
      <point x="149" y="664"/>
      <point x="149" y="699" type="curve" smooth="yes"/>
      <point x="149" y="731"/>
      <point x="130" y="735"/>
      <point x="117" y="735" type="curve" smooth="yes"/>
      <point x="108" y="735"/>
      <point x="88" y="731"/>
      <point x="88" y="699" type="curve" smooth="yes"/>
      <point x="88" y="664"/>
      <point x="108" y="658"/>
    </contour>
    <contour>
      <point x="117" y="-10" type="curve" smooth="yes"/>
      <point x="130" y="-10"/>
      <point x="149" y="-4"/>
      <point x="149" y="31" type="curve" smooth="yes"/>
      <point x="149" y="63"/>
      <point x="130" y="67"/>
      <point x="117" y="67" type="curve" smooth="yes"/>
      <point x="108" y="67"/>
      <point x="88" y="63"/>
      <point x="88" y="31" type="curve" smooth="yes"/>
      <point x="88" y="-4"/>
      <point x="108" y="-10"/>
    </contour>
  </outline>
</glyph>
<glyph name="fourdotmark" format="2">
  <advance width="754"/>
  <unicode hex="205B"/>
  <outline>
    <contour>
      <point x="381" y="647" type="curve" smooth="yes"/>
      <point x="394" y="647"/>
      <point x="413" y="653"/>
      <point x="413" y="688" type="curve" smooth="yes"/>
      <point x="413" y="720"/>
      <point x="394" y="724"/>
      <point x="381" y="724" type="curve" smooth="yes"/>
      <point x="372" y="724"/>
      <point x="352" y="720"/>
      <point x="352" y="688" type="curve" smooth="yes"/>
      <point x="352" y="653"/>
      <point x="372" y="647"/>
    </contour>
    <contour>
      <point x="381" y="-6" type="curve" smooth="yes"/>
      <point x="394" y="-6"/>
      <point x="413" y="0"/>
      <point x="413" y="35" type="curve" smooth="yes"/>
      <point x="413" y="67"/>
      <point x="394" y="71"/>
      <point x="381" y="71" type="curve" smooth="yes"/>
      <point x="372" y="71"/>
      <point x="352" y="67"/>
      <point x="352" y="35" type="curve" smooth="yes"/>
      <point x="352" y="0"/>
      <point x="372" y="-6"/>
    </contour>
    <contour>
      <point x="169" y="318" type="curve" smooth="yes"/>
      <point x="182" y="318"/>
      <point x="201" y="324"/>
      <point x="201" y="359" type="curve" smooth="yes"/>
      <point x="201" y="391"/>
      <point x="182" y="395"/>
      <point x="169" y="395" type="curve" smooth="yes"/>
      <point x="160" y="395"/>
      <point x="140" y="391"/>
      <point x="140" y="359" type="curve" smooth="yes"/>
      <point x="140" y="324"/>
      <point x="160" y="318"/>
    </contour>
    <contour>
      <point x="583" y="318" type="curve" smooth="yes"/>
      <point x="596" y="318"/>
      <point x="615" y="324"/>
      <point x="615" y="359" type="curve" smooth="yes"/>
      <point x="615" y="391"/>
      <point x="596" y="395"/>
      <point x="583" y="395" type="curve" smooth="yes"/>
      <point x="574" y="395"/>
      <point x="554" y="391"/>
      <point x="554" y="359" type="curve" smooth="yes"/>
      <point x="554" y="324"/>
      <point x="574" y="318"/>
    </contour>
  </outline>
</glyph>
<glyph name="eightsuperior" format="2">
  <advance width="497"/>
  <unicode hex="2078"/>
  <outline>
    <contour>
      <point x="244" y="382" type="curve" smooth="yes"/>
      <point x="341" y="382"/>
      <point x="415" y="423"/>
      <point x="415" y="499" type="curve" smooth="yes"/>
      <point x="415" y="569"/>
      <point x="370" y="594"/>
      <point x="270" y="627" type="curve"/>
      <point x="350" y="637"/>
      <point x="398" y="679"/>
      <point x="398" y="731" type="curve" smooth="yes"/>
      <point x="398" y="780"/>
      <point x="354" y="826"/>
      <point x="249" y="826" type="curve" smooth="yes"/>
      <point x="166" y="826"/>
      <point x="103" y="800"/>
      <point x="103" y="725" type="curve" smooth="yes"/>
      <point x="103" y="664"/>
      <point x="139" y="649"/>
      <point x="211" y="623" type="curve"/>
      <point x="123" y="613"/>
      <point x="82" y="567"/>
      <point x="82" y="497" type="curve" smooth="yes"/>
      <point x="82" y="421"/>
      <point x="134" y="382"/>
    </contour>
    <contour>
      <point x="240" y="392" type="curve" smooth="yes"/>
      <point x="148" y="392"/>
      <point x="108" y="422"/>
      <point x="108" y="499" type="curve" smooth="yes"/>
      <point x="108" y="561"/>
      <point x="144" y="604"/>
      <point x="228" y="619" type="curve"/>
      <point x="384" y="571"/>
      <point x="389" y="541"/>
      <point x="389" y="503" type="curve" smooth="yes"/>
      <point x="389" y="433"/>
      <point x="337" y="392"/>
    </contour>
    <contour>
      <point x="255" y="633" type="curve"/>
      <point x="176" y="652"/>
      <point x="128" y="662"/>
      <point x="129" y="730" type="curve" smooth="yes"/>
      <point x="130" y="789"/>
      <point x="166" y="816"/>
      <point x="250" y="816" type="curve" smooth="yes"/>
      <point x="352" y="816"/>
      <point x="372" y="769"/>
      <point x="372" y="727" type="curve" smooth="yes"/>
      <point x="372" y="686"/>
      <point x="340" y="642"/>
    </contour>
  </outline>
</glyph>
<glyph name="minussuperior" format="2">
  <advance width="476"/>
  <unicode hex="207B"/>
  <outline>
    <contour>
      <point x="50" y="468" type="line"/>
      <point x="426" y="468" type="line"/>
      <point x="426" y="488" type="line"/>
      <point x="50" y="488" type="line"/>
    </contour>
  </outline>
</glyph>
<glyph name="parenleftsuperior" format="2">
  <advance width="310"/>
  <unicode hex="207D"/>
  <outline>
    <contour>
      <point x="280" y="197" type="curve"/>
      <point x="280" y="207" type="line"/>
      <point x="70" y="257"/>
      <point x="73" y="333"/>
      <point x="73" y="491" type="curve" smooth="yes"/>
      <point x="73" y="649"/>
      <point x="70" y="747"/>
      <point x="280" y="777" type="curve"/>
      <point x="280" y="789" type="line"/>
      <point x="82" y="745"/>
      <point x="45" y="725"/>
      <point x="45" y="491" type="curve" smooth="yes"/>
      <point x="45" y="258"/>
      <point x="82" y="242"/>
    </contour>
  </outline>
</glyph>
<glyph name="parenrightsuperior" format="2">
  <advance width="310"/>
  <unicode hex="207E"/>
  <outline>
    <contour>
      <point x="17" y="197" type="line"/>
      <point x="215" y="242"/>
      <point x="252" y="258"/>
      <point x="252" y="491" type="curve" smooth="yes"/>
      <point x="252" y="725"/>
      <point x="215" y="745"/>
      <point x="17" y="789" type="curve"/>
      <point x="17" y="777" type="line"/>
      <point x="227" y="747"/>
      <point x="224" y="649"/>
      <point x="224" y="491" type="curve" smooth="yes"/>
      <point x="224" y="333"/>
      <point x="227" y="257"/>
      <point x="17" y="207" type="curve"/>
    </contour>
  </outline>
</glyph>
